<svg width="106" height="105" viewBox="0 0 106 105" fill="none" xmlns="http://www.w3.org/2000/svg">
<path d="M16.9867 80.0674C15.8156 80.0674 14.7299 79.5387 14.0078 78.6171L11.9386 75.9761C11.0231 74.8094 9.64818 74.1396 8.16585 74.1396H7.64176C4.18084 74.1396 1.36499 71.3238 1.36499 67.8623V41.5754C1.36499 38.1132 4.18084 35.2974 7.64176 35.2974H72.3978C75.8581 35.2974 78.6739 38.1132 78.6739 41.5754V67.8623C78.6739 71.3238 75.8581 74.1396 72.3978 74.1396H33.4593C32.0397 74.1396 30.7017 74.7634 29.7887 75.8506L27.3825 78.7168C26.6617 79.5749 25.6051 80.0674 24.4838 80.0674H16.9867Z" fill="white"/>
<path d="M72.3977 34.1364H7.64164C3.53369 34.1364 0.204102 37.4673 0.204102 41.576V67.8629C0.204102 71.9716 3.53369 75.3018 7.64164 75.3018H8.16572C9.28184 75.3018 10.3358 75.815 11.0249 76.6938L13.0941 79.3348C14.0316 80.5307 15.4667 81.2296 16.9866 81.2296H24.4843C25.9453 81.2296 27.3319 80.5831 28.272 79.4642L30.6783 76.5987C31.368 75.7768 32.3864 75.3018 33.4592 75.3018H72.3977C76.5056 75.3018 79.8352 71.9716 79.8352 67.8629V41.576C79.8352 37.4673 76.5056 34.1364 72.3977 34.1364ZM72.3977 36.4596C75.218 36.4596 77.5124 38.7544 77.5124 41.576V67.8629C77.5124 70.6838 75.218 72.9785 72.3977 72.9785H33.4592C31.6954 72.9785 30.0338 73.7538 28.8989 75.1051L26.4933 77.97C25.9932 78.5653 25.2607 78.907 24.4843 78.907H16.9866C16.1752 78.907 15.4227 78.5401 14.9219 77.9014L12.8528 75.261C11.7159 73.8108 10.0078 72.9785 8.16572 72.9785H7.64164C4.82126 72.9785 2.52627 70.6838 2.52627 67.8629V41.576C2.52627 38.7544 4.82126 36.4596 7.64164 36.4596H72.3977Z" fill="#2D2D64"/>
<path d="M19.0256 40.8013C18.0563 40.8013 17.1479 40.3722 16.5333 39.6241L14.2939 36.9003C13.3797 35.7885 12.03 35.1511 10.591 35.1511H7.64185C4.18092 35.1511 1.36572 32.3347 1.36572 28.8731V8.38526C1.36572 4.92434 4.18092 2.10797 7.64185 2.10797H72.3979C75.8582 2.10797 78.674 4.92434 78.674 8.38526V28.8731C78.674 32.3347 75.8582 35.1511 72.3979 35.1511H31.8211C30.3821 35.1511 29.0325 35.7885 28.1189 36.9003L25.8562 39.6532C25.2558 40.3826 24.3694 40.8013 23.4247 40.8013H19.0256Z" fill="#32D900"/>
<path d="M72.3977 0.946598H7.64164C3.53369 0.946598 0.204102 4.27679 0.204102 8.3855V28.8734C0.204102 32.9821 3.53369 36.3129 7.64164 36.3129H10.5914C11.6771 36.3129 12.7065 36.7989 13.3969 37.6383L15.6356 40.3615C16.4696 41.3755 17.7126 41.9631 19.0254 41.9631H23.4245C24.7133 41.9631 25.9343 41.3859 26.7528 40.3906L29.0154 37.6383C29.7058 36.7989 30.7345 36.3129 31.8215 36.3129H72.3977C76.5056 36.3129 79.8352 32.9821 79.8352 28.8734V8.3855C79.8352 4.27679 76.5056 0.946598 72.3977 0.946598ZM72.3977 3.26919C75.218 3.26919 77.5124 5.56461 77.5124 8.3855V28.8734C77.5124 31.6949 75.218 33.9897 72.3977 33.9897H31.8215C30.0332 33.9897 28.3574 34.7818 27.2219 36.1628L24.9586 38.9151C24.5801 39.3759 24.0204 39.6405 23.4245 39.6405H19.0254C18.4049 39.6405 17.8232 39.3655 17.4298 38.886L15.1905 36.1628C14.0556 34.7818 12.3785 33.9897 10.5914 33.9897H7.64164C4.82126 33.9897 2.52627 31.6949 2.52627 28.8734V8.3855C2.52627 5.56461 4.82126 3.26919 7.64164 3.26919H72.3977Z" fill="#2D2D64"/>
<path d="M64.3635 26.8965C60.2413 26.8965 56.8884 23.5423 56.8884 19.4201C56.8884 15.2978 60.2413 11.9436 64.3635 11.9436C68.485 11.9436 71.8385 15.2978 71.8385 19.4201C71.8385 23.5423 68.485 26.8965 64.3635 26.8965Z" fill="#2D2D64"/>
<path d="M64.3627 10.626C59.5068 10.626 55.5703 14.5632 55.5703 19.4194C55.5703 24.2762 59.5068 28.2134 64.3627 28.2134C69.2186 28.2134 73.1545 24.2762 73.1545 19.4194C73.1545 14.5632 69.2186 10.626 64.3627 10.626ZM64.3627 13.2605C67.7583 13.2605 70.5204 16.0238 70.5204 19.4194C70.5204 22.8156 67.7583 25.5789 64.3627 25.5789C60.9671 25.5789 58.2043 22.8156 58.2043 19.4194C58.2043 16.0238 60.9671 13.2605 64.3627 13.2605" fill="white"/>
<path d="M36.365 26.8965C32.2428 26.8965 28.8899 23.5423 28.8899 19.4201C28.8899 15.2978 32.2428 11.9436 36.365 11.9436C40.4865 11.9436 43.84 15.2978 43.84 19.4201C43.84 23.5423 40.4865 26.8965 36.365 26.8965Z" fill="#2D2D64"/>
<path d="M36.3644 10.626C31.5085 10.626 27.572 14.5632 27.572 19.4194C27.572 24.2762 31.5085 28.2134 36.3644 28.2134C41.2197 28.2134 45.1562 24.2762 45.1562 19.4194C45.1562 14.5632 41.2197 10.626 36.3644 10.626ZM36.3644 13.2605C39.76 13.2605 42.5221 16.0238 42.5221 19.4194C42.5221 22.8156 39.76 25.5789 36.3644 25.5789C32.9688 25.5789 30.2061 22.8156 30.2061 19.4194C30.2061 16.0238 32.9688 13.2605 36.3644 13.2605" fill="white"/>
<rect x="39.4761" y="76.8613" width="55.5414" height="28.1323" rx="6" fill="white"/>
<path d="M53.1388 87.097C51.2043 86.4618 50.151 84.3774 50.7868 82.443C51.4222 80.5081 53.5058 79.4551 55.4408 80.0907C57.3752 80.726 58.4292 82.81 57.7932 84.7449C57.1576 86.6796 55.0736 87.7326 53.1388 87.097Z" fill="#2D2D64"/>
<path d="M55.9103 83.5485L55.9031 83.5417L54.7439 82.3822C54.4933 82.1317 54.0872 82.1317 53.8365 82.3822L52.6843 83.5341L52.6616 83.5566C52.5859 83.6381 52.539 83.7474 52.539 83.8677C52.539 84.1196 52.7437 84.3237 52.9956 84.3241L52.996 84.3241L55.5839 84.3241L55.5845 84.3241C55.8364 84.3237 56.0405 84.1193 56.0405 83.8677C56.0405 83.7431 55.9907 83.6308 55.9103 83.5485" fill="white"/>
<path d="M58.1854 89.8292C58.8207 87.8947 60.905 86.8414 62.8395 87.4772C64.7744 88.1126 65.8273 90.1963 65.1918 92.1313C64.5565 94.0656 62.4724 95.1196 60.5376 94.4837C58.6028 93.848 57.5499 91.7641 58.1854 89.8292Z" fill="#2D2D64"/>
<path d="M61.7336 92.6007L61.7404 92.5935L62.8999 91.4344C63.1504 91.1837 63.1504 90.7777 62.8999 90.527L61.748 89.3748L61.7255 89.352C61.644 89.2763 61.5347 89.2295 61.4144 89.2295C61.1625 89.2295 60.9584 89.4341 60.958 89.686L60.958 89.6864L60.958 92.2743L60.958 92.275C60.9584 92.5268 61.1628 92.731 61.4144 92.731C61.539 92.731 61.6513 92.6811 61.7336 92.6007" fill="white"/>
<path d="M50.4066 92.1314C49.7713 94.0658 47.687 95.1192 45.7525 94.4834C43.8177 93.848 42.7647 91.7643 43.4003 89.8293C44.0355 87.895 46.1196 86.841 48.0545 87.4769C49.9892 88.1126 51.0421 90.1965 50.4066 92.1314Z" fill="#2D2D64"/>
<path d="M46.8577 89.36L46.8509 89.3672L45.6914 90.5263C45.441 90.777 45.441 91.183 45.6914 91.4337L46.8433 92.5859L46.8658 92.6087C46.9473 92.6844 47.0566 92.7312 47.1769 92.7312C47.4288 92.7312 47.6329 92.5266 47.6333 92.2747L47.6333 92.2743L47.6333 89.6864L47.6333 89.6857C47.6329 89.4339 47.4285 89.2297 47.1769 89.2297C47.0523 89.2297 46.94 89.2796 46.8577 89.36" fill="white"/>
<path d="M55.4411 94.8355C57.3755 95.4707 58.4289 97.5551 57.7931 99.4895C57.1577 101.424 55.074 102.477 53.139 101.842C51.2047 101.207 50.1507 99.1225 50.7866 97.1876C51.4223 95.2529 53.5062 94.1999 55.4411 94.8355Z" fill="#2D2D64"/>
<path d="M52.6698 98.3841L52.677 98.3909L53.8361 99.5504C54.0868 99.8009 54.4929 99.8009 54.7435 99.5504L55.8957 98.3985L55.9185 98.376C55.9942 98.2945 56.041 98.1852 56.041 98.0649C56.041 97.813 55.8364 97.6089 55.5845 97.6085L55.5841 97.6085L52.9962 97.6085L52.9955 97.6085C52.7437 97.6089 52.5396 97.8133 52.5396 98.0649C52.5396 98.1895 52.5894 98.3019 52.6698 98.3841" fill="white"/>
<circle cx="77.2186" cy="95.5672" r="3.95542" fill="#2D2D64"/>
<circle cx="85.1295" cy="87.2147" r="3.95542" fill="#2D2D64"/>
<path d="M100.871 69.0659C101.791 64.9665 98.5674 60.7522 93.6709 59.6529C88.7744 58.5537 84.0589 60.9858 83.1386 65.0853" stroke="white" stroke-width="2.58202" stroke-linecap="round"/>
<path d="M97.1294 71.2584C97.7173 68.6393 95.5631 65.9255 92.3177 65.197C89.0723 64.4684 85.9648 66.001 85.3768 68.6201" stroke="white" stroke-width="2.58202" stroke-linecap="round"/>
<path d="M93.8683 74.2081C94.2006 72.7277 92.993 71.1961 91.171 70.7871C89.3491 70.3781 87.6027 71.2466 87.2703 72.7269" stroke="white" stroke-width="2.58202" stroke-linecap="round"/>
</svg>
