<svg width="132" height="110" viewBox="0 0 132 110" fill="none" xmlns="http://www.w3.org/2000/svg">
<path d="M0 102.256C0 100.864 0.288 99.6479 0.864 98.6079C1.44 97.5679 2.24 96.7679 3.264 96.2079C4.304 95.6479 5.488 95.3679 6.816 95.3679C8.528 95.3679 9.968 95.8399 11.136 96.7839C12.304 97.7119 13.056 99.0159 13.392 100.696H8.4C8.112 99.8159 7.552 99.3759 6.72 99.3759C6.128 99.3759 5.656 99.6239 5.304 100.12C4.968 100.6 4.8 101.312 4.8 102.256C4.8 103.2 4.968 103.92 5.304 104.416C5.656 104.912 6.128 105.16 6.72 105.16C7.568 105.16 8.128 104.72 8.4 103.84H13.392C13.056 105.504 12.304 106.808 11.136 107.752C9.968 108.696 8.528 109.168 6.816 109.168C5.488 109.168 4.304 108.888 3.264 108.328C2.24 107.768 1.44 106.968 0.864 105.928C0.288 104.888 0 103.664 0 102.256Z" fill="#2D2D64"/>
<path d="M14.0981 102.256C14.0981 100.864 14.3461 99.6479 14.8421 98.6079C15.3541 97.5679 16.0421 96.7679 16.9061 96.2079C17.7861 95.6479 18.7621 95.3679 19.8341 95.3679C20.7621 95.3679 21.5621 95.5519 22.2341 95.9199C22.9061 96.2879 23.4261 96.7839 23.7941 97.4079V95.5359H28.4981V109H23.7941V107.128C23.4261 107.752 22.8981 108.248 22.2101 108.616C21.5381 108.984 20.7461 109.168 19.8341 109.168C18.7621 109.168 17.7861 108.888 16.9061 108.328C16.0421 107.768 15.3541 106.968 14.8421 105.928C14.3461 104.872 14.0981 103.648 14.0981 102.256ZM23.7941 102.256C23.7941 101.392 23.5541 100.712 23.0741 100.216C22.6101 99.7199 22.0341 99.4719 21.3461 99.4719C20.6421 99.4719 20.0581 99.7199 19.5941 100.216C19.1301 100.696 18.8981 101.376 18.8981 102.256C18.8981 103.12 19.1301 103.808 19.5941 104.32C20.0581 104.816 20.6421 105.064 21.3461 105.064C22.0341 105.064 22.6101 104.816 23.0741 104.32C23.5541 103.824 23.7941 103.136 23.7941 102.256Z" fill="#2D2D64"/>
<path d="M35.4026 91.2399V109H30.6986V91.2399H35.4026Z" fill="#2D2D64"/>
<path d="M39.9774 94.2879C39.1454 94.2879 38.4734 94.0639 37.9614 93.6159C37.4654 93.1519 37.2174 92.5759 37.2174 91.8879C37.2174 91.1839 37.4654 90.5999 37.9614 90.1359C38.4734 89.6719 39.1454 89.4399 39.9774 89.4399C40.7934 89.4399 41.4494 89.6719 41.9454 90.1359C42.4574 90.5999 42.7134 91.1839 42.7134 91.8879C42.7134 92.5759 42.4574 93.1519 41.9454 93.6159C41.4494 94.0639 40.7934 94.2879 39.9774 94.2879ZM42.3054 95.5359V109H37.6014V95.5359H42.3054Z" fill="#2D2D64"/>
<path d="M49.2083 97.4079C49.5763 96.7679 50.0963 96.2719 50.7683 95.9199C51.4403 95.5519 52.2323 95.3679 53.1443 95.3679C54.2163 95.3679 55.1843 95.6479 56.0483 96.2079C56.9283 96.7679 57.6162 97.5679 58.1123 98.6079C58.6243 99.6479 58.8803 100.864 58.8803 102.256C58.8803 103.648 58.6243 104.872 58.1123 105.928C57.6162 106.968 56.9283 107.768 56.0483 108.328C55.1843 108.888 54.2163 109.168 53.1443 109.168C52.2323 109.168 51.4403 108.992 50.7683 108.64C50.0963 108.272 49.5763 107.768 49.2083 107.128V109H44.5043V91.2399H49.2083V97.4079ZM54.1043 102.256C54.1043 101.376 53.8643 100.696 53.3843 100.216C52.9202 99.7199 52.3442 99.4719 51.6562 99.4719C50.9683 99.4719 50.3843 99.7199 49.9043 100.216C49.4403 100.712 49.2083 101.392 49.2083 102.256C49.2083 103.136 49.4403 103.824 49.9043 104.32C50.3843 104.816 50.9683 105.064 51.6562 105.064C52.3442 105.064 52.9202 104.816 53.3843 104.32C53.8643 103.808 54.1043 103.12 54.1043 102.256Z" fill="#2D2D64"/>
<path d="M65.0407 97.9119C65.5687 97.1439 66.2087 96.5359 66.9607 96.0879C67.7127 95.6399 68.5208 95.4159 69.3848 95.4159V100.432H68.0648C67.0407 100.432 66.2808 100.632 65.7848 101.032C65.2887 101.432 65.0407 102.128 65.0407 103.12V109H60.3368V95.5359H65.0407V97.9119Z" fill="#2D2D64"/>
<path d="M69.8231 102.256C69.8231 100.864 70.0711 99.6479 70.5671 98.6079C71.0791 97.5679 71.7671 96.7679 72.6311 96.2079C73.5111 95.6479 74.4871 95.3679 75.5591 95.3679C76.4871 95.3679 77.2871 95.5519 77.9591 95.9199C78.6311 96.2879 79.1511 96.7839 79.5191 97.4079V95.5359H84.2231V109H79.5191V107.128C79.1511 107.752 78.6231 108.248 77.9351 108.616C77.2631 108.984 76.4711 109.168 75.5591 109.168C74.4871 109.168 73.5111 108.888 72.6311 108.328C71.7671 107.768 71.0791 106.968 70.5671 105.928C70.0711 104.872 69.8231 103.648 69.8231 102.256ZM79.5191 102.256C79.5191 101.392 79.2791 100.712 78.7991 100.216C78.3351 99.7199 77.7591 99.4719 77.0711 99.4719C76.3671 99.4719 75.7831 99.7199 75.3191 100.216C74.8551 100.696 74.6231 101.376 74.6231 102.256C74.6231 103.12 74.8551 103.808 75.3191 104.32C75.7831 104.816 76.3671 105.064 77.0711 105.064C77.7591 105.064 78.3351 104.816 78.7991 104.32C79.2791 103.824 79.5191 103.136 79.5191 102.256Z" fill="#2D2D64"/>
<path d="M94.3676 104.992V109H92.3276C88.8876 109 87.1676 107.296 87.1676 103.888V99.4479H85.5116V95.5359H87.1676V92.2719H91.8956V95.5359H94.3436V99.4479H91.8956V103.96C91.8956 104.328 91.9756 104.592 92.1356 104.752C92.3116 104.912 92.5996 104.992 92.9996 104.992H94.3676Z" fill="#2D2D64"/>
<path d="M98.4212 94.2879C97.5892 94.2879 96.9172 94.0639 96.4052 93.6159C95.9092 93.1519 95.6612 92.5759 95.6612 91.8879C95.6612 91.1839 95.9092 90.5999 96.4052 90.1359C96.9172 89.6719 97.5892 89.4399 98.4212 89.4399C99.2372 89.4399 99.8932 89.6719 100.389 90.1359C100.901 90.5999 101.157 91.1839 101.157 91.8879C101.157 92.5759 100.901 93.1519 100.389 93.6159C99.8932 94.0639 99.2372 94.2879 98.4212 94.2879ZM100.749 95.5359V109H96.0452V95.5359H100.749Z" fill="#2D2D64"/>
<path d="M109.212 109.168C107.868 109.168 106.66 108.888 105.588 108.328C104.532 107.768 103.7 106.968 103.092 105.928C102.484 104.888 102.18 103.664 102.18 102.256C102.18 100.864 102.484 99.6479 103.092 98.6079C103.716 97.5679 104.556 96.7679 105.612 96.2079C106.684 95.6479 107.892 95.3679 109.236 95.3679C110.58 95.3679 111.78 95.6479 112.836 96.2079C113.908 96.7679 114.748 97.5679 115.356 98.6079C115.98 99.6479 116.292 100.864 116.292 102.256C116.292 103.648 115.98 104.872 115.356 105.928C114.748 106.968 113.908 107.768 112.836 108.328C111.764 108.888 110.556 109.168 109.212 109.168ZM109.212 105.088C109.868 105.088 110.412 104.848 110.844 104.368C111.292 103.872 111.516 103.168 111.516 102.256C111.516 101.344 111.292 100.648 110.844 100.168C110.412 99.6879 109.876 99.4479 109.236 99.4479C108.596 99.4479 108.06 99.6879 107.628 100.168C107.196 100.648 106.98 101.344 106.98 102.256C106.98 103.184 107.188 103.888 107.604 104.368C108.02 104.848 108.556 105.088 109.212 105.088Z" fill="#2D2D64"/>
<path d="M126.534 95.4159C128.086 95.4159 129.318 95.9359 130.23 96.9759C131.142 97.9999 131.598 99.3919 131.598 101.152V109H126.894V101.776C126.894 101.008 126.694 100.408 126.294 99.9759C125.894 99.5279 125.358 99.3039 124.686 99.3039C123.982 99.3039 123.43 99.5279 123.03 99.9759C122.63 100.408 122.43 101.008 122.43 101.776V109H117.726V95.5359H122.43V97.4559C122.846 96.8479 123.406 96.3599 124.11 95.9919C124.814 95.6079 125.622 95.4159 126.534 95.4159Z" fill="#2D2D64"/>
<path d="M42.9924 21.8594L46.6761 21.8594L88.682 21.8594L92.3641 21.8594L92.3685 47.7534L90.8982 49.1895L88.0758 49.1895L47.2948 49.1895L47.2932 49.1895L44.4701 49.1895L42.9969 47.7534L42.9924 21.8594Z" fill="white" stroke="#2D2D64" stroke-width="1.2" stroke-linecap="round" stroke-linejoin="round"/>
<path d="M48.0194 1L87.3306 0.999999L89.4137 0.999999L90.8901 2.43846L90.8934 21.8594L44.4654 21.8594L44.462 2.43846L45.9372 1L48.0194 1Z" fill="#3AD531" stroke="#2D2D64" stroke-width="1.2" stroke-miterlimit="10"/>
<path d="M92.3682 47.7534L88.6862 47.7534" stroke="#2D2D64" stroke-width="1.2" stroke-linecap="round" stroke-linejoin="round"/>
<path d="M88.6819 21.8594L88.6863 47.7534" stroke="#2D2D64" stroke-width="1.2" stroke-linecap="round" stroke-linejoin="round"/>
<path d="M46.6804 47.7534L46.676 21.8594" stroke="#2D2D64" stroke-width="1.2" stroke-linecap="round" stroke-linejoin="round"/>
<path d="M42.9968 47.7534L46.6805 47.7534" stroke="#2D2D64" stroke-width="1.2" stroke-linecap="round" stroke-linejoin="round"/>
<path d="M46.6803 47.7533L47.293 49.1895" stroke="#2D2D64" stroke-width="1.2" stroke-linecap="round" stroke-linejoin="round"/>
<path d="M88.6863 47.7533L46.6803 47.7533" stroke="#2D2D64" stroke-width="1.2" stroke-linecap="round" stroke-linejoin="round"/>
<path d="M88.0757 49.1896L88.6863 47.7534" stroke="#2D2D64" stroke-width="1.2" stroke-linecap="round" stroke-linejoin="round"/>
<path d="M47.4096 2.43848L44.462 2.43848" stroke="#2D2D64" stroke-width="1.2" stroke-linecap="round" stroke-linejoin="round"/>
<path d="M47.4129 21.8594L47.4095 2.43848" stroke="#2D2D64" stroke-width="1.2" stroke-linecap="round" stroke-linejoin="round"/>
<path d="M87.9418 2.43848L87.9451 21.8594" stroke="#2D2D64" stroke-width="1.2" stroke-linecap="round" stroke-linejoin="round"/>
<path d="M87.9418 2.43848L90.8901 2.43848" stroke="#2D2D64" stroke-width="1.2" stroke-linecap="round" stroke-linejoin="round"/>
<path d="M48.0196 1L47.4098 2.43846" stroke="#2D2D64" stroke-width="1.2" stroke-linecap="round" stroke-linejoin="round"/>
<path d="M47.4095 2.43848L87.9417 2.43848" stroke="#2D2D64" stroke-width="1.2" stroke-linecap="round" stroke-linejoin="round"/>
<path d="M87.3308 1L87.9419 2.43846" stroke="#2D2D64" stroke-width="1.2" stroke-linecap="round" stroke-linejoin="round"/>
<path d="M92.3219 73.2792L92.3181 51.4328L90.8425 49.9951L90.2301 49.9951L82.2383 49.9951L81.629 49.9951L80.1563 51.4328L80.16 73.3025" fill="white"/>
<path d="M92.3219 73.2792L92.3181 51.4328L90.8425 49.9951L90.2301 49.9951L82.2383 49.9951L81.629 49.9951L80.1563 51.4328L80.16 73.3025" stroke="#2D2D64" stroke-width="1.2" stroke-linecap="round" stroke-linejoin="round"/>
<path d="M92.318 51.4327L90.8427 51.4327" stroke="#2D2D64" stroke-width="1.2" stroke-linecap="round" stroke-linejoin="round"/>
<path d="M90.8461 71.8383L90.8427 51.4327" stroke="#2D2D64" stroke-width="1.2" stroke-linecap="round" stroke-linejoin="round"/>
<path d="M80.1561 51.4327L81.6291 51.4327" stroke="#2D2D64" stroke-width="1.2" stroke-linecap="round" stroke-linejoin="round"/>
<path d="M81.6325 71.864L81.629 51.4327" stroke="#2D2D64" stroke-width="1.2" stroke-linecap="round" stroke-linejoin="round"/>
<path d="M90.8427 51.4328L90.23 49.9951" stroke="#2D2D64" stroke-width="1.2" stroke-linecap="round" stroke-linejoin="round"/>
<path d="M81.629 51.4327L90.8426 51.4327" stroke="#2D2D64" stroke-width="1.2" stroke-linecap="round" stroke-linejoin="round"/>
<path d="M81.629 51.4328L82.2381 49.9951" stroke="#2D2D64" stroke-width="1.2" stroke-linecap="round" stroke-linejoin="round"/>
<path d="M92.6237 77.8994L95.3212 67.8253L92.6934 63.3974L84.8638 61.2994L80.3722 63.8198L77.3025 75.2841" fill="white"/>
<path d="M92.6237 77.8994L95.3212 67.8253L92.6934 63.3974L84.8638 61.2994L80.3722 63.8198L77.3025 75.2841" stroke="#2D2D64" stroke-width="1.2" stroke-linecap="round" stroke-linejoin="round"/>
<path d="M79.1014 74.2761L77.3025 75.2841L76.7438 77.3706L80.3051 78.3248L100.947 83.8559L105.217 85.0001L105.776 82.9135L104.725 81.1418L101.287 80.2206L81.8261 75.0061L79.1014 74.2761Z" fill="white" stroke="#2D2D64" stroke-width="1.2" stroke-linecap="round" stroke-linejoin="round"/>
<path d="M101.506 81.7693L105.776 82.9134" stroke="#2D2D64" stroke-width="1.2" stroke-linecap="round" stroke-linejoin="round"/>
<path d="M101.287 80.2206L101.506 81.7694" stroke="#2D2D64" stroke-width="1.2" stroke-linecap="round" stroke-linejoin="round"/>
<path d="M81.8263 75.0061L80.8639 76.2383" stroke="#2D2D64" stroke-width="1.2" stroke-linecap="round" stroke-linejoin="round"/>
<path d="M100.948 83.8558L101.506 81.7693" stroke="#2D2D64" stroke-width="1.2" stroke-linecap="round" stroke-linejoin="round"/>
<path d="M101.506 81.7693L80.864 76.2382" stroke="#2D2D64" stroke-width="1.2" stroke-linecap="round" stroke-linejoin="round"/>
<path d="M80.864 76.2382L80.3053 78.3247" stroke="#2D2D64" stroke-width="1.2" stroke-linecap="round" stroke-linejoin="round"/>
<path d="M77.3026 75.2841L80.8638 76.2383" stroke="#2D2D64" stroke-width="1.2" stroke-linecap="round" stroke-linejoin="round"/>
<path d="M81.6449 64.778L79.1016 74.276" stroke="#2D2D64" stroke-width="1.2" stroke-linecap="round" stroke-linejoin="round"/>
<path d="M91.201 77.5181L93.7443 68.02" stroke="#2D2D64" stroke-width="1.2" stroke-linecap="round" stroke-linejoin="round"/>
<path d="M81.645 64.778L80.3726 63.8198" stroke="#2D2D64" stroke-width="1.2" stroke-linecap="round" stroke-linejoin="round"/>
<path d="M85.082 62.8471L81.6448 64.7781" stroke="#2D2D64" stroke-width="1.2" stroke-linecap="round" stroke-linejoin="round"/>
<path d="M85.082 62.8471L84.864 61.2994" stroke="#2D2D64" stroke-width="1.2" stroke-linecap="round" stroke-linejoin="round"/>
<path d="M91.7293 64.6283L85.0822 62.8472" stroke="#2D2D64" stroke-width="1.2" stroke-linecap="round" stroke-linejoin="round"/>
<path d="M91.7291 64.6282L92.6936 63.3974" stroke="#2D2D64" stroke-width="1.2" stroke-linecap="round" stroke-linejoin="round"/>
<path d="M93.7443 68.0201L91.7291 64.6282" stroke="#2D2D64" stroke-width="1.2" stroke-linecap="round" stroke-linejoin="round"/>
<path d="M95.3215 67.8253L93.7445 68.02" stroke="#2D2D64" stroke-width="1.2" stroke-linecap="round" stroke-linejoin="round"/>
<path d="M43.3498 73.2636L43.3461 51.4196L44.8212 49.9811L45.4321 49.9811L53.4223 49.9811L54.0347 49.9811L55.508 51.4196L55.5117 73.2901" fill="white"/>
<path d="M43.3498 73.2636L43.3461 51.4196L44.8212 49.9811L45.4321 49.9811L53.4223 49.9811L54.0347 49.9811L55.508 51.4196L55.5117 73.29" stroke="#2D2D64" stroke-width="1.2" stroke-linecap="round" stroke-linejoin="round"/>
<path d="M43.3458 51.4196L44.8212 51.4196" stroke="#2D2D64" stroke-width="1.2" stroke-linecap="round" stroke-linejoin="round"/>
<path d="M44.8248 71.8259L44.8213 51.4196" stroke="#2D2D64" stroke-width="1.2" stroke-linecap="round" stroke-linejoin="round"/>
<path d="M55.5076 51.4196L54.0347 51.4196" stroke="#2D2D64" stroke-width="1.2" stroke-linecap="round" stroke-linejoin="round"/>
<path d="M54.0382 71.8508L54.0347 51.4196" stroke="#2D2D64" stroke-width="1.2" stroke-linecap="round" stroke-linejoin="round"/>
<path d="M44.8213 51.4196L45.4319 49.9811" stroke="#2D2D64" stroke-width="1.2" stroke-linecap="round" stroke-linejoin="round"/>
<path d="M54.0348 51.4196L44.8213 51.4196" stroke="#2D2D64" stroke-width="1.2" stroke-linecap="round" stroke-linejoin="round"/>
<path d="M54.0348 51.4196L53.4221 49.9811" stroke="#2D2D64" stroke-width="1.2" stroke-linecap="round" stroke-linejoin="round"/>
<path d="M39.2045 72.7876L43.6762 63.366L48.5483 61.6956L55.8692 65.1677L57.6581 69.9971L52.5693 80.719" fill="white"/>
<path d="M39.2045 72.7876L43.6762 63.366L48.5483 61.6956L55.8692 65.1677L57.6581 69.9971L52.5693 80.719" stroke="#2D2D64" stroke-width="1.2" stroke-linecap="round" stroke-linejoin="round"/>
<path d="M51.8547 78.7872L52.5692 80.7189L51.643 82.6703L48.3119 81.0905L29.0071 71.9349L25.0115 70.0399L25.9377 68.0886L27.885 67.4192L31.1001 68.944L49.3046 77.5778L51.8547 78.7872Z" fill="white" stroke="#2D2D64" stroke-width="1.2" stroke-linecap="round" stroke-linejoin="round"/>
<path d="M29.9341 69.9833L25.9386 68.0884" stroke="#2D2D64" stroke-width="1.2" stroke-linecap="round" stroke-linejoin="round"/>
<path d="M31.1011 68.944L29.9342 69.9835" stroke="#2D2D64" stroke-width="1.2" stroke-linecap="round" stroke-linejoin="round"/>
<path d="M49.3055 77.5776L49.2389 79.139" stroke="#2D2D64" stroke-width="1.2" stroke-linecap="round" stroke-linejoin="round"/>
<path d="M29.0078 71.9348L29.934 69.9834" stroke="#2D2D64" stroke-width="1.2" stroke-linecap="round" stroke-linejoin="round"/>
<path d="M29.934 69.9834L49.2387 79.139" stroke="#2D2D64" stroke-width="1.2" stroke-linecap="round" stroke-linejoin="round"/>
<path d="M49.2388 79.1389L48.3126 81.0903" stroke="#2D2D64" stroke-width="1.2" stroke-linecap="round" stroke-linejoin="round"/>
<path d="M52.57 80.7188L49.2388 79.1389" stroke="#2D2D64" stroke-width="1.2" stroke-linecap="round" stroke-linejoin="round"/>
<path d="M56.0706 69.9043L51.8545 78.7872" stroke="#2D2D64" stroke-width="1.2" stroke-linecap="round" stroke-linejoin="round"/>
<path d="M40.5351 73.4188L44.7511 64.5359" stroke="#2D2D64" stroke-width="1.2" stroke-linecap="round" stroke-linejoin="round"/>
<path d="M56.0704 69.9044L57.6577 69.9973" stroke="#2D2D64" stroke-width="1.2" stroke-linecap="round" stroke-linejoin="round"/>
<path d="M54.7014 66.2063L56.0703 69.9044" stroke="#2D2D64" stroke-width="1.2" stroke-linecap="round" stroke-linejoin="round"/>
<path d="M54.7014 66.2062L55.8688 65.1677" stroke="#2D2D64" stroke-width="1.2" stroke-linecap="round" stroke-linejoin="round"/>
<path d="M48.4838 63.2573L54.7016 66.2062" stroke="#2D2D64" stroke-width="1.2" stroke-linecap="round" stroke-linejoin="round"/>
<path d="M48.4836 63.2573L48.5477 61.6957" stroke="#2D2D64" stroke-width="1.2" stroke-linecap="round" stroke-linejoin="round"/>
<path d="M44.7511 64.5359L48.4838 63.2574" stroke="#2D2D64" stroke-width="1.2" stroke-linecap="round" stroke-linejoin="round"/>
<path d="M43.6757 63.3661L44.7509 64.5359" stroke="#2D2D64" stroke-width="1.2" stroke-linecap="round" stroke-linejoin="round"/>
<path d="M77.4069 17.9799C80.7229 17.9799 83.4109 15.3544 83.4103 12.117C83.4097 8.88125 80.7209 6.25806 77.4049 6.25806C74.0857 6.25806 71.3962 8.88125 71.3968 12.117C71.3973 15.3544 74.0877 17.9799 77.4069 17.9799Z" fill="white"/>
<path d="M77.4425 16.2994C75.0716 16.2994 73.1541 14.425 73.1537 12.1132C73.1533 9.80134 75.0701 7.92541 77.4411 7.92541C79.8105 7.92541 81.7312 9.80134 81.7316 12.1132C81.732 14.425 79.8119 16.2994 77.4425 16.2994Z" fill="#2D2D64"/>
<path d="M57.9138 17.9799C61.2304 17.9799 63.9185 15.3557 63.918 12.1186C63.9174 8.88151 61.2284 6.25732 57.9118 6.25732C54.5952 6.25732 51.9071 8.88151 51.9076 12.1186C51.9082 15.3557 54.5972 17.9799 57.9138 17.9799Z" fill="white"/>
<path d="M57.9527 16.2994C55.5817 16.2994 53.6642 14.425 53.6638 12.1132C53.6634 9.80134 55.5803 7.92541 57.9512 7.92541C60.3174 7.92541 62.2397 9.80134 62.2401 12.1132C62.2405 14.425 60.3181 16.2994 57.9527 16.2994Z" fill="#2D2D64"/>
<mask id="path-78-outside-1_518_6450" maskUnits="userSpaceOnUse" x="79.9999" y="45" width="29" height="34" fill="black">
<rect fill="white" x="79.9999" y="45" width="29" height="34"/>
<path fill-rule="evenodd" clip-rule="evenodd" d="M89.9999 47H98.9999V61H107L94.4999 77L81.9999 61H89.9999V47Z"/>
</mask>
<path fill-rule="evenodd" clip-rule="evenodd" d="M89.9999 47H98.9999V61H107L94.4999 77L81.9999 61H89.9999V47Z" fill="#FF6600"/>
<path d="M98.9999 47H101C101 45.8954 100.104 45 98.9999 45V47ZM89.9999 47V45C88.8953 45 87.9999 45.8954 87.9999 47H89.9999ZM98.9999 61H96.9999C96.9999 62.1046 97.8953 63 98.9999 63V61ZM107 61L108.576 62.2313C109.047 61.6287 109.133 60.8105 108.797 60.1232C108.462 59.436 107.765 59 107 59V61ZM94.4999 77L92.9238 78.2313C93.3029 78.7164 93.8842 79 94.4999 79C95.1155 79 95.6969 78.7164 96.0759 78.2313L94.4999 77ZM81.9999 61V59C81.2352 59 80.5375 59.436 80.2023 60.1232C79.8671 60.8105 79.9531 61.6287 80.4238 62.2313L81.9999 61ZM89.9999 61V63C91.1044 63 91.9999 62.1046 91.9999 61H89.9999ZM98.9999 45H89.9999V49H98.9999V45ZM101 61V47H96.9999V61H101ZM98.9999 63H107V59H98.9999V63ZM105.424 59.7687L92.9238 75.7687L96.0759 78.2313L108.576 62.2313L105.424 59.7687ZM96.0759 75.7687L83.5759 59.7687L80.4238 62.2313L92.9238 78.2313L96.0759 75.7687ZM81.9999 63H89.9999V59H81.9999V63ZM87.9999 47V61H91.9999V47H87.9999Z" fill="#2D2D64" mask="url(#path-78-outside-1_518_6450)"/>
</svg>
