<svg width="181" height="47" viewBox="0 0 181 47" fill="none" xmlns="http://www.w3.org/2000/svg">
<path d="M21.0289 45.8577C20.5041 45.8577 20.0119 45.6249 19.6782 45.2196L18.4652 43.7441C17.9698 43.1417 17.2389 42.7964 16.4592 42.7964H14.861C12.9858 42.7964 11.4604 41.2704 11.4604 39.3949V7.73487C11.4604 5.85933 12.9858 4.33337 14.861 4.33337H49.947C51.8222 4.33337 53.3476 5.85933 53.3476 7.73487V39.3949C53.3476 41.2704 51.8222 42.7964 49.947 42.7964H27.9618C27.1821 42.7964 26.4511 43.1417 25.9558 43.7441L24.7299 45.2354C24.4045 45.6309 23.9246 45.8577 23.4124 45.8577H21.0289Z" fill="black"/>
<rect x="19.9453" y="10.0802" width="32.1883" height="15.6208" rx="3.63238" fill="#EFCFB9"/>
<path d="M49.9469 3.70435H14.8609C12.6355 3.70435 10.8311 5.50871 10.8311 7.73488V39.3949C10.8311 41.621 12.6355 43.4254 14.8609 43.4254H16.4591C17.0477 43.4254 17.6055 43.6891 17.9792 44.1438L19.1921 45.6193C19.644 46.1688 20.3178 46.4871 21.0288 46.4871H23.4127C24.1106 46.4871 24.7722 46.1744 25.2156 45.6351L26.442 44.1438C26.8157 43.6891 27.3734 43.4254 27.962 43.4254H49.9469C52.1727 43.4254 53.9771 41.621 53.9771 39.3949V7.73488C53.9771 5.50871 52.1727 3.70435 49.9469 3.70435ZM49.9469 4.96277C51.4751 4.96277 52.7185 6.20647 52.7185 7.73488V39.3949C52.7185 40.9233 51.4751 42.167 49.9469 42.167H27.962C26.9934 42.167 26.0851 42.5961 25.4698 43.3444L24.2439 44.8356C24.0384 45.0853 23.7355 45.2284 23.4127 45.2284H21.0288C20.6929 45.2284 20.3778 45.0797 20.1643 44.8199L18.951 43.3444C18.3361 42.5961 17.4277 42.167 16.4591 42.167H14.8609C13.3327 42.167 12.0896 40.9233 12.0896 39.3949V7.73488C12.0896 6.20647 13.3327 4.96277 14.8609 4.96277H49.9469Z" fill="white"/>
<path d="M45.3521 21.3924C43.1186 21.3924 41.302 19.5751 41.302 17.3415C41.302 15.108 43.1186 13.2906 45.3521 13.2906C47.5852 13.2906 49.4023 15.108 49.4023 17.3415C49.4023 19.5751 47.5852 21.3924 45.3521 21.3924Z" fill="black"/>
<path d="M45.352 12.577C42.721 12.577 40.5881 14.7099 40.5881 17.3414C40.5881 19.9729 42.721 22.1062 45.352 22.1062C47.9827 22.1062 50.1156 19.9729 50.1156 17.3414C50.1156 14.7099 47.9827 12.577 45.352 12.577ZM45.352 14.0045C47.1918 14.0045 48.6884 15.5013 48.6884 17.3414C48.6884 19.1816 47.1918 20.6788 45.352 20.6788C43.5122 20.6788 42.0153 19.1816 42.0153 17.3414C42.0153 15.5013 43.5122 14.0045 45.352 14.0045Z" fill="white"/>
<path d="M30.182 21.3924C27.9488 21.3924 26.1318 19.5751 26.1318 17.3415C26.1318 15.108 27.9488 13.2906 30.182 13.2906C32.4154 13.2906 34.2321 15.108 34.2321 17.3415C34.2321 19.5751 32.4154 21.3924 30.182 21.3924Z" fill="black"/>
<path d="M30.1821 12.577C27.5511 12.577 25.4182 14.7099 25.4182 17.3414C25.4182 19.9729 27.5511 22.1062 30.1821 22.1062C32.8128 22.1062 34.9457 19.9729 34.9457 17.3414C34.9457 14.7099 32.8128 12.577 30.1821 12.577ZM30.1821 14.0045C32.0219 14.0045 33.5185 15.5013 33.5185 17.3414C33.5185 19.1816 32.0219 20.6788 30.1821 20.6788C28.3423 20.6788 26.8454 19.1816 26.8454 17.3414C26.8454 15.5013 28.3423 14.0045 30.1821 14.0045Z" fill="white"/>
<rect x="9.80835" y="6.83044" width="45.192" height="5.74674" fill="#FF0000"/>
<path d="M12.2402 10.1207L6.98149 1.55685L3.15058 4.95809L8.99698 9.36835L3.22637 8.85071L4.0662 16.2957L12.2402 10.1207Z" fill="#FF0000"/>
<path d="M71.2153 30.3661C76.872 30.3661 80.3881 26.85 80.3881 21.9591C80.3881 17.0686 76.872 13.5513 71.2153 13.5513C65.5158 13.5513 62 17.0686 62 21.9591C62 26.85 65.5158 30.3661 71.2153 30.3661ZM71.2153 25.1521C69.3149 25.1097 67.9814 23.8183 67.9814 21.9591C67.9814 20.1003 69.3149 18.8065 71.2153 18.7653C73.0729 18.8077 74.4068 20.1003 74.4068 21.9591C74.4068 23.8183 73.0729 25.1121 71.2153 25.1521Z" fill="white"/>
<path d="M94.7583 22.6137V18.1684H91.0404V12.2258H85.059V18.1684H82.3516V22.6137H85.059V28.1123C85.059 31.7902 88.212 34.6598 91.9299 34.6598C93.1017 34.6598 94.2743 34.4176 94.6774 34.1345V29.4858H92.6973C91.6866 29.4858 91.0404 28.6772 91.0404 27.3837V22.6137H94.7583Z" fill="white"/>
<path d="M109.015 22.6137V18.1684H105.337V12.2258H99.3556V18.1684H96.6482V22.6137H99.3556V28.1123C99.3556 31.7902 102.508 34.6598 106.226 34.6598C107.398 34.6598 108.611 34.4176 109.015 34.1345V29.4858H106.994C105.983 29.4858 105.337 28.6772 105.337 27.3837V22.6137H109.015Z" fill="white"/>
<path d="M120.231 30.3661C125.889 30.3661 129.405 26.85 129.405 21.9591C129.405 17.0686 125.889 13.5513 120.231 13.5513C114.533 13.5513 111.018 17.0686 111.018 21.9591C111.018 26.85 114.533 30.3661 120.231 30.3661ZM120.231 25.1521C118.332 25.1097 116.998 23.8183 116.998 21.9591C116.998 20.1003 118.332 18.8065 120.231 18.7653C122.09 18.8077 123.425 20.1003 123.425 21.9591C123.425 23.8183 122.09 25.1121 120.231 25.1521Z" fill="white"/>
<path d="M145.375 3.04247V15.0473C144.284 14.1178 142.87 13.5513 141.173 13.5513C136.767 13.5513 133.333 17.2295 133.333 21.9591C133.333 26.6879 136.767 30.3661 141.173 30.3661C142.87 30.3661 144.284 29.8008 145.375 28.8713V30.3661L151.356 30.3237V3.00005L145.375 3.04247ZM142.547 25.1521C140.729 25.1521 139.314 23.7783 139.314 21.9591C139.314 20.1403 140.729 18.7653 142.547 18.7653C144.284 18.7653 145.739 20.1403 145.739 21.9591C145.739 23.7783 144.284 25.1521 142.547 25.1521Z" fill="#ED1C24"/>
<path d="M153.32 12.2257H159.302V30.366H153.32V12.2257Z" fill="#ED1C24"/>
<path d="M174.763 12.2258L171.126 21.1026L167.448 12.2258H161.265L168.055 27.8123L164.255 37.11H170.56L173.106 30.561L180.866 12.2258H174.763Z" fill="#ED1C24"/>
<path d="M159.301 5.99049C159.301 7.64294 157.963 8.98132 156.311 8.98132C154.659 8.98132 153.32 7.64294 153.32 5.99049C153.32 5.19751 153.635 4.43701 154.196 3.87537C154.757 3.31492 155.517 2.99996 156.311 2.99996C157.963 2.99996 159.301 4.33954 159.301 5.99049Z" fill="#ED1C24"/>
</svg>
