<svg width="124" height="108" viewBox="0 0 124 108" fill="none" xmlns="http://www.w3.org/2000/svg">
<rect x="55.9075" y="79.8634" width="55.5414" height="28.1323" rx="6" fill="#FF0000"/>
<path d="M69.5702 90.0991C67.6357 89.4638 66.5824 87.3795 67.2182 85.445C67.8536 83.5102 69.9372 82.4572 71.8722 83.0928C73.8066 83.728 74.8606 85.8121 74.2246 87.747C73.589 89.6817 71.505 90.7347 69.5702 90.0991Z" fill="white"/>
<path d="M72.3417 86.5506L72.3345 86.5438L71.1753 85.3842C70.9247 85.1338 70.5186 85.1338 70.2679 85.3842L69.1157 86.5362L69.093 86.5587C69.0173 86.6402 68.9704 86.7495 68.9704 86.8698C68.9704 87.1216 69.1751 87.3258 69.427 87.3262L69.4274 87.3262L72.0153 87.3262L72.0159 87.3262C72.2678 87.3258 72.4719 87.1214 72.4719 86.8698C72.4719 86.7452 72.4221 86.6328 72.3417 86.5506Z" fill="#2D2D64"/>
<path d="M74.6168 92.8313C75.2521 90.8968 77.3364 89.8435 79.2709 90.4793C81.2058 91.1147 82.2587 93.1983 81.6232 95.1333C80.9879 97.0677 78.9038 98.1217 76.969 97.4857C75.0342 96.8501 73.9813 94.7661 74.6168 92.8313Z" fill="white"/>
<path d="M78.165 95.6028L78.1718 95.5956L79.3313 94.4365C79.5818 94.1858 79.5818 93.7797 79.3313 93.529L78.1794 92.3768L78.1569 92.3541C78.0754 92.2784 77.9661 92.2316 77.8458 92.2316C77.5939 92.2316 77.3898 92.4362 77.3894 92.6881L77.3894 92.6885L77.3894 95.2764L77.3894 95.277C77.3898 95.5289 77.5942 95.733 77.8458 95.733C77.9704 95.733 78.0827 95.6832 78.165 95.6028Z" fill="#2D2D64"/>
<path d="M66.838 95.1334C66.2027 97.0679 64.1184 98.1213 62.1839 97.4855C60.2491 96.8501 59.1961 94.7664 59.8317 92.8314C60.4669 90.897 62.551 89.843 64.4859 90.479C66.4206 91.1146 67.4735 93.1986 66.838 95.1334Z" fill="white"/>
<path d="M63.2891 92.3621L63.2823 92.3693L62.1228 93.5284C61.8724 93.7791 61.8724 94.1851 62.1228 94.4358L63.2747 95.588L63.2972 95.6108C63.3787 95.6865 63.488 95.7333 63.6083 95.7333C63.8602 95.7333 64.0643 95.5286 64.0647 95.2768L64.0647 95.2764L64.0647 92.6885L64.0647 92.6878C64.0643 92.4359 63.8599 92.2318 63.6083 92.2318C63.4837 92.2318 63.3714 92.2816 63.2891 92.3621Z" fill="#2D2D64"/>
<path d="M71.8725 97.8375C73.8069 98.4728 74.8603 100.557 74.2245 102.492C73.5891 104.426 71.5054 105.479 69.5704 104.844C67.6361 104.209 66.5821 102.125 67.218 100.19C67.8537 98.2549 69.9376 97.202 71.8725 97.8375Z" fill="white"/>
<path d="M69.1012 101.386L69.1084 101.393L70.2675 102.553C70.5182 102.803 70.9242 102.803 71.1749 102.553L72.3271 101.401L72.3499 101.378C72.4256 101.297 72.4724 101.187 72.4724 101.067C72.4724 100.815 72.2678 100.611 72.0159 100.611L72.0155 100.611L69.4276 100.611L69.4269 100.611C69.1751 100.611 68.9709 100.815 68.9709 101.067C68.9709 101.192 69.0208 101.304 69.1012 101.386Z" fill="#2D2D64"/>
<circle cx="93.65" cy="98.5693" r="3.95542" fill="white"/>
<circle cx="101.561" cy="90.2168" r="3.95542" fill="white"/>
<path d="M119.061 72.068C119.982 67.9686 116.758 63.7542 111.862 62.655C106.965 61.5558 102.25 63.9879 101.33 68.0873" stroke="#FF0000" stroke-width="2.58202" stroke-linecap="round"/>
<path d="M115.32 74.2605C115.908 71.6414 113.754 68.9276 110.509 68.1991C107.263 67.4705 104.156 69.0031 103.568 71.6221" stroke="#FF0000" stroke-width="2.58202" stroke-linecap="round"/>
<path d="M112.059 77.2102C112.392 75.7298 111.184 74.1982 109.362 73.7892C107.54 73.3802 105.794 74.2486 105.461 75.729" stroke="#FF0000" stroke-width="2.58202" stroke-linecap="round"/>
<path d="M39.1443 83.0689C38.1762 83.0689 37.2683 82.6394 36.6527 81.8917L34.4152 79.17C33.5014 78.0588 32.153 77.4217 30.7148 77.4217H27.7666C24.3076 77.4217 21.4939 74.6069 21.4939 71.1472V12.7458C21.4939 9.28604 24.3076 6.47119 27.7666 6.47119H92.488C95.9471 6.47119 98.7608 9.28604 98.7608 12.7458V71.1472C98.7608 74.6069 95.9471 77.4217 92.488 77.4217H51.933C50.4948 77.4217 49.1464 78.0588 48.2327 79.17L45.9713 81.9209C45.3712 82.6504 44.4858 83.0689 43.541 83.0689H39.1443Z" fill="black"/>
<rect x="37.145" y="17.072" width="59.3761" height="28.8149" rx="6.70044" fill="#EFCFB9"/>
<path d="M92.4874 5.31067H27.7661C23.661 5.31067 20.3325 8.63908 20.3325 12.7456V71.147C20.3325 75.2535 23.661 78.5819 27.7661 78.5819H30.7143C31.8001 78.5819 32.8289 79.0683 33.5183 79.9072L35.7558 82.6289C36.5893 83.6424 37.8323 84.2297 39.1437 84.2297H43.5411C44.8287 84.2297 46.0489 83.6528 46.867 82.658L49.1291 79.9072C49.8185 79.0683 50.8473 78.5819 51.9331 78.5819H92.4874C96.5932 78.5819 99.9216 75.2535 99.9216 71.147V12.7456C99.9216 8.63908 96.5932 5.31067 92.4874 5.31067ZM92.4874 7.63201C95.3063 7.63201 97.6001 9.9262 97.6001 12.7456V71.147C97.6001 73.9664 95.3063 76.2606 92.4874 76.2606H51.9331C50.1463 76.2606 48.4708 77.0522 47.3358 78.4325L45.0744 81.1833C44.6954 81.6438 44.1367 81.9077 43.5411 81.9077H39.1437C38.5242 81.9077 37.9429 81.6335 37.549 81.1542L35.3109 78.4325C34.1766 77.0522 32.5011 76.2606 30.7143 76.2606H27.7661C24.9472 76.2606 22.6541 73.9664 22.6541 71.147V12.7456C22.6541 9.9262 24.9472 7.63201 27.7661 7.63201H92.4874Z" fill="white"/>
<path d="M84.0116 37.9392C79.8916 37.9392 76.5405 34.5869 76.5405 30.4668C76.5405 26.3467 79.8916 22.9944 84.0116 22.9944C88.1309 22.9944 91.4826 26.3467 91.4826 30.4668C91.4826 34.5869 88.1309 37.9392 84.0116 37.9392Z" fill="black"/>
<path d="M84.0115 21.6776C79.1582 21.6776 75.2239 25.6121 75.2239 30.4663C75.2239 35.3205 79.1582 39.2556 84.0115 39.2556C88.8642 39.2556 92.7986 35.3205 92.7986 30.4663C92.7986 25.6121 88.8642 21.6776 84.0115 21.6776ZM84.0115 24.3107C87.4053 24.3107 90.166 27.0719 90.166 30.4663C90.166 33.8606 87.4053 36.6225 84.0115 36.6225C80.6178 36.6225 77.8565 33.8606 77.8565 30.4663C77.8565 27.0719 80.6178 24.3107 84.0115 24.3107Z" fill="white"/>
<path d="M56.0279 37.9392C51.9086 37.9392 48.5569 34.5869 48.5569 30.4668C48.5569 26.3467 51.9086 22.9944 56.0279 22.9944C60.1479 22.9944 63.499 26.3467 63.499 30.4668C63.499 34.5869 60.1479 37.9392 56.0279 37.9392Z" fill="black"/>
<path d="M56.0285 21.6776C51.1751 21.6776 47.2407 25.6121 47.2407 30.4663C47.2407 35.3205 51.1751 39.2556 56.0285 39.2556C60.8811 39.2556 64.8155 35.3205 64.8155 30.4663C64.8155 25.6121 60.8811 21.6776 56.0285 21.6776ZM56.0285 24.3107C59.4222 24.3107 62.1829 27.0719 62.1829 30.4663C62.1829 33.8606 59.4222 36.6225 56.0285 36.6225C52.6347 36.6225 49.8734 33.8606 49.8734 30.4663C49.8734 27.0719 52.6347 24.3107 56.0285 24.3107Z" fill="white"/>
<rect x="18.4456" y="11.0771" width="83.3631" height="10.6007" fill="#FF0000"/>
<path d="M22.9319 17.1465L13.2314 1.34934L6.16473 7.62343L16.9493 15.7588L6.30454 14.8039L7.85372 28.5372L22.9319 17.1465Z" fill="#FF0000"/>
</svg>
