<svg width="78" height="63" viewBox="0 0 78 63" fill="none" xmlns="http://www.w3.org/2000/svg">
<path d="M24.0879 51.5771C23.4868 51.5771 22.923 51.3104 22.5407 50.8461L21.1513 49.156C20.5839 48.466 19.7466 48.0704 18.8535 48.0704H17.0228C14.8749 48.0704 13.1277 46.3225 13.1277 44.1741V7.90908C13.1277 5.76073 14.8749 4.01282 17.0228 4.01282H57.2123C59.3603 4.01282 61.1075 5.76073 61.1075 7.90908V44.1741C61.1075 46.3225 59.3603 48.0704 57.2123 48.0704H32.0292C31.1361 48.0704 30.2988 48.466 29.7314 49.156L28.3272 50.8642C27.9546 51.3172 27.4048 51.5771 26.8181 51.5771H24.0879Z" fill="black"/>
<rect x="22.8464" y="10.5956" width="36.8703" height="17.893" rx="4.16072" fill="#EFCFB9"/>
<path d="M57.2119 3.29224H17.0225C14.4734 3.29224 12.4065 5.35905 12.4065 7.90903V44.1741C12.4065 46.7241 14.4734 48.7909 17.0225 48.7909H18.8532C19.5274 48.7909 20.1663 49.0929 20.5943 49.6138L21.9837 51.3039C22.5014 51.9333 23.2732 52.298 24.0875 52.298H26.8182C27.6177 52.298 28.3754 51.9397 28.8834 51.322L30.2881 49.6138C30.7161 49.0929 31.355 48.7909 32.0292 48.7909H57.2119C59.7615 48.7909 61.8283 46.7241 61.8283 44.1741V7.90903C61.8283 5.35905 59.7615 3.29224 57.2119 3.29224ZM57.2119 4.7337C58.9624 4.7337 60.3867 6.15831 60.3867 7.90903V44.1741C60.3867 45.9248 58.9624 47.3494 57.2119 47.3494H32.0292C30.9197 47.3494 29.8793 47.841 29.1745 48.6981L27.7702 50.4063C27.5349 50.6922 27.188 50.8561 26.8182 50.8561H24.0875C23.7028 50.8561 23.3419 50.6858 23.0973 50.3882L21.7075 48.6981C21.0031 47.841 19.9627 47.3494 18.8532 47.3494H17.0225C15.2721 47.3494 13.8481 45.9248 13.8481 44.1741V7.90903C13.8481 6.15831 15.2721 4.7337 17.0225 4.7337H57.2119Z" fill="white"/>
<path d="M51.9488 23.5533C49.3904 23.5533 47.3096 21.4716 47.3096 18.9132C47.3096 16.3547 49.3904 14.2731 51.9488 14.2731C54.5067 14.2731 56.5881 16.3547 56.5881 18.9132C56.5881 21.4716 54.5067 23.5533 51.9488 23.5533Z" fill="black"/>
<path d="M51.9488 13.4554C48.935 13.4554 46.4919 15.8986 46.4919 18.9129C46.4919 21.9271 48.935 24.3707 51.9488 24.3707C54.9621 24.3707 57.4052 21.9271 57.4052 18.9129C57.4052 15.8986 54.9621 13.4554 51.9488 13.4554ZM51.9488 15.0905C54.0561 15.0905 55.7704 16.8051 55.7704 18.9129C55.7704 21.0206 54.0561 22.7356 51.9488 22.7356C49.8414 22.7356 48.1267 21.0206 48.1267 18.9129C48.1267 16.8051 49.8414 15.0905 51.9488 15.0905Z" fill="white"/>
<path d="M34.5721 23.5533C32.0141 23.5533 29.9329 21.4716 29.9329 18.9132C29.9329 16.3547 32.0141 14.2731 34.5721 14.2731C37.1304 14.2731 39.2113 16.3547 39.2113 18.9132C39.2113 21.4716 37.1304 23.5533 34.5721 23.5533Z" fill="black"/>
<path d="M34.5723 13.4554C31.5586 13.4554 29.1155 15.8986 29.1155 18.9129C29.1155 21.9271 31.5586 24.3707 34.5723 24.3707C37.5856 24.3707 40.0288 21.9271 40.0288 18.9129C40.0288 15.8986 37.5856 13.4554 34.5723 13.4554ZM34.5723 15.0905C36.6797 15.0905 38.394 16.8051 38.394 18.9129C38.394 21.0206 36.6797 22.7356 34.5723 22.7356C32.4649 22.7356 30.7503 21.0206 30.7503 18.9129C30.7503 16.8051 32.4649 15.0905 34.5723 15.0905Z" fill="white"/>
<rect x="11.2349" y="6.87292" width="51.7653" height="6.58263" fill="#FF0000"/>
<path d="M14.0206 10.6419L7.99698 0.832402L3.60885 4.72837L10.3056 9.78012L3.69566 9.1872L4.65765 17.715L14.0206 10.6419Z" fill="#FF0000"/>
<path d="M72.0816 34.8967L72.1068 34.9235L72.4714 34.5589L75.1393 31.8908C75.5 34.3804 74.6726 36.9176 72.8696 38.7207C70.4137 41.1765 66.658 41.776 63.5596 40.2067L63.2363 40.043L62.9801 40.2992L53.086 50.1931L52.8843 50.3948L52.9552 50.6709C53.3691 52.2844 52.9005 53.9965 51.723 55.1744C50.5913 56.306 48.9789 56.7736 47.4452 56.4596L48.3056 55.5989L48.3057 55.5988L49.3992 54.5054L49.733 54.1717L49.7114 54.1475L50.0216 53.8278L50.2205 53.6228L50.145 53.3474L49.5064 51.0185L49.4283 50.7339L49.1413 50.6647L46.7923 50.0985L46.5146 50.0315L46.3159 50.2368L46.1404 50.4181L46.1347 50.4103L45.7232 50.8219L43.7694 52.776C43.4557 51.2424 43.9232 49.6301 45.0545 48.4987L72.0816 34.8967ZM72.0816 34.8967L70.428 36.6022L70.2271 36.8094L69.9471 36.7391L65.1563 35.5348L64.8763 35.4645L64.7972 35.1868L63.445 30.4358L63.3659 30.1581L63.5669 29.9508L65.3357 28.127L65.3091 28.1003L65.6616 27.7478L67.0109 26.3985L67.3644 26.7521L67.0109 26.3985L68.3291 25.0805C65.8425 24.723 63.3093 25.5506 61.5082 27.3516C59.0524 29.8074 58.4526 33.5638 60.0218 36.6619L60.1855 36.9851L59.9293 37.2414L50.0351 47.1353L49.8335 47.3369L49.5574 47.2661C47.9442 46.8524 46.2323 47.3209 45.0545 48.4987L72.0816 34.8967Z" fill="#A9B9C9" stroke="#FF0000"/>
</svg>
