<svg width="54" height="64" viewBox="0 0 54 64" fill="none" xmlns="http://www.w3.org/2000/svg">
<g opacity="0.998">
<g opacity="0.998">
<g opacity="0.998">
<path d="M52.4057 29.5708V15.4762L51.4765 14.548H51.0923H46.0597H45.6745L44.7463 15.4762V29.5879" fill="white"/>
<path d="M52.4057 29.5708V15.4762L51.4765 14.548H51.0923H46.0597H45.6745L44.7463 15.4762V29.5879" stroke="black" stroke-width="0.711405" stroke-linecap="round" stroke-linejoin="round"/>
</g>
<g opacity="0.998">
<path fill-rule="evenodd" clip-rule="evenodd" d="M45.6742 15.4758L46.0599 14.5477L45.6742 15.4758ZM45.6742 15.4758H51.4767H45.6742ZM51.4767 15.4758L51.092 14.5477L51.4767 15.4758ZM45.6743 28.659V15.4759V28.659ZM44.7463 15.4759H45.6745H44.7463ZM51.4767 28.6433V15.4758V28.6433ZM52.4057 15.4758H51.4765H52.4057Z" fill="white"/>
<path d="M52.4057 15.4758H51.4765M45.6742 15.4758L46.0599 14.5477L45.6742 15.4758ZM45.6742 15.4758H51.4767H45.6742ZM51.4767 15.4758L51.092 14.5477L51.4767 15.4758ZM45.6743 28.659V15.4759V28.659ZM44.7463 15.4759H45.6745H44.7463ZM51.4767 28.6433V15.4758V28.6433Z" stroke="black" stroke-width="0.711405" stroke-linecap="round" stroke-linejoin="round"/>
</g>
<path opacity="0.998" d="M53.4207 28.3837H44.5988V36.2618H53.4207V28.3837Z" fill="white" stroke="black" stroke-width="0.711405" stroke-linecap="round" stroke-linejoin="bevel"/>
<path opacity="0.998" d="M53.4404 30.7209H44.5786V33.5918H53.4404V30.7209Z" fill="#E6E6E6" stroke="black" stroke-width="0.711405" stroke-linecap="round" stroke-linejoin="bevel"/>
</g>
<g opacity="0.998">
<g opacity="0.998">
<path d="M2.03439 29.5708V15.4762L2.96356 14.548H3.34777H8.38034H8.76558L9.69373 15.4762V29.5879" fill="white"/>
<path d="M2.03439 29.5708V15.4762L2.96356 14.548H3.34777H8.38034H8.76558L9.69373 15.4762V29.5879" stroke="black" stroke-width="0.711405" stroke-linecap="round" stroke-linejoin="round"/>
</g>
<g opacity="0.998">
<path fill-rule="evenodd" clip-rule="evenodd" d="M8.76586 15.4758L8.38013 14.5477L8.76586 15.4758ZM8.76586 15.4758H2.96335H8.76586ZM2.96335 15.4758L3.34805 14.5477L2.96335 15.4758ZM8.76572 28.659V15.4759V28.659ZM9.69373 15.4759H8.76558H9.69373ZM2.96335 28.6433V15.4758V28.6433ZM2.03439 15.4758H2.96356H2.03439Z" fill="white"/>
<path d="M2.03439 15.4758H2.96356M8.76586 15.4758L8.38013 14.5477L8.76586 15.4758ZM8.76586 15.4758H2.96334H8.76586ZM2.96334 15.4758L3.34805 14.5477L2.96334 15.4758ZM8.76572 28.659V15.4759V28.659ZM9.69373 15.4759H8.76558H9.69373ZM2.96334 28.6433V15.4758V28.6433Z" stroke="black" stroke-width="0.711405" stroke-linecap="round" stroke-linejoin="round"/>
</g>
<path opacity="0.998" d="M1.01953 28.3837H9.84143V36.2618H1.01953V28.3837Z" fill="white" stroke="black" stroke-width="0.711405" stroke-linecap="round" stroke-linejoin="bevel"/>
<path opacity="0.998" d="M0.999805 30.7209H9.86157V33.5918H0.999805V30.7209Z" fill="#E6E6E6" stroke="black" stroke-width="0.711405" stroke-linecap="round" stroke-linejoin="bevel"/>
</g>
<path opacity="0.998" d="M12.5291 14.5936H41.9101H44.4855V24.4744H9.95251V14.5936H12.5291Z" fill="white" stroke="black" stroke-width="0.711405"/>
<g opacity="0.998">
<g opacity="0.998">
<g opacity="0.998">
<path d="M11.8918 57.6723V43.5776L12.821 42.6494H13.2052H18.2378H18.623L19.5512 43.5776V57.6893" fill="white"/>
<path d="M11.8918 57.6723V43.5776L12.821 42.6494H13.2052H18.2378H18.623L19.5512 43.5776V57.6893" stroke="black" stroke-width="0.711403" stroke-linecap="round" stroke-linejoin="round"/>
</g>
</g>
<g opacity="0.998">
<g opacity="0.998">
<path fill-rule="evenodd" clip-rule="evenodd" d="M18.6232 43.5771L18.2374 42.649L18.6232 43.5771ZM18.6232 43.5771H12.8207H18.6232ZM12.8208 43.5771L13.2055 42.649L12.8208 43.5771ZM18.6232 56.7603V43.5772V56.7603ZM19.5512 43.5771H18.623H19.5512ZM12.8208 56.7446V43.577V56.7446ZM11.8918 43.5771H12.821H11.8918Z" fill="white"/>
<path d="M11.8918 43.5771H12.821M18.6232 43.5771L18.2374 42.649L18.6232 43.5771ZM18.6232 43.5771H12.8207H18.6232ZM12.8208 43.5771L13.2055 42.649L12.8208 43.5771ZM18.6232 56.7603V43.5772V56.7603ZM19.5512 43.5771H18.623H19.5512ZM12.8208 56.7446V43.577V56.7446Z" stroke="black" stroke-width="0.711403" stroke-linecap="round" stroke-linejoin="round"/>
</g>
</g>
</g>
<g opacity="0.998">
<g opacity="0.998">
<g opacity="0.998">
<path d="M10.5602 60.3175L10.6159 53.5885L12.9559 51.2864L18.0586 51.3286L20.3612 53.6692L20.2978 61.3267" fill="white"/>
<path d="M10.5602 60.3175L10.6159 53.5885L12.9559 51.2864L18.0586 51.3286L20.3612 53.6692L20.2978 61.3267" stroke="black" stroke-width="0.711403" stroke-linecap="round" stroke-linejoin="round"/>
</g>
</g>
<g opacity="0.998">
<path opacity="0.998" d="M20.2865 62.7201L17.9647 62.7009L4.50937 62.5896L1.72449 62.5665L1.73602 61.1733L2.67082 60.2524L4.91229 60.2709L17.6002 60.3759L19.3776 60.3906L20.2981 61.3269L20.2865 62.7201Z" fill="white" stroke="black" stroke-width="0.711403"/>
</g>
<g opacity="0.998">
<g opacity="0.998">
<path fill-rule="evenodd" clip-rule="evenodd" d="M20.2981 61.3267L17.9763 61.3075L20.2981 61.3267ZM17.9763 61.3075L17.9648 62.7007L17.9763 61.3075ZM4.5209 61.1962L17.9762 61.3075L4.5209 61.1962ZM4.50937 62.5896L4.5209 61.1964L4.50937 62.5896ZM17.6005 60.3759L17.9765 61.3077L17.6005 60.3759ZM4.91217 60.2709L4.52078 61.1964L4.91217 60.2709ZM4.5209 61.1962L1.73602 61.1731L4.5209 61.1962Z" fill="white"/>
<path d="M4.5209 61.1962L1.73602 61.1731M20.2981 61.3267L17.9763 61.3075L20.2981 61.3267ZM17.9763 61.3075L17.9648 62.7007L17.9763 61.3075ZM4.5209 61.1962L17.9762 61.3075L4.5209 61.1962ZM4.50937 62.5896L4.5209 61.1964L4.50937 62.5896ZM17.6005 60.3759L17.9765 61.3077L17.6005 60.3759ZM4.91217 60.2709L4.52078 61.1964L4.91217 60.2709Z" stroke="black" stroke-width="0.711403" stroke-linecap="round" stroke-linejoin="round"/>
</g>
</g>
<g opacity="0.998">
<g opacity="0.998">
<path fill-rule="evenodd" clip-rule="evenodd" d="M10.6161 53.5883L11.5411 53.9807L10.6161 53.5883ZM11.5409 53.9806L13.334 52.2179L11.5409 53.9806ZM13.334 52.2178L12.956 51.2865L13.334 52.2178ZM13.334 52.2178L17.6678 52.2537L13.334 52.2178ZM17.6677 52.2537L18.0591 51.3287L17.6677 52.2537ZM17.6677 52.2537L19.4304 54.0458L17.6677 52.2537ZM19.4304 54.0459L20.3618 53.6688L19.4304 54.0459ZM11.4884 60.3252L11.5409 53.9805L11.4884 60.3252ZM19.4304 54.0459L19.3779 60.3906L19.4304 54.0459Z" fill="white"/>
<path d="M19.4304 54.0459L19.3779 60.3906M10.6161 53.5883L11.5411 53.9807L10.6161 53.5883ZM11.5409 53.9806L13.334 52.2179L11.5409 53.9806ZM13.334 52.2178L12.956 51.2865L13.334 52.2178ZM13.334 52.2178L17.6678 52.2537L13.334 52.2178ZM17.6677 52.2537L18.0591 51.3287L17.6677 52.2537ZM17.6677 52.2537L19.4304 54.0458L17.6677 52.2537ZM19.4304 54.0459L20.3618 53.6688L19.4304 54.0459ZM11.4884 60.3252L11.5409 53.9805L11.4884 60.3252Z" stroke="black" stroke-width="0.711403" stroke-linecap="round" stroke-linejoin="round"/>
</g>
</g>
</g>
<g opacity="0.998">
<g opacity="0.998">
<g opacity="0.998">
<path d="M42.6132 57.672V43.5773L41.684 42.6492H41.2998H36.2672H35.882L34.9538 43.5773V57.6891" fill="white"/>
<path d="M42.6132 57.672V43.5773L41.684 42.6492H41.2998H36.2672H35.882L34.9538 43.5773V57.6891" stroke="black" stroke-width="0.711403" stroke-linecap="round" stroke-linejoin="round"/>
</g>
</g>
<g opacity="0.998">
<g opacity="0.998">
<path fill-rule="evenodd" clip-rule="evenodd" d="M35.8818 43.5771L36.2676 42.649L35.8818 43.5771ZM35.8818 43.5771H41.6843H35.8818ZM41.6842 43.5771L41.2995 42.649L41.6842 43.5771ZM35.8818 56.7603V43.5772V56.7603ZM34.9538 43.5771H35.882H34.9538ZM41.6842 56.7446V43.577V56.7446ZM42.6132 43.5771H41.684H42.6132Z" fill="white"/>
<path d="M42.6132 43.5771H41.684M35.8818 43.5771L36.2676 42.649L35.8818 43.5771ZM35.8818 43.5771H41.6843H35.8818ZM41.6842 43.5771L41.2995 42.649L41.6842 43.5771ZM35.8818 56.7603V43.5772V56.7603ZM34.9538 43.5771H35.882H34.9538ZM41.6842 56.7446V43.577V56.7446Z" stroke="black" stroke-width="0.711403" stroke-linecap="round" stroke-linejoin="round"/>
</g>
</g>
</g>
<path opacity="0.998" d="M13.9923 24.5039H40.4469H42.7658V41.2118L41.8396 42.1385H40.0622H14.379H14.3779H12.6005L11.6724 41.2118V24.5039H13.9923Z" fill="white" stroke="black" stroke-width="0.711853"/>
<g opacity="0.998">
<g opacity="0.998">
<path fill-rule="evenodd" clip-rule="evenodd" d="M40.0623 42.1386L40.447 41.2115L40.0623 42.1386ZM40.4468 41.2116H13.9923H40.4468ZM13.9923 41.2116L14.378 42.1388L13.9923 41.2116ZM11.6724 41.2116H13.9923H11.6724ZM13.9923 41.2116V24.5038V41.2116ZM40.4468 24.5039V41.2118V24.5039ZM42.7658 41.2116H40.4469H42.7658Z" fill="white"/>
<path d="M42.7658 41.2116H40.4469M40.0623 42.1386L40.447 41.2115L40.0623 42.1386ZM40.4468 41.2116H13.9923H40.4468ZM13.9923 41.2116L14.378 42.1388L13.9923 41.2116ZM11.6724 41.2116H13.9923H11.6724ZM13.9923 41.2116V24.5038V41.2116ZM40.4468 24.5039V41.2118V24.5039Z" stroke="black" stroke-width="0.71185" stroke-linecap="round" stroke-linejoin="round"/>
</g>
<path opacity="0.998" d="M14.0015 14.575V24.5288" stroke="black" stroke-width="0.842636"/>
<path opacity="0.998" d="M40.4075 14.575V24.5288" stroke="black" stroke-width="0.842636"/>
</g>
<g opacity="0.998">
<path opacity="0.998" d="M12.6002 14.4593V1.92815L13.5294 1H14.8408H39.5982H40.9096L41.8398 1.92815V14.4593H12.6002Z" fill="#4ED01A" stroke="black" stroke-width="0.711853" stroke-linecap="round" stroke-linejoin="round"/>
<g opacity="0.998">
<path opacity="0.998" d="M14.4562 14.4594V1.92819M39.5981 1.00008L39.9829 1.92824L39.5981 1.00008ZM39.9827 1.92808V14.4592V1.92808ZM14.4562 1.92808H39.9826H14.4562ZM39.9827 1.92808H41.8395H39.9827ZM14.4562 1.92808H12.6003H14.4562ZM14.8407 1.00008L14.456 1.92824L14.8407 1.00008Z" stroke="black" stroke-width="0.71185" stroke-linecap="round" stroke-linejoin="round"/>
</g>
<g opacity="0.998">
<g opacity="0.998">
<path opacity="0.998" d="M32.9405 11.9557C35.0288 11.9557 36.7219 10.2616 36.7219 8.17273C36.7219 6.08488 35.0288 4.39179 32.9405 4.39179C30.8501 4.39179 29.156 6.08488 29.156 8.17273C29.156 10.2616 30.8501 11.9557 32.9405 11.9557Z" fill="white"/>
</g>
<g opacity="0.998">
<path opacity="0.998" d="M32.9631 10.8718C31.4699 10.8718 30.2625 9.66241 30.2625 8.17072C30.2625 6.67904 31.4699 5.46861 32.9631 5.46861C34.4552 5.46861 35.6647 6.67904 35.6647 8.17072C35.6647 9.66241 34.4552 10.8718 32.9631 10.8718Z" fill="black"/>
</g>
<g opacity="0.998">
<path opacity="0.998" d="M21.4974 11.9557C23.5868 11.9557 25.2788 10.2616 25.2788 8.17273C25.2788 6.08488 23.5868 4.39179 21.4974 4.39179C19.41 4.39179 17.7159 6.08488 17.7159 8.17273C17.7159 10.2616 19.41 11.9557 21.4974 11.9557Z" fill="white"/>
</g>
<g opacity="0.998">
<path opacity="0.998" d="M21.5219 10.8718C20.0287 10.8718 18.8213 9.66241 18.8213 8.17072C18.8213 6.67904 20.0287 5.46861 21.5219 5.46861C23.0121 5.46861 24.2225 6.67904 24.2225 8.17072C24.2225 9.66241 23.0121 10.8718 21.5219 10.8718Z" fill="black"/>
</g>
</g>
</g>
<g opacity="0.998">
<g opacity="0.998">
<g opacity="0.998">
<path d="M43.9205 60.3758L43.9391 53.6467L41.6247 51.3188L36.5218 51.3047L34.1935 53.6197L34.1723 61.2775" fill="white"/>
<path d="M43.9205 60.3758L43.9391 53.6467L41.6247 51.3188L36.5218 51.3047L34.1935 53.6197L34.1723 61.2775" stroke="black" stroke-width="0.711403" stroke-linecap="round" stroke-linejoin="round"/>
</g>
</g>
<g opacity="0.998">
<path opacity="0.998" d="M34.1687 62.6707L36.4906 62.6771L49.9464 62.7143L52.7313 62.722L52.7352 61.3288L51.8106 60.3976L49.5691 60.3914L36.8807 60.3563L35.1033 60.3514L34.1725 61.2775L34.1687 62.6707Z" fill="white" stroke="black" stroke-width="0.711403"/>
</g>
<g opacity="0.998">
<g opacity="0.998">
<path fill-rule="evenodd" clip-rule="evenodd" d="M34.1725 61.2772L36.4944 61.2836L34.1725 61.2772ZM36.4944 61.2836L36.4905 62.6768L36.4944 61.2836ZM49.9502 61.3208L36.4945 61.2836L49.9502 61.3208ZM49.9464 62.7142L49.9502 61.321L49.9464 62.7142ZM36.8805 60.3562L36.4942 61.2838L36.8805 60.3562ZM49.5692 60.3913L49.9503 61.321L49.5692 60.3913ZM49.9502 61.3208L52.7352 61.3285L49.9502 61.3208Z" fill="white"/>
<path d="M49.9502 61.3208L52.7352 61.3285M34.1725 61.2772L36.4944 61.2836L34.1725 61.2772ZM36.4944 61.2836L36.4905 62.6768L36.4944 61.2836ZM49.9502 61.3208L36.4945 61.2836L49.9502 61.3208ZM49.9464 62.7142L49.9502 61.321L49.9464 62.7142ZM36.8805 60.3562L36.4942 61.2838L36.8805 60.3562ZM49.5692 60.3913L49.9503 61.321L49.5692 60.3913Z" stroke="black" stroke-width="0.711403" stroke-linecap="round" stroke-linejoin="round"/>
</g>
</g>
<g opacity="0.998">
<g opacity="0.998">
<path fill-rule="evenodd" clip-rule="evenodd" d="M43.9393 53.6464L43.01 54.0285L43.9393 53.6464ZM43.0102 54.0284L41.2366 52.246L43.0102 54.0284ZM41.2366 52.2459L41.6249 51.3188L41.2366 52.2459ZM41.2366 52.2459L36.9027 52.2339L41.2366 52.2459ZM36.9028 52.2339L36.5216 51.3047L36.9028 52.2339ZM36.9028 52.2339L35.1204 54.0065L36.9028 52.2339ZM35.1204 54.0066L34.1933 53.6193L35.1204 54.0066ZM42.9927 60.3732L43.0102 54.0283L42.9927 60.3732ZM35.1204 54.0066L35.1029 60.3515L35.1204 54.0066Z" fill="white"/>
<path d="M35.1204 54.0066L35.1029 60.3515M43.9393 53.6464L43.01 54.0285L43.9393 53.6464ZM43.0102 54.0284L41.2366 52.246L43.0102 54.0284ZM41.2366 52.2459L41.6249 51.3188L41.2366 52.2459ZM41.2366 52.2459L36.9027 52.2339L41.2366 52.2459ZM36.9028 52.2339L36.5216 51.3047L36.9028 52.2339ZM36.9028 52.2339L35.1204 54.0065L36.9028 52.2339ZM35.1204 54.0066L34.1933 53.6193L35.1204 54.0066ZM42.9927 60.3732L43.0102 54.0283L42.9927 60.3732Z" stroke="black" stroke-width="0.711403" stroke-linecap="round" stroke-linejoin="round"/>
</g>
</g>
</g>
<g opacity="0.998">
<path d="M37.1109 19.9034H17.3289V23.9231H37.1109V19.9034Z" fill="white" stroke="black" stroke-width="1.52634" stroke-linecap="round" stroke-linejoin="round"/>
<g opacity="0.997">
<path opacity="0.997" d="M19.278 19.5587H35.1617V35.4424H19.278V19.5587Z" fill="white" stroke="black" stroke-width="0.711402" stroke-linejoin="bevel"/>
<g opacity="0.997">
<path opacity="0.997" d="M33.1006 34.0153C33.1006 33.6016 33.4364 33.2657 33.8501 33.2657C34.2652 33.2657 34.6007 33.6016 34.6007 34.0153C34.6007 34.4294 34.2652 34.7659 33.8501 34.7659C33.4364 34.7659 33.1006 34.4294 33.1006 34.0153Z" fill="#E6E6E6"/>
</g>
<g opacity="0.997">
<path opacity="0.997" d="M33.1006 32.1661C33.1006 31.752 33.4364 31.4165 33.8501 31.4165C34.2652 31.4165 34.6007 31.752 34.6007 32.1661C34.6007 32.5808 34.2652 32.9166 33.8501 32.9166C33.4364 32.9166 33.1006 32.5808 33.1006 32.1661Z" fill="#E6E6E6"/>
</g>
<g opacity="0.997">
<path opacity="0.997" d="M33.1006 30.3173C33.1006 29.9035 33.4364 29.567 33.8501 29.567C34.2652 29.567 34.6007 29.9035 34.6007 30.3173C34.6007 30.7316 34.2652 31.0678 33.8501 31.0678C33.4364 31.0678 33.1006 30.7316 33.1006 30.3173Z" fill="#E6E6E6"/>
</g>
<g opacity="0.997">
<path opacity="0.997" d="M33.1006 28.4687C33.1006 28.0543 33.4364 27.7188 33.8501 27.7188C34.2652 27.7188 34.6007 28.0543 34.6007 28.4687C34.6007 28.8824 34.2652 29.2186 33.8501 29.2186C33.4364 29.2186 33.1006 28.8824 33.1006 28.4687Z" fill="#E6E6E6"/>
</g>
<g opacity="0.997">
<path opacity="0.997" d="M33.1006 26.6188C33.1006 26.2051 33.4364 25.8693 33.8501 25.8693C34.2652 25.8693 34.6007 26.2051 34.6007 26.6188C34.6007 27.0332 34.2652 27.3691 33.8501 27.3691C33.4364 27.3691 33.1006 27.0332 33.1006 26.6188Z" fill="#FF0000"/>
</g>
<g opacity="0.997">
<path opacity="0.997" d="M33.1006 24.7706C33.1006 24.3565 33.4364 24.02 33.8501 24.02C34.2652 24.02 34.6007 24.3565 34.6007 24.7706C34.6007 25.1843 34.2652 25.5205 33.8501 25.5205C33.4364 25.5205 33.1006 25.1843 33.1006 24.7706Z" fill="#E6E6E6"/>
</g>
<g opacity="0.997">
<path opacity="0.997" d="M33.1006 22.9215C33.1006 22.5071 33.4364 22.1713 33.8501 22.1713C34.2652 22.1713 34.6007 22.5071 34.6007 22.9215C34.6007 23.3352 34.2652 23.6717 33.8501 23.6717C33.4364 23.6717 33.1006 23.3352 33.1006 22.9215Z" fill="#E6E6E6"/>
</g>
<g opacity="0.997">
<path opacity="0.997" d="M33.1006 21.0723C33.1006 20.6583 33.4364 20.3228 33.8501 20.3228C34.2652 20.3228 34.6007 20.6583 34.6007 21.0723C34.6007 21.4864 34.2652 21.8226 33.8501 21.8226C33.4364 21.8226 33.1006 21.4864 33.1006 21.0723Z" fill="#E6E6E6"/>
</g>
<g opacity="0.997">
<path opacity="0.997" d="M31.2446 34.0153C31.2446 33.6016 31.5805 33.2657 31.9952 33.2657C32.4096 33.2657 32.7448 33.6016 32.7448 34.0153C32.7448 34.4294 32.4096 34.7659 31.9952 34.7659C31.5805 34.7659 31.2446 34.4294 31.2446 34.0153Z" fill="#E6E6E6"/>
</g>
<g opacity="0.997">
<path opacity="0.997" d="M31.2446 32.1661C31.2446 31.752 31.5805 31.4165 31.9952 31.4165C32.4096 31.4165 32.7448 31.752 32.7448 32.1661C32.7448 32.5808 32.4096 32.9166 31.9952 32.9166C31.5805 32.9166 31.2446 32.5808 31.2446 32.1661Z" fill="#E6E6E6"/>
</g>
<g opacity="0.997">
<path opacity="0.997" d="M31.2446 30.3173C31.2446 29.9035 31.5805 29.567 31.9952 29.567C32.4096 29.567 32.7448 29.9035 32.7448 30.3173C32.7448 30.7316 32.4096 31.0678 31.9952 31.0678C31.5805 31.0678 31.2446 30.7316 31.2446 30.3173Z" fill="#E6E6E6"/>
</g>
<g opacity="0.997">
<path opacity="0.997" d="M31.2446 28.4687C31.2446 28.0543 31.5805 27.7188 31.9952 27.7188C32.4096 27.7188 32.7448 28.0543 32.7448 28.4687C32.7448 28.8824 32.4096 29.2186 31.9952 29.2186C31.5805 29.2186 31.2446 28.8824 31.2446 28.4687Z" fill="#FF0000"/>
</g>
<g opacity="0.997">
<path opacity="0.997" d="M31.2446 26.6188C31.2446 26.2051 31.5805 25.8693 31.9952 25.8693C32.4096 25.8693 32.7448 26.2051 32.7448 26.6188C32.7448 27.0332 32.4096 27.3691 31.9952 27.3691C31.5805 27.3691 31.2446 27.0332 31.2446 26.6188Z" fill="#FF0000"/>
</g>
<g opacity="0.997">
<path opacity="0.997" d="M31.2446 24.7706C31.2446 24.3565 31.5805 24.02 31.9952 24.02C32.4096 24.02 32.7448 24.3565 32.7448 24.7706C32.7448 25.1843 32.4096 25.5205 31.9952 25.5205C31.5805 25.5205 31.2446 25.1843 31.2446 24.7706Z" fill="#E6E6E6"/>
</g>
<g opacity="0.997">
<path opacity="0.997" d="M31.2446 22.9215C31.2446 22.5071 31.5805 22.1713 31.9952 22.1713C32.4096 22.1713 32.7448 22.5071 32.7448 22.9215C32.7448 23.3352 32.4096 23.6717 31.9952 23.6717C31.5805 23.6717 31.2446 23.3352 31.2446 22.9215Z" fill="#E6E6E6"/>
</g>
<g opacity="0.997">
<path opacity="0.997" d="M31.2446 21.0723C31.2446 20.6583 31.5805 20.3228 31.9952 20.3228C32.4096 20.3228 32.7448 20.6583 32.7448 21.0723C32.7448 21.4864 32.4096 21.8226 31.9952 21.8226C31.5805 21.8226 31.2446 21.4864 31.2446 21.0723Z" fill="#E6E6E6"/>
</g>
<g opacity="0.997">
<path opacity="0.997" d="M29.3889 34.0153C29.3889 33.6016 29.7247 33.2657 30.1391 33.2657C30.5538 33.2657 30.8887 33.6016 30.8887 34.0153C30.8887 34.4294 30.5538 34.7659 30.1391 34.7659C29.7247 34.7659 29.3889 34.4294 29.3889 34.0153Z" fill="#E6E6E6"/>
</g>
<g opacity="0.997">
<path opacity="0.997" d="M29.3889 32.1661C29.3889 31.752 29.7247 31.4165 30.1391 31.4165C30.5538 31.4165 30.8887 31.752 30.8887 32.1661C30.8887 32.5808 30.5538 32.9166 30.1391 32.9166C29.7247 32.9166 29.3889 32.5808 29.3889 32.1661Z" fill="#E6E6E6"/>
</g>
<g opacity="0.997">
<path opacity="0.997" d="M29.3889 30.3173C29.3889 29.9035 29.7247 29.567 30.1391 29.567C30.5538 29.567 30.8887 29.9035 30.8887 30.3173C30.8887 30.7316 30.5538 31.0678 30.1391 31.0678C29.7247 31.0678 29.3889 30.7316 29.3889 30.3173Z" fill="#FF0000"/>
</g>
<g opacity="0.997">
<path opacity="0.997" d="M29.3889 28.4687C29.3889 28.0543 29.7247 27.7188 30.1391 27.7188C30.5538 27.7188 30.8887 28.0543 30.8887 28.4687C30.8887 28.8824 30.5538 29.2186 30.1391 29.2186C29.7247 29.2186 29.3889 28.8824 29.3889 28.4687Z" fill="#E6E6E6"/>
</g>
<g opacity="0.997">
<path opacity="0.997" d="M29.3889 26.6188C29.3889 26.2051 29.7247 25.8693 30.1391 25.8693C30.5538 25.8693 30.8887 26.2051 30.8887 26.6188C30.8887 27.0332 30.5538 27.3691 30.1391 27.3691C29.7247 27.3691 29.3889 27.0332 29.3889 26.6188Z" fill="#FF0000"/>
</g>
<g opacity="0.997">
<path opacity="0.997" d="M29.3889 24.7706C29.3889 24.3565 29.7247 24.02 30.1391 24.02C30.5538 24.02 30.8887 24.3565 30.8887 24.7706C30.8887 25.1843 30.5538 25.5205 30.1391 25.5205C29.7247 25.5205 29.3889 25.1843 29.3889 24.7706Z" fill="#E6E6E6"/>
</g>
<g opacity="0.997">
<path opacity="0.997" d="M29.3889 22.9215C29.3889 22.5071 29.7247 22.1713 30.1391 22.1713C30.5538 22.1713 30.8887 22.5071 30.8887 22.9215C30.8887 23.3352 30.5538 23.6717 30.1391 23.6717C29.7247 23.6717 29.3889 23.3352 29.3889 22.9215Z" fill="#E6E6E6"/>
</g>
<g opacity="0.997">
<path opacity="0.997" d="M29.3889 21.0723C29.3889 20.6583 29.7247 20.3228 30.1391 20.3228C30.5538 20.3228 30.8887 20.6583 30.8887 21.0723C30.8887 21.4864 30.5538 21.8226 30.1391 21.8226C29.7247 21.8226 29.3889 21.4864 29.3889 21.0723Z" fill="#E6E6E6"/>
</g>
<g opacity="0.997">
<path opacity="0.997" d="M27.534 34.0153C27.534 33.6016 27.8688 33.2657 28.2835 33.2657C28.6979 33.2657 29.0334 33.6016 29.0334 34.0153C29.0334 34.4294 28.6979 34.7659 28.2835 34.7659C27.8688 34.7659 27.534 34.4294 27.534 34.0153Z" fill="#E6E6E6"/>
</g>
<g opacity="0.997">
<path opacity="0.997" d="M27.534 32.1661C27.534 31.752 27.8688 31.4165 28.2835 31.4165C28.6979 31.4165 29.0334 31.752 29.0334 32.1661C29.0334 32.5808 28.6979 32.9166 28.2835 32.9166C27.8688 32.9166 27.534 32.5808 27.534 32.1661Z" fill="#FF0000"/>
</g>
<g opacity="0.997">
<path opacity="0.997" d="M27.534 30.3173C27.534 29.9035 27.8688 29.567 28.2835 29.567C28.6979 29.567 29.0334 29.9035 29.0334 30.3173C29.0334 30.7316 28.6979 31.0678 28.2835 31.0678C27.8688 31.0678 27.534 30.7316 27.534 30.3173Z" fill="#E6E6E6"/>
</g>
<g opacity="0.997">
<path opacity="0.997" d="M27.534 28.4687C27.534 28.0543 27.8688 27.7188 28.2835 27.7188C28.6979 27.7188 29.0334 28.0543 29.0334 28.4687C29.0334 28.8824 28.6979 29.2186 28.2835 29.2186C27.8688 29.2186 27.534 28.8824 27.534 28.4687Z" fill="#E6E6E6"/>
</g>
<g opacity="0.997">
<path opacity="0.997" d="M27.534 26.6188C27.534 26.2051 27.8688 25.8693 28.2835 25.8693C28.6979 25.8693 29.0334 26.2051 29.0334 26.6188C29.0334 27.0332 28.6979 27.3691 28.2835 27.3691C27.8688 27.3691 27.534 27.0332 27.534 26.6188Z" fill="#FF0000"/>
</g>
<g opacity="0.997">
<path opacity="0.997" d="M27.534 24.7706C27.534 24.3565 27.8688 24.02 28.2835 24.02C28.6979 24.02 29.0334 24.3565 29.0334 24.7706C29.0334 25.1843 28.6979 25.5205 28.2835 25.5205C27.8688 25.5205 27.534 25.1843 27.534 24.7706Z" fill="#E6E6E6"/>
</g>
<g opacity="0.997">
<path opacity="0.997" d="M27.534 22.9215C27.534 22.5071 27.8688 22.1713 28.2835 22.1713C28.6979 22.1713 29.0334 22.5071 29.0334 22.9215C29.0334 23.3352 28.6979 23.6717 28.2835 23.6717C27.8688 23.6717 27.534 23.3352 27.534 22.9215Z" fill="#E6E6E6"/>
</g>
<g opacity="0.997">
<path opacity="0.997" d="M27.534 21.0723C27.534 20.6583 27.8688 20.3228 28.2835 20.3228C28.6979 20.3228 29.0334 20.6583 29.0334 21.0723C29.0334 21.4864 28.6979 21.8226 28.2835 21.8226C27.8688 21.8226 27.534 21.4864 27.534 21.0723Z" fill="#E6E6E6"/>
</g>
<g opacity="0.997">
<path opacity="0.997" d="M25.6774 34.0153C25.6774 33.6016 26.0125 33.2657 26.4273 33.2657C26.842 33.2657 27.1775 33.6016 27.1775 34.0153C27.1775 34.4294 26.842 34.7659 26.4273 34.7659C26.0125 34.7659 25.6774 34.4294 25.6774 34.0153Z" fill="#E6E6E6"/>
</g>
<g opacity="0.997">
<path opacity="0.997" d="M25.6774 32.1661C25.6774 31.752 26.0125 31.4165 26.4273 31.4165C26.842 31.4165 27.1775 31.752 27.1775 32.1661C27.1775 32.5808 26.842 32.9166 26.4273 32.9166C26.0125 32.9166 25.6774 32.5808 25.6774 32.1661Z" fill="#FF0000"/>
</g>
<g opacity="0.997">
<path opacity="0.997" d="M25.6774 30.3173C25.6774 29.9035 26.0125 29.567 26.4273 29.567C26.842 29.567 27.1775 29.9035 27.1775 30.3173C27.1775 30.7316 26.842 31.0678 26.4273 31.0678C26.0125 31.0678 25.6774 30.7316 25.6774 30.3173Z" fill="#E6E6E6"/>
</g>
<g opacity="0.997">
<path opacity="0.997" d="M25.6774 28.4687C25.6774 28.0543 26.0125 27.7188 26.4273 27.7188C26.842 27.7188 27.1775 28.0543 27.1775 28.4687C27.1775 28.8824 26.842 29.2186 26.4273 29.2186C26.0125 29.2186 25.6774 28.8824 25.6774 28.4687Z" fill="#E6E6E6"/>
</g>
<g opacity="0.997">
<path opacity="0.997" d="M25.6774 26.6188C25.6774 26.2051 26.0125 25.8693 26.4273 25.8693C26.842 25.8693 27.1775 26.2051 27.1775 26.6188C27.1775 27.0332 26.842 27.3691 26.4273 27.3691C26.0125 27.3691 25.6774 27.0332 25.6774 26.6188Z" fill="#FF0000"/>
</g>
<g opacity="0.997">
<path opacity="0.997" d="M25.6774 24.7706C25.6774 24.3565 26.0125 24.02 26.4273 24.02C26.842 24.02 27.1775 24.3565 27.1775 24.7706C27.1775 25.1843 26.842 25.5205 26.4273 25.5205C26.0125 25.5205 25.6774 25.1843 25.6774 24.7706Z" fill="#E6E6E6"/>
</g>
<g opacity="0.997">
<path opacity="0.997" d="M25.6774 22.9215C25.6774 22.5071 26.0125 22.1713 26.4273 22.1713C26.842 22.1713 27.1775 22.5071 27.1775 22.9215C27.1775 23.3352 26.842 23.6717 26.4273 23.6717C26.0125 23.6717 25.6774 23.3352 25.6774 22.9215Z" fill="#E6E6E6"/>
</g>
<g opacity="0.997">
<path opacity="0.997" d="M25.6774 21.0723C25.6774 20.6583 26.0125 20.3228 26.4273 20.3228C26.842 20.3228 27.1775 20.6583 27.1775 21.0723C27.1775 21.4864 26.842 21.8226 26.4273 21.8226C26.0125 21.8226 25.6774 21.4864 25.6774 21.0723Z" fill="#E6E6E6"/>
</g>
<g opacity="0.997">
<path opacity="0.997" d="M23.8221 34.0153C23.8221 33.6016 24.1573 33.2657 24.572 33.2657C24.9861 33.2657 25.3219 33.6016 25.3219 34.0153C25.3219 34.4294 24.9861 34.7659 24.572 34.7659C24.1573 34.7659 23.8221 34.4294 23.8221 34.0153Z" fill="#E6E6E6"/>
</g>
<g opacity="0.997">
<path opacity="0.997" d="M23.8221 32.1661C23.8221 31.752 24.1573 31.4165 24.572 31.4165C24.9861 31.4165 25.3219 31.752 25.3219 32.1661C25.3219 32.5808 24.9861 32.9166 24.572 32.9166C24.1573 32.9166 23.8221 32.5808 23.8221 32.1661Z" fill="#E6E6E6"/>
</g>
<g opacity="0.997">
<path opacity="0.997" d="M23.8221 30.3173C23.8221 29.9035 24.1573 29.567 24.572 29.567C24.9861 29.567 25.3219 29.9035 25.3219 30.3173C25.3219 30.7316 24.9861 31.0678 24.572 31.0678C24.1573 31.0678 23.8221 30.7316 23.8221 30.3173Z" fill="#FF0000"/>
</g>
<g opacity="0.997">
<path opacity="0.997" d="M23.8221 28.4687C23.8221 28.0543 24.1573 27.7188 24.572 27.7188C24.9861 27.7188 25.3219 28.0543 25.3219 28.4687C25.3219 28.8824 24.9861 29.2186 24.572 29.2186C24.1573 29.2186 23.8221 28.8824 23.8221 28.4687Z" fill="#E6E6E6"/>
</g>
<g opacity="0.997">
<path opacity="0.997" d="M23.8221 26.6188C23.8221 26.2051 24.1573 25.8693 24.572 25.8693C24.9861 25.8693 25.3219 26.2051 25.3219 26.6188C25.3219 27.0332 24.9861 27.3691 24.572 27.3691C24.1573 27.3691 23.8221 27.0332 23.8221 26.6188Z" fill="#FF0000"/>
</g>
<g opacity="0.997">
<path opacity="0.997" d="M23.8221 24.7706C23.8221 24.3565 24.1573 24.02 24.572 24.02C24.9861 24.02 25.3219 24.3565 25.3219 24.7706C25.3219 25.1843 24.9861 25.5205 24.572 25.5205C24.1573 25.5205 23.8221 25.1843 23.8221 24.7706Z" fill="#E6E6E6"/>
</g>
<g opacity="0.997">
<path opacity="0.997" d="M23.8221 22.9215C23.8221 22.5071 24.1573 22.1713 24.572 22.1713C24.9861 22.1713 25.3219 22.5071 25.3219 22.9215C25.3219 23.3352 24.9861 23.6717 24.572 23.6717C24.1573 23.6717 23.8221 23.3352 23.8221 22.9215Z" fill="#E6E6E6"/>
</g>
<g opacity="0.997">
<path opacity="0.997" d="M23.8221 21.0723C23.8221 20.6583 24.1573 20.3228 24.572 20.3228C24.9861 20.3228 25.3219 20.6583 25.3219 21.0723C25.3219 21.4864 24.9861 21.8226 24.572 21.8226C24.1573 21.8226 23.8221 21.4864 23.8221 21.0723Z" fill="#E6E6E6"/>
</g>
<g opacity="0.997">
<path opacity="0.997" d="M21.9657 34.0153C21.9657 33.6016 22.3005 33.2657 22.7159 33.2657C23.13 33.2657 23.4658 33.6016 23.4658 34.0153C23.4658 34.4294 23.13 34.7659 22.7159 34.7659C22.3005 34.7659 21.9657 34.4294 21.9657 34.0153Z" fill="#E6E6E6"/>
</g>
<g opacity="0.997">
<path opacity="0.997" d="M21.9657 32.1661C21.9657 31.752 22.3005 31.4165 22.7159 31.4165C23.13 31.4165 23.4658 31.752 23.4658 32.1661C23.4658 32.5808 23.13 32.9166 22.7159 32.9166C22.3005 32.9166 21.9657 32.5808 21.9657 32.1661Z" fill="#E6E6E6"/>
</g>
<g opacity="0.997">
<path opacity="0.997" d="M21.9657 30.3173C21.9657 29.9035 22.3005 29.567 22.7159 29.567C23.13 29.567 23.4658 29.9035 23.4658 30.3173C23.4658 30.7316 23.13 31.0678 22.7159 31.0678C22.3005 31.0678 21.9657 30.7316 21.9657 30.3173Z" fill="#E6E6E6"/>
</g>
<g opacity="0.997">
<path opacity="0.997" d="M21.9657 28.4687C21.9657 28.0543 22.3005 27.7188 22.7159 27.7188C23.13 27.7188 23.4658 28.0543 23.4658 28.4687C23.4658 28.8824 23.13 29.2186 22.7159 29.2186C22.3005 29.2186 21.9657 28.8824 21.9657 28.4687Z" fill="#FF0000"/>
</g>
<g opacity="0.997">
<path opacity="0.997" d="M21.9657 26.6188C21.9657 26.2051 22.3005 25.8693 22.7159 25.8693C23.13 25.8693 23.4658 26.2051 23.4658 26.6188C23.4658 27.0332 23.13 27.3691 22.7159 27.3691C22.3005 27.3691 21.9657 27.0332 21.9657 26.6188Z" fill="#FF0000"/>
</g>
<g opacity="0.997">
<path opacity="0.997" d="M21.9657 24.7706C21.9657 24.3565 22.3005 24.02 22.7159 24.02C23.13 24.02 23.4658 24.3565 23.4658 24.7706C23.4658 25.1843 23.13 25.5205 22.7159 25.5205C22.3005 25.5205 21.9657 25.1843 21.9657 24.7706Z" fill="#E6E6E6"/>
</g>
<g opacity="0.997">
<path opacity="0.997" d="M21.9657 22.9215C21.9657 22.5071 22.3005 22.1713 22.7159 22.1713C23.13 22.1713 23.4658 22.5071 23.4658 22.9215C23.4658 23.3352 23.13 23.6717 22.7159 23.6717C22.3005 23.6717 21.9657 23.3352 21.9657 22.9215Z" fill="#E6E6E6"/>
</g>
<g opacity="0.997">
<path opacity="0.997" d="M21.9657 21.0723C21.9657 20.6583 22.3005 20.3228 22.7159 20.3228C23.13 20.3228 23.4658 20.6583 23.4658 21.0723C23.4658 21.4864 23.13 21.8226 22.7159 21.8226C22.3005 21.8226 21.9657 21.4864 21.9657 21.0723Z" fill="#E6E6E6"/>
</g>
<g opacity="0.997">
<path opacity="0.997" d="M20.1097 34.0153C20.1097 33.6016 20.4456 33.2657 20.8603 33.2657C21.2744 33.2657 21.6099 33.6016 21.6099 34.0153C21.6099 34.4294 21.2744 34.7659 20.8603 34.7659C20.4456 34.7659 20.1097 34.4294 20.1097 34.0153Z" fill="#E6E6E6"/>
</g>
<g opacity="0.997">
<path opacity="0.997" d="M20.1097 32.1661C20.1097 31.752 20.4456 31.4165 20.8603 31.4165C21.2744 31.4165 21.6099 31.752 21.6099 32.1661C21.6099 32.5808 21.2744 32.9166 20.8603 32.9166C20.4456 32.9166 20.1097 32.5808 20.1097 32.1661Z" fill="#E6E6E6"/>
</g>
<g opacity="0.997">
<path opacity="0.997" d="M20.1097 30.3173C20.1097 29.9035 20.4456 29.567 20.8603 29.567C21.2744 29.567 21.6099 29.9035 21.6099 30.3173C21.6099 30.7316 21.2744 31.0678 20.8603 31.0678C20.4456 31.0678 20.1097 30.7316 20.1097 30.3173Z" fill="#E6E6E6"/>
</g>
<g opacity="0.997">
<path opacity="0.997" d="M20.1097 28.4687C20.1097 28.0543 20.4456 27.7188 20.8603 27.7188C21.2744 27.7188 21.6099 28.0543 21.6099 28.4687C21.6099 28.8824 21.2744 29.2186 20.8603 29.2186C20.4456 29.2186 20.1097 28.8824 20.1097 28.4687Z" fill="#E6E6E6"/>
</g>
<g opacity="0.997">
<path opacity="0.997" d="M20.1097 26.6188C20.1097 26.2051 20.4456 25.8693 20.8603 25.8693C21.2744 25.8693 21.6099 26.2051 21.6099 26.6188C21.6099 27.0332 21.2744 27.3691 20.8603 27.3691C20.4456 27.3691 20.1097 27.0332 20.1097 26.6188Z" fill="#FF0000"/>
</g>
<g opacity="0.997">
<path opacity="0.997" d="M20.1097 24.7706C20.1097 24.3565 20.4456 24.02 20.8603 24.02C21.2744 24.02 21.6099 24.3565 21.6099 24.7706C21.6099 25.1843 21.2744 25.5205 20.8603 25.5205C20.4456 25.5205 20.1097 25.1843 20.1097 24.7706Z" fill="#E6E6E6"/>
</g>
<g opacity="0.997">
<path opacity="0.997" d="M20.1097 22.9215C20.1097 22.5071 20.4456 22.1713 20.8603 22.1713C21.2744 22.1713 21.6099 22.5071 21.6099 22.9215C21.6099 23.3352 21.2744 23.6717 20.8603 23.6717C20.4456 23.6717 20.1097 23.3352 20.1097 22.9215Z" fill="#E6E6E6"/>
</g>
<g opacity="0.997">
<path opacity="0.997" d="M20.1097 21.0723C20.1097 20.6583 20.4456 20.3228 20.8603 20.3228C21.2744 20.3228 21.6099 20.6583 21.6099 21.0723C21.6099 21.4864 21.2744 21.8226 20.8603 21.8226C20.4456 21.8226 20.1097 21.4864 20.1097 21.0723Z" fill="#E6E6E6"/>
</g>
</g>
</g>
</g>
</svg>
