<svg width="53" height="64" viewBox="0 0 53 64" fill="none" xmlns="http://www.w3.org/2000/svg">
<g opacity="0.998">
<path opacity="0.998" d="M13.2471 14.5763H39.7432H42.0657V24.4918H10.9235V14.5763H13.2471Z" fill="white" stroke="black" stroke-width="0.711405"/>
<g opacity="0.998">
<g opacity="0.998">
<g opacity="0.998">
<path d="M11.1672 57.672V43.5773L12.0964 42.6492H12.4806H17.5132H17.8984L18.8266 43.5773V57.6891" fill="white"/>
<path d="M11.1672 57.672V43.5773L12.0964 42.6492H12.4806H17.5132H17.8984L18.8266 43.5773V57.6891" stroke="black" stroke-width="0.711403" stroke-linecap="round" stroke-linejoin="round"/>
</g>
</g>
<g opacity="0.998">
<g opacity="0.998">
<path fill-rule="evenodd" clip-rule="evenodd" d="M17.8986 43.5771L17.5128 42.649L17.8986 43.5771ZM17.8986 43.5771H12.096H17.8986ZM12.0962 43.5771L12.4809 42.649L12.0962 43.5771ZM17.8986 56.7603V43.5772V56.7603ZM18.8266 43.5771H17.8984H18.8266ZM12.0962 56.7446V43.577V56.7446ZM11.1672 43.5771H12.0964H11.1672Z" fill="white"/>
<path d="M11.1672 43.5771H12.0964M17.8986 43.5771L17.5128 42.649L17.8986 43.5771ZM17.8986 43.5771H12.096H17.8986ZM12.0962 43.5771L12.4809 42.649L12.0962 43.5771ZM17.8986 56.7603V43.5772V56.7603ZM18.8266 43.5771H17.8984H18.8266ZM12.0962 56.7446V43.577V56.7446Z" stroke="black" stroke-width="0.711403" stroke-linecap="round" stroke-linejoin="round"/>
</g>
</g>
</g>
<g opacity="0.998">
<g opacity="0.998">
<g opacity="0.998">
<path d="M9.83544 60.3177L9.89112 53.5888L12.2312 51.2867L17.3339 51.3289L19.6365 53.6694L19.5731 61.327" fill="white"/>
<path d="M9.83544 60.3177L9.89112 53.5888L12.2312 51.2867L17.3339 51.3289L19.6365 53.6694L19.5731 61.327" stroke="black" stroke-width="0.711403" stroke-linecap="round" stroke-linejoin="round"/>
</g>
</g>
<g opacity="0.998">
<path opacity="0.998" d="M19.5618 62.7201L17.24 62.7009L3.78464 62.5896L0.999756 62.5665L1.01128 61.1733L1.94609 60.2524L4.18756 60.2709L16.8755 60.3759L18.6529 60.3906L19.5733 61.3269L19.5618 62.7201Z" fill="white" stroke="black" stroke-width="0.711403"/>
</g>
<g opacity="0.998">
<g opacity="0.998">
<path fill-rule="evenodd" clip-rule="evenodd" d="M19.5734 61.3267L17.2516 61.3075L19.5734 61.3267ZM17.2516 61.3075L17.2401 62.7007L17.2516 61.3075ZM3.79617 61.1962L17.2515 61.3075L3.79617 61.1962ZM3.78464 62.5896L3.79617 61.1964L3.78464 62.5896ZM16.8757 60.3759L17.2517 61.3077L16.8757 60.3759ZM4.18744 60.2709L3.79605 61.1964L4.18744 60.2709ZM3.79617 61.1962L1.01129 61.1731L3.79617 61.1962Z" fill="white"/>
<path d="M3.79617 61.1962L1.01129 61.1731M19.5734 61.3267L17.2516 61.3075L19.5734 61.3267ZM17.2516 61.3075L17.2401 62.7007L17.2516 61.3075ZM3.79617 61.1962L17.2515 61.3075L3.79617 61.1962ZM3.78464 62.5896L3.79617 61.1964L3.78464 62.5896ZM16.8757 60.3759L17.2517 61.3077L16.8757 60.3759ZM4.18744 60.2709L3.79605 61.1964L4.18744 60.2709Z" stroke="black" stroke-width="0.711403" stroke-linecap="round" stroke-linejoin="round"/>
</g>
</g>
<g opacity="0.998">
<g opacity="0.998">
<path fill-rule="evenodd" clip-rule="evenodd" d="M9.89138 53.5883L10.8163 53.9807L9.89138 53.5883ZM10.8162 53.9806L12.6093 52.2179L10.8162 53.9806ZM12.6093 52.2178L12.2313 51.2865L12.6093 52.2178ZM12.6093 52.2178L16.9431 52.2537L12.6093 52.2178ZM16.943 52.2537L17.3344 51.3287L16.943 52.2537ZM16.943 52.2537L18.7057 54.0458L16.943 52.2537ZM18.7057 54.0459L19.637 53.6688L18.7057 54.0459ZM10.7637 60.3252L10.8162 53.9805L10.7637 60.3252ZM18.7057 54.0459L18.6532 60.3906L18.7057 54.0459Z" fill="white"/>
<path d="M18.7057 54.0459L18.6532 60.3906M9.89138 53.5883L10.8163 53.9807L9.89138 53.5883ZM10.8162 53.9806L12.6093 52.2179L10.8162 53.9806ZM12.6093 52.2178L12.2313 51.2865L12.6093 52.2178ZM12.6093 52.2178L16.9431 52.2537L12.6093 52.2178ZM16.943 52.2537L17.3344 51.3287L16.943 52.2537ZM16.943 52.2537L18.7057 54.0458L16.943 52.2537ZM18.7057 54.0459L19.637 53.6688L18.7057 54.0459ZM10.7637 60.3252L10.8162 53.9805L10.7637 60.3252Z" stroke="black" stroke-width="0.711403" stroke-linecap="round" stroke-linejoin="round"/>
</g>
</g>
</g>
<g opacity="0.998">
<g opacity="0.998">
<g opacity="0.998">
<path d="M41.8885 57.672V43.5773L40.9594 42.6492H40.5752H35.5426H35.1574L34.2292 43.5773V57.6891" fill="white"/>
<path d="M41.8885 57.672V43.5773L40.9594 42.6492H40.5752H35.5426H35.1574L34.2292 43.5773V57.6891" stroke="black" stroke-width="0.711403" stroke-linecap="round" stroke-linejoin="round"/>
</g>
</g>
<g opacity="0.998">
<g opacity="0.998">
<path fill-rule="evenodd" clip-rule="evenodd" d="M35.1572 43.5771L35.543 42.649L35.1572 43.5771ZM35.1572 43.5771H40.9597H35.1572ZM40.9596 43.5771L40.5749 42.649L40.9596 43.5771ZM35.1572 56.7603V43.5772V56.7603ZM34.2292 43.5771H35.1574H34.2292ZM40.9596 56.7446V43.577V56.7446ZM41.8885 43.5771H40.9594H41.8885Z" fill="white"/>
<path d="M41.8885 43.5771H40.9594M35.1572 43.5771L35.543 42.649L35.1572 43.5771ZM35.1572 43.5771H40.9597H35.1572ZM40.9596 43.5771L40.5749 42.649L40.9596 43.5771ZM35.1572 56.7603V43.5772V56.7603ZM34.2292 43.5771H35.1574H34.2292ZM40.9596 56.7446V43.577V56.7446Z" stroke="black" stroke-width="0.711403" stroke-linecap="round" stroke-linejoin="round"/>
</g>
</g>
</g>
<path opacity="0.998" d="M13.2677 24.5039H39.7222H42.0412V41.2118L41.115 42.1385H39.3375H13.6544H13.6533H11.8759L10.9478 41.2118V24.5039H13.2677Z" fill="white" stroke="black" stroke-width="0.711853"/>
<g opacity="0.998">
<g opacity="0.998">
<path fill-rule="evenodd" clip-rule="evenodd" d="M39.3377 42.1386L39.7224 41.2115L39.3377 42.1386ZM39.7222 41.2116H13.2677H39.7222ZM13.2677 41.2116L13.6534 42.1388L13.2677 41.2116ZM10.9478 41.2116H13.2677H10.9478ZM13.2677 41.2116V24.5038V41.2116ZM39.7222 24.5039V41.2118V24.5039ZM42.0412 41.2116H39.7223H42.0412Z" fill="white"/>
<path d="M42.0412 41.2116H39.7223M39.3377 42.1386L39.7224 41.2115L39.3377 42.1386ZM39.7222 41.2116H13.2677H39.7222ZM13.2677 41.2116L13.6534 42.1388L13.2677 41.2116ZM10.9478 41.2116H13.2677H10.9478ZM13.2677 41.2116V24.5038V41.2116ZM39.7222 24.5039V41.2118V24.5039Z" stroke="black" stroke-width="0.71185" stroke-linecap="round" stroke-linejoin="round"/>
</g>
<path opacity="0.998" d="M13.2769 14.575V24.5288" stroke="black" stroke-width="0.842636"/>
<path opacity="0.998" d="M39.6831 14.575V24.5288" stroke="black" stroke-width="0.842636"/>
</g>
<g opacity="0.998">
<path opacity="0.998" d="M11.8755 14.4593V1.92815L12.8047 1H14.1161H38.8735H40.1849L41.1151 1.92815V14.4593H11.8755Z" fill="#4ED01A" stroke="black" stroke-width="0.711853" stroke-linecap="round" stroke-linejoin="round"/>
<g opacity="0.998">
<path opacity="0.998" d="M13.7317 14.4594V1.92819M38.8737 1.00008L39.2584 1.92824L38.8737 1.00008ZM39.2582 1.92808V14.4592V1.92808ZM13.7317 1.92808H39.2581H13.7317ZM39.2582 1.92808H41.115H39.2582ZM13.7317 1.92808H11.8759H13.7317ZM14.1162 1.00008L13.7315 1.92824L14.1162 1.00008Z" stroke="black" stroke-width="0.71185" stroke-linecap="round" stroke-linejoin="round"/>
</g>
<g opacity="0.998">
<g opacity="0.998">
<path opacity="0.998" d="M32.2161 11.9559C34.3045 11.9559 35.9975 10.2618 35.9975 8.17298C35.9975 6.08512 34.3045 4.39203 32.2161 4.39203C30.1257 4.39203 28.4316 6.08512 28.4316 8.17298C28.4316 10.2618 30.1257 11.9559 32.2161 11.9559Z" fill="white"/>
</g>
<g opacity="0.998">
<path opacity="0.998" d="M32.2386 10.8719C30.7454 10.8719 29.538 9.66253 29.538 8.17084C29.538 6.67916 30.7454 5.46873 32.2386 5.46873C33.7308 5.46873 34.9402 6.67916 34.9402 8.17084C34.9402 9.66253 33.7308 10.8719 32.2386 10.8719Z" fill="black"/>
</g>
<g opacity="0.998">
<path opacity="0.998" d="M20.7727 11.9559C22.862 11.9559 24.5541 10.2618 24.5541 8.17298C24.5541 6.08512 22.862 4.39203 20.7727 4.39203C18.6853 4.39203 16.9912 6.08512 16.9912 8.17298C16.9912 10.2618 18.6853 11.9559 20.7727 11.9559Z" fill="white"/>
</g>
<g opacity="0.998">
<path opacity="0.998" d="M20.7972 10.8719C19.304 10.8719 18.0966 9.66253 18.0966 8.17084C18.0966 6.67916 19.304 5.46873 20.7972 5.46873C22.2873 5.46873 23.4978 6.67916 23.4978 8.17084C23.4978 9.66253 22.2873 10.8719 20.7972 10.8719Z" fill="black"/>
</g>
</g>
</g>
<g opacity="0.998">
<g opacity="0.998">
<g opacity="0.998">
<path d="M43.1958 60.3758L43.2144 53.6467L40.8999 51.3188L35.7971 51.3047L33.4688 53.6197L33.4476 61.2775" fill="white"/>
<path d="M43.1958 60.3758L43.2144 53.6467L40.8999 51.3188L35.7971 51.3047L33.4688 53.6197L33.4476 61.2775" stroke="black" stroke-width="0.711403" stroke-linecap="round" stroke-linejoin="round"/>
</g>
</g>
<g opacity="0.998">
<path opacity="0.998" d="M33.4437 62.6707L35.7656 62.6771L49.2214 62.7143L52.0063 62.722L52.0102 61.3288L51.0856 60.3976L48.8441 60.3914L36.1558 60.3563L34.3783 60.3514L33.4476 61.2775L33.4437 62.6707Z" fill="white" stroke="black" stroke-width="0.711403"/>
</g>
<g opacity="0.998">
<g opacity="0.998">
<path fill-rule="evenodd" clip-rule="evenodd" d="M33.4475 61.2773L35.7694 61.2837L33.4475 61.2773ZM35.7694 61.2837L35.7656 62.677L35.7694 61.2837ZM49.2252 61.3209L35.7695 61.2837L49.2252 61.3209ZM49.2214 62.7143L49.2252 61.3211L49.2214 62.7143ZM36.1555 60.3563L35.7692 61.2839L36.1555 60.3563ZM48.8442 60.3914L49.2254 61.3211L48.8442 60.3914ZM49.2252 61.3209L52.0102 61.3286L49.2252 61.3209Z" fill="white"/>
<path d="M49.2252 61.3209L52.0102 61.3286M33.4475 61.2773L35.7694 61.2837L33.4475 61.2773ZM35.7694 61.2837L35.7656 62.677L35.7694 61.2837ZM49.2252 61.3209L35.7695 61.2837L49.2252 61.3209ZM49.2214 62.7143L49.2252 61.3211L49.2214 62.7143ZM36.1555 60.3563L35.7692 61.2839L36.1555 60.3563ZM48.8442 60.3914L49.2254 61.3211L48.8442 60.3914Z" stroke="black" stroke-width="0.711403" stroke-linecap="round" stroke-linejoin="round"/>
</g>
</g>
<g opacity="0.998">
<g opacity="0.998">
<path fill-rule="evenodd" clip-rule="evenodd" d="M43.2147 53.6464L42.2854 54.0285L43.2147 53.6464ZM42.2856 54.0284L40.512 52.246L42.2856 54.0284ZM40.512 52.2459L40.9003 51.3188L40.512 52.2459ZM40.512 52.2459L36.1781 52.2339L40.512 52.2459ZM36.1782 52.2339L35.797 51.3047L36.1782 52.2339ZM36.1782 52.2339L34.3958 54.0065L36.1782 52.2339ZM34.3958 54.0066L33.4687 53.6193L34.3958 54.0066ZM42.268 60.3732L42.2856 54.0283L42.268 60.3732ZM34.3958 54.0066L34.3783 60.3515L34.3958 54.0066Z" fill="white"/>
<path d="M34.3958 54.0066L34.3783 60.3515M43.2147 53.6464L42.2854 54.0285L43.2147 53.6464ZM42.2856 54.0284L40.512 52.246L42.2856 54.0284ZM40.512 52.2459L40.9003 51.3188L40.512 52.2459ZM40.512 52.2459L36.1781 52.2339L40.512 52.2459ZM36.1782 52.2339L35.797 51.3047L36.1782 52.2339ZM36.1782 52.2339L34.3958 54.0065L36.1782 52.2339ZM34.3958 54.0066L33.4687 53.6193L34.3958 54.0066ZM42.268 60.3732L42.2856 54.0283L42.268 60.3732Z" stroke="black" stroke-width="0.711403" stroke-linecap="round" stroke-linejoin="round"/>
</g>
</g>
</g>
<g opacity="0.998">
<g opacity="0.998">
<path d="M36.3862 20.3665H16.9589V23.9231H36.3862V20.3665Z" fill="white" stroke="black" stroke-width="1.42281" stroke-linecap="round" stroke-linejoin="round"/>
<path d="M33.4083 20.3665H19.9368V32.1312H33.4083V20.3665Z" fill="white" stroke="black" stroke-width="1.42281" stroke-linecap="round" stroke-linejoin="round"/>
<path d="M32.7231 21.1833H20.6221V29.2405H32.7231V21.1833Z" fill="#2D2D64"/>
</g>
</g>
</g>
</svg>
