<svg width="42" height="49" viewBox="0 0 42 49" fill="none" xmlns="http://www.w3.org/2000/svg">
<path d="M39.397 29.7786L33.9826 19.0602L29.8941 20.9387L35.7506 26.6294L33.4301 27.5134V30.9941H34.5351V28.5078L36.5241 27.5134L38.2368 29.3918L36.5241 31.3808L37.2976 32.2648L39.397 29.7786Z" fill="#FFCCAA" stroke="#4D4D4D" stroke-width="0.5"/>
<path d="M1.73704 8.50608L7.15148 19.2245L11.24 17.346L5.38353 11.6553L7.70399 10.7713V7.29059H6.599V9.77682L4.61002 10.7713L2.89728 8.89283L4.61002 6.90385L3.83653 6.01985L1.73704 8.50608Z" fill="#FFCCAA" stroke="#4D4D4D" stroke-width="0.5"/>
<path d="M12.0605 15.118H29.0336L29.9963 16.609V31.6328L29.0361 33.1212H12.0769L11.095 31.6092V16.612L12.0605 15.118Z" fill="black" stroke="#4D4D4D" stroke-width="0.5"/>
<path d="M12.0605 3.22546H29.0336L29.9963 4.71642V13.4736L29.0361 14.6728H12.0769L11.095 13.45V4.7194L12.0605 3.22546Z" fill="black" stroke="#4D4D4D" stroke-width="0.5"/>
<path d="M13.8658 6.9115H27.2275L27.9854 7.78163V12.3502L27.2294 13.2183H13.8788L13.1058 12.3316V7.78398L13.8658 6.9115Z" fill="#FFCCAA" stroke="#4D4D4D" stroke-width="0.5"/>
<path d="M14.0414 17.6229H27.403L28.1609 18.4931V23.0616L27.405 23.9298H14.0543L13.2813 23.043V18.4954L14.0414 17.6229Z" fill="#0A0A0A" stroke="#4D4D4D" stroke-width="0.5"/>
<path d="M30.0364 16.6475H10.9973" stroke="#4D4D4D" stroke-width="0.5"/>
<path d="M30.0364 13.3372H10.9973" stroke="#4D4D4D" stroke-width="0.5"/>
<path d="M28.8819 3.33557L28.8819 14.7149" stroke="#4D4D4D" stroke-width="0.5"/>
<path d="M12.4904 3.33557L12.4904 14.7149" stroke="#4D4D4D" stroke-width="0.5"/>
<path d="M30.0364 4.755H10.9973" stroke="black" stroke-width="0.5"/>
<path d="M30.0364 31.7025H10.9973" stroke="#4D4D4D" stroke-width="0.5"/>
<path d="M27.8528 14.9475L28.6441 16.9242L28.557 31.3783L27.8964 33.2601" stroke="#4D4D4D" stroke-width="0.5"/>
<path d="M13.2818 14.9475L12.4905 16.9242L12.5776 31.3783L13.2382 33.2601" stroke="#4D4D4D" stroke-width="0.5"/>
<path fill-rule="evenodd" clip-rule="evenodd" d="M16.5049 12.2288C15.1399 12.2288 14.0333 11.1215 14.0333 9.75621C14.0333 8.39158 15.1399 7.28528 16.5049 7.28528C17.8712 7.28528 18.9784 8.39158 18.9784 9.75621C18.9784 11.1215 17.8712 12.2288 16.5049 12.2288Z" fill="white"/>
<path fill-rule="evenodd" clip-rule="evenodd" d="M16.4904 11.52C17.4664 11.52 18.2556 10.7295 18.2556 9.75455C18.2556 8.77957 17.4664 7.9884 16.4904 7.9884C15.5151 7.9884 14.7246 8.77957 14.7246 9.75455C14.7246 10.7295 15.5151 11.52 16.4904 11.52Z" fill="black"/>
<path d="M24.5292 12.2287C23.164 12.2287 22.0573 11.122 22.0573 9.75682C22.0573 8.39162 23.164 7.28491 24.5292 7.28491C25.8944 7.28491 27.0011 8.39162 27.0011 9.75682C27.0011 11.122 25.8944 12.2287 24.5292 12.2287Z" fill="white"/>
<path fill-rule="evenodd" clip-rule="evenodd" d="M24.5128 11.5203C25.4888 11.5203 26.278 10.7298 26.278 9.75479C26.278 8.77981 25.4888 7.98865 24.5128 7.98865C23.5389 7.98865 22.7477 8.77981 22.7477 9.75479C22.7477 10.7298 23.5392 11.5203 24.5128 11.5203Z" fill="black"/>
<path fill-rule="evenodd" clip-rule="evenodd" d="M34.5185 45.7177L34.6458 43.477L33.9838 42.8149H32.838L29.5023 39.4283H24.2315V45.8705" fill="black"/>
<path d="M34.5185 45.7177L34.6458 43.477L33.9838 42.8149H32.838L29.5023 39.4283H24.2315V45.8705" stroke="#4D4D4D" stroke-width="0.5"/>
<path fill-rule="evenodd" clip-rule="evenodd" d="M6.93243 45.7177L6.80511 43.477L7.46714 42.8149H8.61298L11.9487 39.4283H17.2195V45.8705" fill="black"/>
<path d="M6.93243 45.7177L6.80511 43.477L7.46714 42.8149H8.61298L11.9487 39.4283H17.2195V45.8705" stroke="#4D4D4D" stroke-width="0.5"/>
<path d="M24.2056 45.7687H40.4511V47.8566H24.2056V45.7687Z" fill="black" stroke="#4D4D4D" stroke-width="0.5" stroke-linejoin="bevel"/>
<path d="M24.0797 46.3723H40.5779C40.821 46.3723 41.0182 46.5695 41.0182 46.8127C41.0182 47.0559 40.821 47.253 40.5779 47.253H24.0797C23.8365 47.253 23.6394 47.0559 23.6394 46.8127C23.6394 46.5695 23.8365 46.3723 24.0797 46.3723Z" fill="black" stroke="#4D4D4D" stroke-width="0.5" stroke-linejoin="bevel"/>
<path d="M1.15973 45.7687H17.4052V47.8566H1.15973V45.7687Z" fill="black" stroke="#4D4D4D" stroke-width="0.5" stroke-linejoin="bevel"/>
<path d="M1.03332 46.3723H17.5315C17.7746 46.3723 17.9718 46.5695 17.9718 46.8127C17.9718 47.0559 17.7746 47.253 17.5315 47.253H1.03332C0.790127 47.253 0.592972 47.0559 0.592972 46.8127C0.592972 46.5695 0.790127 46.3723 1.03332 46.3723Z" fill="black" stroke="#4D4D4D" stroke-width="0.5" stroke-linejoin="bevel"/>
<path fill-rule="evenodd" clip-rule="evenodd" d="M28.1553 33.0786L30.0997 42.4922L29.3077 43.8605H26.5707L21.7455 35.9383H20.7373H19.729L14.9038 43.8605H12.1668L11.3748 42.4922L13.3193 33.0786H20.7373H28.1553Z" fill="black" stroke="#4D4D4D" stroke-width="0.5"/>
<path d="M13.7871 43.0692C12.9118 43.0692 12.2022 42.3597 12.2022 41.4843C12.2022 40.609 12.9118 39.8994 13.7871 39.8994C14.6624 39.8994 15.372 40.609 15.372 41.4843C15.372 42.3597 14.6624 43.0692 13.7871 43.0692Z" fill="black" stroke="#4D4D4D" stroke-width="0.5" stroke-linejoin="bevel"/>
<path d="M27.6873 43.0692C26.812 43.0692 26.1024 42.3597 26.1024 41.4843C26.1024 40.609 26.812 39.8994 27.6873 39.8994C28.5626 39.8994 29.2722 40.609 29.2722 41.4843C29.2722 42.3597 28.5626 43.0692 27.6873 43.0692Z" fill="black" stroke="#4D4D4D" stroke-width="0.5" stroke-linejoin="bevel"/>
<path fill-rule="evenodd" clip-rule="evenodd" d="M30.0653 3.70575L34.62 0.905762L34.6313 3.18094L31.1888 5.58507L34.6454 4.02396L34.2349 7.22133L28.8818 6.88132L30.0653 3.70575Z" fill="#FF0000" stroke="black" stroke-width="0.5"/>
<path d="M30.3343 3.8855H10.1935V7.00884H30.3343V3.8855Z" fill="#FF0000" stroke="black" stroke-width="0.5" stroke-linejoin="bevel"/>
<path d="M33.7838 18.5438L30.0995 16.6475V21.6862H33.7838V18.5438Z" fill="black" stroke="#4D4D4D" stroke-width="0.5"/>
<path d="M7.35031 19.7408L11.0345 21.6371V16.5984H7.35031V19.7408Z" fill="black" stroke="#4D4D4D" stroke-width="0.5"/>
<rect x="13.8176" y="19.2246" width="0.641594" height="0.641594" rx="0.320797" fill="#FF0000"/>
<rect x="13.8176" y="19.2246" width="0.641594" height="0.641594" rx="0.320797" fill="#FF0000"/>
<rect x="16.4581" y="19.2245" width="0.641594" height="0.641594" rx="0.320797" fill="#FF0000"/>
<rect x="16.4581" y="19.2245" width="0.641594" height="0.641594" rx="0.320797" fill="#FF0000"/>
<rect x="17.3374" y="19.2245" width="0.641594" height="0.641594" rx="0.320797" fill="#FF0000"/>
<rect x="17.3374" y="19.2245" width="0.641594" height="0.641594" rx="0.320797" fill="#FF0000"/>
<rect x="21.7369" y="19.2245" width="0.641594" height="0.641594" rx="0.320797" fill="#FF0000"/>
<rect x="21.7369" y="19.2245" width="0.641594" height="0.641594" rx="0.320797" fill="#FF0000"/>
<rect x="22.6165" y="19.2245" width="0.641594" height="0.641594" rx="0.320797" fill="#FF0000"/>
<rect x="22.6165" y="19.2245" width="0.641594" height="0.641594" rx="0.320797" fill="#FF0000"/>
<rect x="23.4966" y="19.2245" width="0.641594" height="0.641594" rx="0.320797" fill="#FF0000"/>
<rect x="23.4966" y="19.2245" width="0.641594" height="0.641594" rx="0.320797" fill="#FF0000"/>
<rect x="18.217" y="19.2245" width="0.641594" height="0.641594" rx="0.320797" fill="#FF0000"/>
<rect x="18.217" y="19.2245" width="0.641594" height="0.641594" rx="0.320797" fill="#FF0000"/>
<rect x="20.8568" y="19.2245" width="0.641594" height="0.641594" rx="0.320797" fill="#FF0000"/>
<rect x="20.8568" y="19.2245" width="0.641594" height="0.641594" rx="0.320797" fill="#FF0000"/>
<rect x="24.3767" y="19.2245" width="0.641594" height="0.641594" rx="0.320797" fill="#FF0000"/>
<rect x="24.3767" y="19.2245" width="0.641594" height="0.641594" rx="0.320797" fill="#FF0000"/>
<rect x="25.2568" y="19.2245" width="0.641594" height="0.641594" rx="0.320797" fill="#FF0000"/>
<rect x="25.2568" y="19.2245" width="0.641594" height="0.641594" rx="0.320797" fill="#FF0000"/>
<rect x="26.1364" y="19.2245" width="0.641594" height="0.641594" rx="0.320797" fill="#FF0000"/>
<rect x="26.1364" y="19.2245" width="0.641594" height="0.641594" rx="0.320797" fill="#FF0000"/>
<rect x="13.8175" y="20.0807" width="0.641594" height="0.641594" rx="0.320797" fill="#FF0000"/>
<rect x="13.8175" y="20.0807" width="0.641594" height="0.641594" rx="0.320797" fill="#FF0000"/>
<rect x="14.6979" y="20.0807" width="0.641594" height="0.641594" rx="0.320797" fill="#FF0000"/>
<rect x="14.6979" y="20.0807" width="0.641594" height="0.641594" rx="0.320797" fill="#FF0000"/>
<rect x="16.4581" y="20.0807" width="0.641594" height="0.641594" rx="0.320797" fill="#FF0000"/>
<rect x="16.4581" y="20.0807" width="0.641594" height="0.641594" rx="0.320797" fill="#FF0000"/>
<rect x="17.3374" y="20.0804" width="0.641594" height="0.641594" rx="0.320797" fill="#FF0000"/>
<rect x="17.3374" y="20.0804" width="0.641594" height="0.641594" rx="0.320797" fill="#FF0000"/>
<rect x="23.4966" y="20.0804" width="0.641594" height="0.641594" rx="0.320797" fill="#FF0000"/>
<rect x="23.4966" y="20.0804" width="0.641594" height="0.641594" rx="0.320797" fill="#FF0000"/>
<rect x="18.217" y="20.0804" width="0.641594" height="0.641594" rx="0.320797" fill="#FF0000"/>
<rect x="18.217" y="20.0804" width="0.641594" height="0.641594" rx="0.320797" fill="#FF0000"/>
<rect x="19.0971" y="20.0804" width="0.641594" height="0.641594" rx="0.320797" fill="#FF0000"/>
<rect x="19.0971" y="20.0804" width="0.641594" height="0.641594" rx="0.320797" fill="#FF0000"/>
<rect x="20.8568" y="20.0804" width="0.641594" height="0.641594" rx="0.320797" fill="#FF0000"/>
<rect x="20.8568" y="20.0804" width="0.641594" height="0.641594" rx="0.320797" fill="#FF0000"/>
<rect x="24.3767" y="20.0804" width="0.641594" height="0.641594" rx="0.320797" fill="#FF0000"/>
<rect x="24.3767" y="20.0804" width="0.641594" height="0.641594" rx="0.320797" fill="#FF0000"/>
<rect x="13.8175" y="20.937" width="0.641594" height="0.641594" rx="0.320797" fill="#FF0000"/>
<rect x="13.8175" y="20.937" width="0.641594" height="0.641594" rx="0.320797" fill="#FF0000"/>
<rect x="16.4581" y="20.937" width="0.641594" height="0.641594" rx="0.320797" fill="#FF0000"/>
<rect x="16.4581" y="20.937" width="0.641594" height="0.641594" rx="0.320797" fill="#FF0000"/>
<rect x="15.5778" y="20.937" width="0.641594" height="0.641594" rx="0.320797" fill="#FF0000"/>
<rect x="15.5778" y="20.937" width="0.641594" height="0.641594" rx="0.320797" fill="#FF0000"/>
<rect x="16.4581" y="20.937" width="0.641594" height="0.641594" rx="0.320797" fill="#FF0000"/>
<rect x="16.4581" y="20.937" width="0.641594" height="0.641594" rx="0.320797" fill="#FF0000"/>
<rect x="17.3374" y="20.9365" width="0.641594" height="0.641594" rx="0.320797" fill="#FF0000"/>
<rect x="17.3374" y="20.9365" width="0.641594" height="0.641594" rx="0.320797" fill="#FF0000"/>
<rect x="23.4966" y="20.9365" width="0.641594" height="0.641594" rx="0.320797" fill="#FF0000"/>
<rect x="23.4966" y="20.9365" width="0.641594" height="0.641594" rx="0.320797" fill="#FF0000"/>
<rect x="18.217" y="20.9365" width="0.641594" height="0.641594" rx="0.320797" fill="#FF0000"/>
<rect x="18.217" y="20.9365" width="0.641594" height="0.641594" rx="0.320797" fill="#FF0000"/>
<rect x="19.9772" y="20.9365" width="0.641594" height="0.641594" rx="0.320797" fill="#FF0000"/>
<rect x="19.9772" y="20.9365" width="0.641594" height="0.641594" rx="0.320797" fill="#FF0000"/>
<rect x="20.8568" y="20.9365" width="0.641594" height="0.641594" rx="0.320797" fill="#FF0000"/>
<rect x="20.8568" y="20.9365" width="0.641594" height="0.641594" rx="0.320797" fill="#FF0000"/>
<rect x="24.3767" y="20.9365" width="0.641594" height="0.641594" rx="0.320797" fill="#FF0000"/>
<rect x="24.3767" y="20.9365" width="0.641594" height="0.641594" rx="0.320797" fill="#FF0000"/>
<rect x="25.2568" y="20.9365" width="0.641594" height="0.641594" rx="0.320797" fill="#FF0000"/>
<rect x="25.2568" y="20.9365" width="0.641594" height="0.641594" rx="0.320797" fill="#FF0000"/>
<rect x="26.1364" y="20.9365" width="0.641594" height="0.641594" rx="0.320797" fill="#FF0000"/>
<rect x="26.1364" y="20.9365" width="0.641594" height="0.641594" rx="0.320797" fill="#FF0000"/>
<rect x="13.8175" y="21.7932" width="0.641594" height="0.641594" rx="0.320797" fill="#FF0000"/>
<rect x="13.8175" y="21.7932" width="0.641594" height="0.641594" rx="0.320797" fill="#FF0000"/>
<rect x="16.4581" y="21.7932" width="0.641594" height="0.641594" rx="0.320797" fill="#FF0000"/>
<rect x="16.4581" y="21.7932" width="0.641594" height="0.641594" rx="0.320797" fill="#FF0000"/>
<rect x="17.3374" y="21.7925" width="0.641594" height="0.641594" rx="0.320797" fill="#FF0000"/>
<rect x="17.3374" y="21.7925" width="0.641594" height="0.641594" rx="0.320797" fill="#FF0000"/>
<rect x="22.6165" y="21.7925" width="0.641594" height="0.641594" rx="0.320797" fill="#FF0000"/>
<rect x="22.6165" y="21.7925" width="0.641594" height="0.641594" rx="0.320797" fill="#FF0000"/>
<rect x="23.4966" y="21.7925" width="0.641594" height="0.641594" rx="0.320797" fill="#FF0000"/>
<rect x="23.4966" y="21.7925" width="0.641594" height="0.641594" rx="0.320797" fill="#FF0000"/>
<rect x="18.217" y="21.7925" width="0.641594" height="0.641594" rx="0.320797" fill="#FF0000"/>
<rect x="18.217" y="21.7925" width="0.641594" height="0.641594" rx="0.320797" fill="#FF0000"/>
<rect x="20.8568" y="21.7925" width="0.641594" height="0.641594" rx="0.320797" fill="#FF0000"/>
<rect x="20.8568" y="21.7925" width="0.641594" height="0.641594" rx="0.320797" fill="#FF0000"/>
<rect x="24.3767" y="21.7925" width="0.641594" height="0.641594" rx="0.320797" fill="#FF0000"/>
<rect x="24.3767" y="21.7925" width="0.641594" height="0.641594" rx="0.320797" fill="#FF0000"/>
<rect x="27.016" y="19.2245" width="0.641594" height="0.641594" rx="0.320797" fill="#FF0000"/>
<rect x="27.016" y="19.2245" width="0.641594" height="0.641594" rx="0.320797" fill="#FF0000"/>
<rect x="27.016" y="20.0797" width="0.641594" height="0.641594" rx="0.320797" fill="#FF0000"/>
<rect x="27.016" y="20.0797" width="0.641594" height="0.641594" rx="0.320797" fill="#FF0000"/>
<rect x="27.016" y="20.9349" width="0.641594" height="0.641594" rx="0.320797" fill="#FF0000"/>
<rect x="27.016" y="20.9349" width="0.641594" height="0.641594" rx="0.320797" fill="#FF0000"/>
<rect x="27.016" y="21.79" width="0.641594" height="0.641594" rx="0.320797" fill="#FF0000"/>
<rect x="27.016" y="21.79" width="0.641594" height="0.641594" rx="0.320797" fill="#FF0000"/>
</svg>
