<svg width="52" height="54" viewBox="0 0 52 54" fill="none" xmlns="http://www.w3.org/2000/svg">
<g opacity="0.998">
<g opacity="0.998">
<g opacity="0.998">
<path d="M10.8625 47.5982V33.5124L11.7911 32.5848H12.1751H17.2045H17.5895L18.5171 33.5124V47.6152" fill="white"/>
<path d="M10.8625 47.5982V33.5124L11.7911 32.5848H12.1751H17.2045H17.5895L18.5171 33.5124V47.6152" stroke="black" stroke-width="0.711402" stroke-linecap="round" stroke-linejoin="round"/>
</g>
</g>
<g opacity="0.998">
<g opacity="0.998">
<path fill-rule="evenodd" clip-rule="evenodd" d="M17.5896 33.5121L17.2041 32.5845L17.5896 33.5121ZM17.5896 33.5121H11.7908H17.5896ZM11.7909 33.5121L12.1754 32.5845L11.7909 33.5121ZM17.5896 46.6869V33.5121V46.6869ZM18.5171 33.5121H17.5895H18.5171ZM11.7909 46.6712V33.512V46.6712ZM10.8625 33.5121H11.7911H10.8625Z" fill="white"/>
<path d="M10.8625 33.5121H11.7911M17.5896 33.5121L17.2041 32.5845L17.5896 33.5121ZM17.5896 33.5121H11.7908H17.5896ZM11.7909 33.5121L12.1754 32.5845L11.7909 33.5121ZM17.5896 46.6869V33.5121V46.6869ZM18.5171 33.5121H17.5895H18.5171ZM11.7909 46.6712V33.512V46.6712Z" stroke="black" stroke-width="0.711402" stroke-linecap="round" stroke-linejoin="round"/>
</g>
</g>
</g>
<g opacity="0.998">
<g opacity="0.998">
<g opacity="0.998">
<path d="M9.81128 50.5795V43.8546L12.1307 41.5346H17.2304L19.5508 43.8546V51.5076" fill="white"/>
<path d="M9.81128 50.5795V43.8546L12.1307 41.5346H17.2304L19.5508 43.8546V51.5076" stroke="black" stroke-width="0.711402" stroke-linecap="round" stroke-linejoin="round"/>
</g>
</g>
<g opacity="0.998">
<path opacity="0.998" d="M19.551 52.8999H17.2306H3.78323H1V51.5075L1.92657 50.5795H4.16671H16.8471H18.6234L19.551 51.5075V52.8999Z" fill="white" stroke="black" stroke-width="0.711402"/>
</g>
<g opacity="0.998">
<g opacity="0.998">
<path fill-rule="evenodd" clip-rule="evenodd" d="M19.5511 51.5073H17.2306H19.5511ZM17.2306 51.5073V52.8997V51.5073ZM3.78323 51.5073H17.2306H3.78323ZM3.78323 52.8999V51.5075V52.8999ZM16.8473 50.5795L17.2308 51.5075L16.8473 50.5795ZM4.16658 50.5795L3.78311 51.5075L4.16658 50.5795ZM3.78323 51.5073H1H3.78323Z" fill="white"/>
<path d="M3.78323 51.5073H1M19.5511 51.5073H17.2306H19.5511ZM17.2306 51.5073V52.8997V51.5073ZM3.78323 51.5073H17.2306H3.78323ZM3.78323 52.8999V51.5075V52.8999ZM16.8473 50.5795L17.2308 51.5075L16.8473 50.5795ZM4.16659 50.5795L3.78311 51.5075L4.16659 50.5795Z" stroke="black" stroke-width="0.711402" stroke-linecap="round" stroke-linejoin="round"/>
</g>
</g>
<g opacity="0.998">
<g opacity="0.998">
<path fill-rule="evenodd" clip-rule="evenodd" d="M9.81128 43.8543L10.7389 44.2388L9.81128 43.8543ZM10.7387 44.2386L12.516 42.4623L10.7387 44.2386ZM12.5161 42.4622L12.1306 41.5347L12.5161 42.4622ZM12.5161 42.4622H16.8473H12.5161ZM16.8472 42.4622L17.2307 41.5347L16.8472 42.4622ZM16.8472 42.4622L18.6235 44.2386L16.8472 42.4622ZM18.6235 44.2386L19.5511 43.8542L18.6235 44.2386ZM10.7387 50.5795V44.2385V50.5795ZM18.6235 44.2386V50.5796V44.2386Z" fill="white"/>
<path d="M18.6235 44.2386V50.5796M9.81128 43.8543L10.7389 44.2388L9.81128 43.8543ZM10.7387 44.2386L12.516 42.4623L10.7387 44.2386ZM12.5161 42.4622L12.1306 41.5347L12.5161 42.4622ZM12.5161 42.4622H16.8473H12.5161ZM16.8472 42.4622L17.2307 41.5347L16.8472 42.4622ZM16.8472 42.4622L18.6235 44.2386L16.8472 42.4622ZM18.6235 44.2386L19.5511 43.8542L18.6235 44.2386ZM10.7387 50.5795V44.2385V50.5795Z" stroke="black" stroke-width="0.711402" stroke-linecap="round" stroke-linejoin="round"/>
</g>
</g>
</g>
<g opacity="0.998">
<g opacity="0.998">
<g opacity="0.998">
<path d="M41.564 47.5982V33.5124L40.6354 32.5848H40.2514H35.222H34.837L33.9095 33.5124V47.6152" fill="white"/>
<path d="M41.564 47.5982V33.5124L40.6354 32.5848H40.2514H35.222H34.837L33.9095 33.5124V47.6152" stroke="black" stroke-width="0.711402" stroke-linecap="round" stroke-linejoin="round"/>
</g>
</g>
<g opacity="0.998">
<g opacity="0.998">
<path fill-rule="evenodd" clip-rule="evenodd" d="M34.8369 33.5121L35.2224 32.5845L34.8369 33.5121ZM34.8369 33.5121H40.6357H34.8369ZM40.6356 33.5121L40.2511 32.5845L40.6356 33.5121ZM34.8369 46.6869V33.5121V46.6869ZM33.9095 33.5121H34.837H33.9095ZM40.6356 46.6712V33.512V46.6712ZM41.564 33.5121H40.6354H41.564Z" fill="white"/>
<path d="M41.564 33.5121H40.6354M34.8369 33.5121L35.2224 32.5845L34.8369 33.5121ZM34.8369 33.5121H40.6357H34.8369ZM40.6356 33.5121L40.2511 32.5845L40.6356 33.5121ZM34.8369 46.6869V33.5121V46.6869ZM33.9095 33.5121H34.837H33.9095ZM40.6356 46.6712V33.512V46.6712Z" stroke="black" stroke-width="0.711402" stroke-linecap="round" stroke-linejoin="round"/>
</g>
</g>
</g>
<path opacity="0.998" d="M11.5703 14.4508V1.92756L12.4989 1H13.8094H38.5513H39.8619L40.7915 1.92756V14.4508H11.5703Z" fill="#4ED01A" stroke="black" stroke-width="0.711405" stroke-linecap="round" stroke-linejoin="round"/>
<path opacity="0.998" d="M12.9613 14.4509H39.3992H41.7167V31.1483L40.7911 32.0744H39.0147H13.3478H13.3467H11.5704L10.6428 31.1483V14.4509H12.9613Z" fill="white" stroke="black" stroke-width="0.711405"/>
<g opacity="0.998">
<g opacity="0.998">
<path fill-rule="evenodd" clip-rule="evenodd" d="M39.0149 32.0744L39.3993 31.1478L39.0149 32.0744ZM39.3992 31.148H12.9613H39.3992ZM12.9613 31.148L13.3468 32.0746L12.9613 31.148ZM10.6428 31.148H12.9613H10.6428ZM12.9613 31.148V14.4506V31.148ZM39.3992 14.4508V31.1482V14.4508ZM41.7167 31.148H39.3992H41.7167Z" fill="white"/>
<path d="M41.7167 31.148H39.3992M39.0149 32.0744L39.3993 31.1478L39.0149 32.0744ZM39.3992 31.148H12.9613H39.3992ZM12.9613 31.148L13.3468 32.0746L12.9613 31.148ZM10.6428 31.148H12.9613H10.6428ZM12.9613 31.148V14.4506V31.148ZM39.3992 14.4508V31.1482V14.4508Z" stroke="black" stroke-width="0.711402" stroke-linecap="round" stroke-linejoin="round"/>
</g>
</g>
<g opacity="0.998">
<path opacity="0.998" d="M13.425 14.4509V1.92765M38.5511 1.00012L38.9356 1.9277L38.5511 1.00012ZM38.9354 1.92754V14.4508V1.92754ZM13.425 1.92754H38.9353H13.425ZM38.9354 1.92754H40.7911H38.9354ZM13.425 1.92754H11.5703H13.425ZM13.8093 1.00012L13.4248 1.9277L13.8093 1.00012Z" stroke="black" stroke-width="0.711402" stroke-linecap="round" stroke-linejoin="round"/>
</g>
<g opacity="0.998">
<g opacity="0.998">
<path opacity="0.998" d="M31.8979 11.949C33.985 11.949 35.677 10.2559 35.677 8.1684C35.677 6.08186 33.985 4.38983 31.8979 4.38983C29.8089 4.38983 28.1158 6.08186 28.1158 8.1684C28.1158 10.2559 29.8089 11.949 31.8979 11.949Z" fill="white"/>
</g>
<g opacity="0.998">
<path opacity="0.998" d="M31.9203 10.8657C30.4281 10.8657 29.2214 9.65706 29.2214 8.16632C29.2214 6.67557 30.4281 5.46591 31.9203 5.46591C33.4116 5.46591 34.6202 6.67557 34.6202 8.16632C34.6202 9.65706 33.4116 10.8657 31.9203 10.8657Z" fill="black"/>
</g>
<g opacity="0.998">
<path opacity="0.998" d="M20.4617 11.949C22.5497 11.949 24.2408 10.2559 24.2408 8.1684C24.2408 6.08186 22.5497 4.38983 20.4617 4.38983C18.3756 4.38983 16.6826 6.08186 16.6826 8.1684C16.6826 10.2559 18.3756 11.949 20.4617 11.949Z" fill="white"/>
</g>
<g opacity="0.998">
<path opacity="0.998" d="M20.4861 10.8657C18.9939 10.8657 17.7872 9.65706 17.7872 8.16632C17.7872 6.67557 18.9939 5.46591 20.4861 5.46591C21.9754 5.46591 23.185 6.67557 23.185 8.16632C23.185 9.65706 21.9754 10.8657 20.4861 10.8657Z" fill="black"/>
</g>
</g>
<g opacity="0.998">
<g opacity="0.998">
<g opacity="0.998">
<path d="M42.615 50.5795V43.8546L40.2955 41.5346H35.1959L32.8754 43.8546V51.5076" fill="white"/>
<path d="M42.615 50.5795V43.8546L40.2955 41.5346H35.1959L32.8754 43.8546V51.5076" stroke="black" stroke-width="0.711402" stroke-linecap="round" stroke-linejoin="round"/>
</g>
</g>
<g opacity="0.998">
<path opacity="0.998" d="M32.8753 52.8999H35.1957H48.643H51.4263V51.5075L50.4997 50.5795H48.2596H35.5792H33.8028L32.8753 51.5075V52.8999Z" fill="white" stroke="black" stroke-width="0.711402"/>
</g>
<g opacity="0.998">
<g opacity="0.998">
<path fill-rule="evenodd" clip-rule="evenodd" d="M32.8752 51.5073H35.1956H32.8752ZM35.1956 51.5073V52.8997V51.5073ZM48.643 51.5073H35.1957H48.643ZM48.643 52.8999V51.5075V52.8999ZM35.579 50.5795L35.1955 51.5075L35.579 50.5795ZM48.2597 50.5795L48.6432 51.5075L48.2597 50.5795ZM48.643 51.5073H51.4263H48.643Z" fill="white"/>
<path d="M48.643 51.5073H51.4263M32.8752 51.5073H35.1956H32.8752ZM35.1956 51.5073V52.8997V51.5073ZM48.643 51.5073H35.1957H48.643ZM48.643 52.8999V51.5075V52.8999ZM35.579 50.5795L35.1955 51.5075L35.579 50.5795ZM48.2597 50.5795L48.6432 51.5075L48.2597 50.5795Z" stroke="black" stroke-width="0.711402" stroke-linecap="round" stroke-linejoin="round"/>
</g>
</g>
<g opacity="0.998">
<g opacity="0.998">
<path fill-rule="evenodd" clip-rule="evenodd" d="M42.615 43.8543L41.6874 44.2388L42.615 43.8543ZM41.6876 44.2386L39.9102 42.4623L41.6876 44.2386ZM39.9102 42.4622L40.2957 41.5347L39.9102 42.4622ZM39.9102 42.4622H35.579H39.9102ZM35.5791 42.4622L35.1956 41.5347L35.5791 42.4622ZM35.5791 42.4622L33.8027 44.2386L35.5791 42.4622ZM33.8027 44.2386L32.8751 43.8542L33.8027 44.2386ZM41.6876 50.5795V44.2385V50.5795ZM33.8027 44.2386V50.5796V44.2386Z" fill="white"/>
<path d="M33.8027 44.2386V50.5796M42.615 43.8543L41.6874 44.2388L42.615 43.8543ZM41.6876 44.2386L39.9102 42.4623L41.6876 44.2386ZM39.9102 42.4622L40.2957 41.5347L39.9102 42.4622ZM39.9102 42.4622H35.579H39.9102ZM35.5791 42.4622L35.1956 41.5347L35.5791 42.4622ZM35.5791 42.4622L33.8027 44.2386L35.5791 42.4622ZM33.8027 44.2386L32.8751 43.8542L33.8027 44.2386ZM41.6876 50.5795V44.2385V50.5795Z" stroke="black" stroke-width="0.711402" stroke-linecap="round" stroke-linejoin="round"/>
</g>
</g>
</g>
</svg>
