<svg width="80" height="53" viewBox="0 0 80 53" fill="none" xmlns="http://www.w3.org/2000/svg">
<path d="M24.4641 30.7509H26.5483V14.1593H24.4641V30.7509Z" fill="white" stroke="black" stroke-width="0.711405"/>
<path d="M14.5899 19.1833H8.79907V31.6386H14.5899V19.1833Z" fill="#231F20" stroke="black" stroke-width="0.711405"/>
<path d="M9.24815 16.8826C8.86005 16.8826 8.54502 17.1976 8.54502 17.5857C8.54502 17.9652 8.35647 18.2999 8.07129 18.5065H14.5896V16.8826H9.24815Z" fill="white" stroke="black" stroke-width="0.711404"/>
<path d="M1 40.0808V47.1004C1 49.7141 3.11882 51.8337 5.73338 51.8337H7.45075C10.0645 51.8337 12.1841 49.7141 12.1841 47.1004V43.5148L3.40636 40.0808H1Z" fill="white" stroke="black" stroke-width="0.711404"/>
<path d="M22.4886 31.6845H22.2058V34.16H22.4886C22.9309 34.16 23.2908 33.801 23.2908 33.3587V32.4867C23.2908 32.0436 22.9309 31.6845 22.4886 31.6845Z" fill="white" stroke="black" stroke-width="0.711404"/>
<path d="M13.1901 32.4463C13.4557 32.202 13.7157 31.949 13.9592 31.6842H9.12845C8.68614 31.6842 8.32711 31.3252 8.32711 30.8829V26.793C7.63105 27.6689 6.73073 28.8293 5.85083 29.9739V31.6842V33.3584C5.85083 33.8015 6.20986 34.1605 6.65295 34.1605H8.32711H11.6055C12.2238 33.4393 12.7879 32.8155 13.1901 32.4463Z" fill="white" stroke="black" stroke-width="0.711404"/>
<path d="M14.5341 31.6845C14.2136 32.0679 13.8561 32.4277 13.4853 32.7687C13.1514 33.0751 12.6926 33.574 12.1843 34.16H21.8915V31.6845H14.5341Z" fill="white" stroke="black" stroke-width="0.711404"/>
<path d="M8.29932 26.1286C8.21133 25.7821 7.89944 25.5244 7.52548 25.5244H6.65265C6.21035 25.5244 5.85132 25.8834 5.85132 26.3265V29.2577C6.75793 28.0824 7.65511 26.9307 8.29932 26.1286Z" fill="white" stroke="black" stroke-width="0.711404"/>
<path d="M15.2886 16.8827V26.45C15.6759 27.1343 15.8998 27.9239 15.8998 28.7645C15.8998 29.5666 15.6586 30.2572 15.2886 30.8786V31.4655H17.1521V16.8827H15.2886Z" fill="white" stroke="black" stroke-width="0.711404"/>
<path d="M15.2886 27.5632V29.8501C15.4009 29.5107 15.4638 29.1509 15.4638 28.7644C15.4638 28.3472 15.4009 27.945 15.2886 27.5632Z" fill="white" stroke="black" stroke-width="0.711404"/>
<path d="M18.2925 30.7509H19.0561V21.8718H18.2925V30.7509Z" fill="white" stroke="black" stroke-width="0.711405"/>
<path d="M19.3489 30.7509H26.5483V21.8718H19.3489V30.7509Z" fill="white" stroke="black" stroke-width="0.711405"/>
<path d="M9.65137 16.6637H21.8921V14.1882H9.65137V16.6637Z" fill="white" stroke="black" stroke-width="0.711405"/>
<path d="M8.32681 14.1883H6.77207C6.26377 14.1883 5.85132 14.6007 5.85132 15.1098V16.6638V17.5853C5.85132 18.0944 6.26377 18.5068 6.77207 18.5068H7.40607C7.91515 18.5068 8.32681 18.0944 8.32681 17.5853C8.32681 17.077 8.73927 16.6638 9.24835 16.6638H9.33634V14.1883H8.32681Z" fill="white" stroke="black" stroke-width="0.711404"/>
<path d="M22.369 14.1884H22.2056V16.6639H22.369C22.8773 16.6639 23.2905 16.2523 23.2905 15.7432V15.11C23.2905 14.6009 22.8773 14.1884 22.369 14.1884Z" fill="white" stroke="black" stroke-width="0.711404"/>
<path d="M24.0833 17.2026H18.2925V21.6053H24.0833V17.2026Z" fill="#231F20" stroke="black" stroke-width="0.711405"/>
<path d="M15.8733 28.2697C15.4373 25.8224 13.1001 24.1923 10.6521 24.6283C9.32752 24.864 8.21115 25.6402 7.59836 26.7267C6.31073 29.0074 2.74243 36.0096 2.74243 36.0096L3.43457 39.8906L7.97939 41.4108L9.99608 40.1954L14.4152 32.4335C14.4152 32.4335 16.1593 29.8739 15.8733 28.2697Z" fill="white"/>
<path d="M15.8733 28.2697C15.4373 25.8224 13.1001 24.1923 10.6521 24.6283C9.32752 24.864 8.21115 25.6402 7.59836 26.7267C6.31073 29.0074 2.74243 36.0096 2.74243 36.0096L3.43457 39.8906L7.97939 41.4108L9.99608 40.1954L14.4152 32.4335C14.4152 32.4335 16.1593 29.8739 15.8733 28.2697" stroke="black" stroke-width="0.711404"/>
<path fill-rule="evenodd" clip-rule="evenodd" d="M15.8733 28.2697C15.4373 25.8224 13.1001 24.1923 10.6521 24.6283C9.32752 24.864 8.21115 25.6402 7.59836 26.7267C6.31073 29.0074 2.74243 36.0096 2.74243 36.0096L3.43457 39.8906L7.97939 41.4108L9.99608 40.1954L14.4152 32.4335C14.4152 32.4335 16.1593 29.8739 15.8733 28.2697V28.2697Z" stroke="black" stroke-width="0.711404" stroke-miterlimit="10"/>
<path d="M65.4431 19.1833H71.234V31.6386H65.4431V19.1833Z" fill="#231F20" stroke="black" stroke-width="0.711405"/>
<path d="M70.7846 16.8826C71.1727 16.8826 71.4877 17.1976 71.4877 17.5857C71.4877 17.9652 71.6762 18.2999 71.9614 18.5065H65.4431V16.8826H70.7846Z" fill="white" stroke="black" stroke-width="0.711404"/>
<path d="M79.0328 40.0808V47.1004C79.0328 49.7141 76.9139 51.8337 74.2994 51.8337H72.582C69.9682 51.8337 67.8486 49.7141 67.8486 47.1004V43.5148L76.6264 40.0808H79.0328Z" fill="white" stroke="black" stroke-width="0.711404"/>
<path d="M57.5441 31.6845H57.8269V34.16H57.5441C57.1018 34.16 56.7419 33.801 56.7419 33.3587V32.4867C56.7419 32.0436 57.1018 31.6845 57.5441 31.6845Z" fill="white" stroke="black" stroke-width="0.711404"/>
<path d="M66.8429 32.4463C66.5773 32.202 66.3173 31.949 66.0737 31.6842H70.9045C71.3468 31.6842 71.7059 31.3252 71.7059 30.8829V26.793C72.4019 27.6689 73.3022 28.8293 74.1821 29.9739V31.6842V33.3584C74.1821 33.8015 73.8231 34.1605 73.38 34.1605H71.7059H68.4275C67.8092 33.4393 67.2451 32.8155 66.8429 32.4463Z" fill="white" stroke="black" stroke-width="0.711404"/>
<path d="M65.4985 31.6845C65.819 32.0679 66.1765 32.4277 66.5473 32.7687C66.8812 33.0751 67.34 33.574 67.8483 34.16H58.1411V31.6845H65.4985Z" fill="white" stroke="black" stroke-width="0.711404"/>
<path d="M71.7336 26.1286C71.8216 25.7821 72.1335 25.5244 72.5075 25.5244H73.3803C73.8226 25.5244 74.1816 25.8834 74.1816 26.3265V29.2577C73.275 28.0824 72.3779 26.9307 71.7336 26.1286Z" fill="white" stroke="black" stroke-width="0.711404"/>
<path d="M64.7441 16.8827V26.45C64.3568 27.1343 64.1329 27.9239 64.1329 28.7645C64.1329 29.5666 64.3741 30.2572 64.7441 30.8786V31.4655H62.8806V16.8827H64.7441Z" fill="white" stroke="black" stroke-width="0.711404"/>
<path d="M64.7443 27.5632V29.8501C64.6319 29.5107 64.5691 29.1509 64.5691 28.7644C64.5691 28.3472 64.6319 27.945 64.7443 27.5632Z" fill="white"/>
<path d="M64.7443 27.5632V29.8501C64.6319 29.5107 64.5691 29.1509 64.5691 28.7644C64.5691 28.3472 64.6319 27.945 64.7443 27.5632" stroke="black" stroke-width="0.711404"/>
<path d="M61.7404 30.7509H60.9768V21.8718H61.7404V30.7509Z" fill="white" stroke="black" stroke-width="0.711405"/>
<path d="M60.6838 30.7509H53.4844V21.8718H60.6838V30.7509Z" fill="white" stroke="black" stroke-width="0.711405"/>
<path d="M70.3817 16.6637H58.1409V14.1882H70.3817V16.6637Z" fill="white" stroke="black" stroke-width="0.711405"/>
<path d="M71.7058 14.1883H73.2606C73.7689 14.1883 74.1813 14.6007 74.1813 15.1098V16.6638V17.5853C74.1813 18.0944 73.7689 18.5068 73.2606 18.5068H72.6266C72.1175 18.5068 71.7058 18.0944 71.7058 17.5853C71.7058 17.077 71.2934 16.6638 70.7843 16.6638H70.6963V14.1883H71.7058Z" fill="white" stroke="black" stroke-width="0.711404"/>
<path d="M57.664 14.1884H57.8274V16.6639H57.664C57.1557 16.6639 56.7424 16.2523 56.7424 15.7432V15.11C56.7424 14.6009 57.1557 14.1884 57.664 14.1884Z" fill="white" stroke="black" stroke-width="0.711404"/>
<path d="M55.9497 17.2026H61.7405V21.6053H55.9497V17.2026Z" fill="#231F20" stroke="black" stroke-width="0.711405"/>
<path d="M64.1596 28.2697C64.5956 25.8224 66.9329 24.1923 69.3809 24.6283C70.7054 24.864 71.8218 25.6402 72.4346 26.7267C73.7222 29.0074 77.2905 36.0096 77.2905 36.0096L76.5984 39.8906L72.0535 41.4108L70.0369 40.1954L65.6177 32.4335C65.6177 32.4335 63.8736 29.8739 64.1596 28.2697Z" fill="white"/>
<path d="M64.1596 28.2697C64.5956 25.8224 66.9329 24.1923 69.3809 24.6283C70.7054 24.864 71.8218 25.6402 72.4346 26.7267C73.7222 29.0074 77.2905 36.0096 77.2905 36.0096L76.5984 39.8906L72.0535 41.4108L70.0369 40.1954L65.6177 32.4335C65.6177 32.4335 63.8736 29.8739 64.1596 28.2697" stroke="black" stroke-width="0.711404"/>
<path fill-rule="evenodd" clip-rule="evenodd" d="M64.1596 28.2697C64.5956 25.8224 66.9329 24.1923 69.3809 24.6283C70.7054 24.864 71.8218 25.6402 72.4346 26.7267C73.7222 29.0074 77.2905 36.0096 77.2905 36.0096L76.5984 39.8906L72.0535 41.4108L70.0369 40.1954L65.6177 32.4335C65.6177 32.4335 63.8736 29.8739 64.1596 28.2697V28.2697Z" stroke="black" stroke-width="0.711404" stroke-miterlimit="10"/>
<path fill-rule="evenodd" clip-rule="evenodd" d="M55.4784 14.3861V31.003L54.5573 31.9246H52.7895H27.2463H27.2453H25.477L24.5544 31.003V14.3861H26.8617H53.1722H55.4784Z" fill="white" stroke="black" stroke-width="0.711405" stroke-linecap="round" stroke-linejoin="round"/>
<path fill-rule="evenodd" clip-rule="evenodd" d="M53.6327 1L54.5573 1.9231V14.386H25.4771V1.9231L26.4012 1H27.7054H52.328H53.6327Z" fill="#4ED01A" stroke="black" stroke-width="0.711405" stroke-miterlimit="10"/>
<path d="M55.4784 31.0029H53.1721" stroke="black" stroke-width="0.711405" stroke-linecap="round" stroke-linejoin="round"/>
<path d="M53.1721 14.3861V31.003" stroke="black" stroke-width="0.711405" stroke-linecap="round" stroke-linejoin="round"/>
<path d="M26.8616 31.003V14.3861" stroke="black" stroke-width="0.711405" stroke-linecap="round" stroke-linejoin="round"/>
<path d="M24.5544 31.0029H26.8617" stroke="black" stroke-width="0.711405" stroke-linecap="round" stroke-linejoin="round"/>
<path d="M26.8616 31.0029L27.2452 31.9246" stroke="black" stroke-width="0.711405" stroke-linecap="round" stroke-linejoin="round"/>
<path d="M53.172 31.0029H26.8616" stroke="black" stroke-width="0.711405" stroke-linecap="round" stroke-linejoin="round"/>
<path d="M52.7898 31.9246L53.1724 31.0029" stroke="black" stroke-width="0.711405" stroke-linecap="round" stroke-linejoin="round"/>
<path d="M27.3233 1.9231H25.4771" stroke="black" stroke-width="0.711405" stroke-linecap="round" stroke-linejoin="round"/>
<path d="M27.3232 14.386V1.9231" stroke="black" stroke-width="0.711405" stroke-linecap="round" stroke-linejoin="round"/>
<path d="M52.7109 1.9231V14.386" stroke="black" stroke-width="0.711405" stroke-linecap="round" stroke-linejoin="round"/>
<path d="M52.7109 1.9231H54.5576" stroke="black" stroke-width="0.711405" stroke-linecap="round" stroke-linejoin="round"/>
<path d="M27.7054 1L27.3232 1.9231" stroke="black" stroke-width="0.711405" stroke-linecap="round" stroke-linejoin="round"/>
<path d="M27.3232 1.9231H52.7106" stroke="black" stroke-width="0.711405" stroke-linecap="round" stroke-linejoin="round"/>
<path d="M52.3281 1L52.7107 1.9231" stroke="black" stroke-width="0.711405" stroke-linecap="round" stroke-linejoin="round"/>
<path fill-rule="evenodd" clip-rule="evenodd" d="M46.1103 11.8965C48.1873 11.8965 49.8711 10.2116 49.8711 8.13412C49.8711 6.05764 48.1873 4.37427 46.1103 4.37427C44.0313 4.37427 42.3464 6.05764 42.3464 8.13412C42.3464 10.2116 44.0313 11.8965 46.1103 11.8965Z" fill="white"/>
<path fill-rule="evenodd" clip-rule="evenodd" d="M46.1329 10.818C44.6478 10.818 43.447 9.61517 43.447 8.13161C43.447 6.64805 44.6478 5.44421 46.1329 5.44421C47.617 5.44421 48.8198 6.64805 48.8198 8.13161C48.8198 9.61517 47.617 10.818 46.1329 10.818Z" fill="black"/>
<path d="M33.9008 11.8965C35.9781 11.8965 37.6621 10.2125 37.6621 8.13513C37.6621 6.05779 35.9781 4.37378 33.9008 4.37378C31.8234 4.37378 30.1394 6.05779 30.1394 8.13513C30.1394 10.2125 31.8234 11.8965 33.9008 11.8965Z" fill="white"/>
<path fill-rule="evenodd" clip-rule="evenodd" d="M33.9251 10.818C32.4401 10.818 31.2393 9.61517 31.2393 8.13161C31.2393 6.64805 32.4401 5.44421 33.9251 5.44421C35.4072 5.44421 36.611 6.64805 36.611 8.13161C36.611 9.61517 35.4067 10.818 33.9251 10.818Z" fill="black"/>
</svg>
