<svg width="233" height="268" viewBox="0 0 233 268" fill="none" xmlns="http://www.w3.org/2000/svg">
<path d="M106.142 9.90015H134.495V24.6782H106.142V9.90015Z" fill="#FF0000" stroke="black" stroke-width="4.03883" stroke-linejoin="bevel"/>
<path d="M51.9378 22.3459H188.133L195.858 34.3097V154.863L188.153 166.806H52.0697L44.1906 154.674V34.3336L51.9378 22.3459Z" fill="black" stroke="#4D4D4D" stroke-width="4.03883"/>
<path d="M196.186 34.6182H43.4125" stroke="black" stroke-width="4.03883"/>
<path d="M196.186 155.422H43.4125" stroke="black" stroke-width="4.03883"/>
<path d="M178.658 20.9773L185.008 36.8388L184.308 152.821L179.008 167.921" stroke="black" stroke-width="4.03883"/>
<path d="M61.7368 20.9773L55.3872 36.8388L56.0863 152.821L61.3872 167.921" stroke="black" stroke-width="4.03883"/>
<path d="M177.961 49.6948H61.6343V99.6141H177.961V49.6948Z" fill="#FFCCAA" stroke="black" stroke-width="3.99852" stroke-linecap="round" stroke-linejoin="bevel"/>
<path fill-rule="evenodd" clip-rule="evenodd" d="M87.6053 94.5885C76.6526 94.5885 67.7729 85.7035 67.7729 74.7481C67.7729 63.798 76.6526 54.9209 87.6053 54.9209C98.5687 54.9209 107.454 63.798 107.454 74.7481C107.454 85.7035 98.5687 94.5885 87.6053 94.5885Z" fill="white"/>
<path fill-rule="evenodd" clip-rule="evenodd" d="M87.488 88.9013C95.3193 88.9013 101.652 82.5582 101.652 74.7348C101.652 66.9114 95.3193 60.563 87.488 60.563C79.662 60.563 73.319 66.9114 73.319 74.7348C73.319 82.5582 79.662 88.9013 87.488 88.9013Z" fill="black"/>
<path d="M151.992 94.589C141.037 94.589 132.157 85.7086 132.157 74.754C132.157 63.7993 141.037 54.9189 151.992 54.9189C162.946 54.9189 171.827 63.7993 171.827 74.754C171.827 85.7086 162.946 94.589 151.992 94.589Z" fill="white"/>
<path fill-rule="evenodd" clip-rule="evenodd" d="M151.861 88.9013C159.693 88.9013 166.025 82.5582 166.025 74.7348C166.025 66.9114 159.693 60.563 151.861 60.563C144.046 60.563 137.697 66.9114 137.697 74.7348C137.697 82.5582 144.048 88.9013 151.861 88.9013Z" fill="black"/>
<path fill-rule="evenodd" clip-rule="evenodd" d="M212.839 177.805L194.858 176.783L189.546 182.096L189.546 191.29L162.372 218.056L162.372 260.35L214.065 260.35" fill="black"/>
<path d="M212.839 177.805L194.858 176.783L189.546 182.096L189.546 191.29L162.372 218.056L162.372 260.35L214.065 260.35" stroke="#4D4D4D" stroke-width="4.03883"/>
<path fill-rule="evenodd" clip-rule="evenodd" d="M29.7858 176.523L47.766 175.501L53.0783 180.813L53.0783 190.008L80.2529 216.774L80.2529 259.068L28.5598 259.068" fill="black"/>
<path d="M29.7858 176.523L47.766 175.501L53.0783 180.813L53.0783 190.008L80.2529 216.774L80.2529 259.068L28.5598 259.068" stroke="#4D4D4D" stroke-width="4.03883"/>
<path d="M213.248 260.555L213.248 130.199L230.002 130.199L230.002 260.555L213.248 260.555Z" fill="black" stroke="#4D4D4D" stroke-width="4.03883" stroke-linejoin="bevel"/>
<path d="M218.091 261.568L218.091 129.184C218.091 127.233 219.673 125.651 221.625 125.651C223.576 125.651 225.158 127.233 225.158 129.184L225.158 261.568C225.158 263.52 223.576 265.102 221.625 265.102C219.673 265.102 218.091 263.52 218.091 261.568Z" fill="black" stroke="#4D4D4D" stroke-width="4.03883" stroke-linejoin="bevel"/>
<path d="M29.377 130.198L29.377 260.555L12.6228 260.555L12.6228 130.198L29.377 130.198Z" fill="black" stroke="#4D4D4D" stroke-width="4.03883" stroke-linejoin="bevel"/>
<path d="M24.5342 129.185L24.5342 261.569C24.5342 263.521 22.9522 265.103 21.0007 265.103C19.0493 265.103 17.4673 263.521 17.4673 261.569L17.4673 129.185C17.4673 127.234 19.0493 125.652 21.0007 125.652C22.9522 125.652 24.5342 127.234 24.5342 129.185Z" fill="black" stroke="#4D4D4D" stroke-width="4.03883" stroke-linejoin="bevel"/>
<path fill-rule="evenodd" clip-rule="evenodd" d="M181.088 166.464L196.69 242.001L190.335 252.98H168.373L129.655 189.411H121.564H113.474L74.7555 252.98H52.7937L46.4381 242.001L62.0409 166.464H121.564H181.088Z" fill="black" stroke="#4D4D4D" stroke-width="4.03883"/>
<path d="M65.7935 246.623C58.7718 246.623 53.0797 240.931 53.0797 233.909C53.0797 226.888 58.7718 221.196 65.7935 221.196C72.8152 221.196 78.5073 226.888 78.5073 233.909C78.5073 240.931 72.8152 246.623 65.7935 246.623Z" fill="black" stroke="#4D4D4D" stroke-width="4.03883" stroke-linejoin="bevel"/>
<path d="M177.331 246.623C170.309 246.623 164.617 240.931 164.617 233.909C164.617 226.888 170.309 221.196 177.331 221.196C184.352 221.196 190.044 226.888 190.044 233.909C190.044 240.931 184.352 246.623 177.331 246.623Z" fill="black" stroke="#4D4D4D" stroke-width="4.03883" stroke-linejoin="bevel"/>
<path fill-rule="evenodd" clip-rule="evenodd" d="M40.0884 26.199L3.54083 3.73145L3.44957 21.9879L31.0734 41.279L3.33646 28.7524L6.63082 54.4087L49.585 51.6804L40.0884 26.199Z" fill="#FF0000" stroke="black" stroke-width="4.03883"/>
<path d="M37.933 27.6331H199.546V52.6953H37.933V27.6331Z" fill="#FF0000" stroke="black" stroke-width="3.58215" stroke-linejoin="bevel"/>
</svg>
