<svg width="59" height="51" viewBox="0 0 59 51" fill="none" xmlns="http://www.w3.org/2000/svg">
<path d="M26.6195 2.08655H31.6135V4.68957H26.6195V2.08655Z" fill="#FF0000" stroke="black" stroke-width="0.711404" stroke-linejoin="bevel"/>
<path d="M17.0721 4.27856H41.0616L42.4224 6.38586V27.6202L41.0651 29.7239H17.0953L15.7075 27.5869V6.39007L17.0721 4.27856Z" fill="black" stroke="#4D4D4D" stroke-width="0.711404"/>
<path d="M42.4795 6.44043H15.5699" stroke="black" stroke-width="0.711404"/>
<path d="M42.4795 27.719H15.5699" stroke="black" stroke-width="0.711404"/>
<path d="M39.3923 4.03772L40.5107 6.83157L40.3876 27.2608L39.4539 29.9205" stroke="black" stroke-width="0.711404"/>
<path d="M18.7979 4.03772L17.6794 6.83157L17.8026 27.2608L18.7363 29.9205" stroke="black" stroke-width="0.711404"/>
<path d="M39.2698 9.09619H18.7798V17.889H39.2698V9.09619Z" fill="#FFCCAA" stroke="black" stroke-width="0.704304" stroke-linecap="round" stroke-linejoin="bevel"/>
<path fill-rule="evenodd" clip-rule="evenodd" d="M23.354 17.0038C21.4248 17.0038 19.8607 15.4388 19.8607 13.5091C19.8607 11.5803 21.4248 10.0167 23.354 10.0167C25.2851 10.0167 26.8501 11.5803 26.8501 13.5091C26.8501 15.4388 25.2851 17.0038 23.354 17.0038Z" fill="white"/>
<path fill-rule="evenodd" clip-rule="evenodd" d="M23.3328 16.002C24.7122 16.002 25.8276 14.8848 25.8276 13.5067C25.8276 12.1287 24.7122 11.0105 23.3328 11.0105C21.9543 11.0105 20.8371 12.1287 20.8371 13.5067C20.8371 14.8848 21.9543 16.002 23.3328 16.002Z" fill="black"/>
<path d="M34.695 17.0036C32.7654 17.0036 31.2012 15.4394 31.2012 13.5099C31.2012 11.5803 32.7654 10.0161 34.695 10.0161C36.6245 10.0161 38.1887 11.5803 38.1887 13.5099C38.1887 15.4394 36.6245 17.0036 34.695 17.0036Z" fill="white"/>
<path fill-rule="evenodd" clip-rule="evenodd" d="M34.6724 16.002C36.0518 16.002 37.1672 14.8848 37.1672 13.5067C37.1672 12.1287 36.0518 11.0105 34.6724 11.0105C33.2958 11.0105 32.1776 12.1287 32.1776 13.5067C32.1776 14.8848 33.2963 16.002 34.6724 16.002Z" fill="black"/>
<path fill-rule="evenodd" clip-rule="evenodd" d="M48.8135 47.5279L48.9934 44.3608L48.0577 43.4251H46.4382L41.7236 38.6385H34.2739V47.7438" fill="black"/>
<path d="M48.8135 47.5279L48.9934 44.3608L48.0577 43.4251H46.4382L41.7236 38.6385H34.2739V47.7438" stroke="#4D4D4D" stroke-width="0.711404"/>
<path fill-rule="evenodd" clip-rule="evenodd" d="M9.8237 47.5279L9.64374 44.3608L10.5795 43.4251H12.199L16.9135 38.6385H24.3633V47.7438" fill="black"/>
<path d="M9.8237 47.5279L9.64374 44.3608L10.5795 43.4251H12.199L16.9135 38.6385H24.3633V47.7438" stroke="#4D4D4D" stroke-width="0.711404"/>
<path d="M34.2379 47.5999H57.199V50.5509H34.2379V47.5999Z" fill="black" stroke="#4D4D4D" stroke-width="0.711404" stroke-linejoin="bevel"/>
<path d="M34.0594 48.453H57.3776C57.7213 48.453 58 48.7317 58 49.0754C58 49.4191 57.7213 49.6978 57.3776 49.6978H34.0594C33.7157 49.6978 33.437 49.4191 33.437 49.0754C33.437 48.7317 33.7157 48.453 34.0594 48.453Z" fill="black" stroke="#4D4D4D" stroke-width="0.711404" stroke-linejoin="bevel"/>
<path d="M1.66443 47.5999H24.6255V50.5509H1.66443V47.5999Z" fill="black" stroke="#4D4D4D" stroke-width="0.711404" stroke-linejoin="bevel"/>
<path d="M1.48592 48.453H24.8041C25.1479 48.453 25.4265 48.7317 25.4265 49.0754C25.4265 49.4191 25.1479 49.6978 24.8041 49.6978H1.48592C1.14219 49.6978 0.863535 49.4191 0.863535 49.0754C0.863535 48.7317 1.14219 48.453 1.48592 48.453Z" fill="black" stroke="#4D4D4D" stroke-width="0.711404" stroke-linejoin="bevel"/>
<path fill-rule="evenodd" clip-rule="evenodd" d="M39.8203 29.6638L42.5686 42.9688L41.4492 44.9027H37.5808L30.7609 33.7057H29.3358H27.9107L21.0909 44.9027H17.2225L16.103 42.9688L18.8513 29.6638H29.3358H39.8203Z" fill="black" stroke="#4D4D4D" stroke-width="0.711404"/>
<path d="M19.5128 43.7832C18.276 43.7832 17.2733 42.7806 17.2733 41.5437C17.2733 40.3069 18.276 39.3043 19.5128 39.3043C20.7496 39.3043 21.7522 40.3069 21.7522 41.5437C21.7522 42.7806 20.7496 43.7832 19.5128 43.7832Z" fill="black" stroke="#4D4D4D" stroke-width="0.711404" stroke-linejoin="bevel"/>
<path d="M39.1585 43.7832C37.9217 43.7832 36.9191 42.7806 36.9191 41.5437C36.9191 40.3069 37.9217 39.3043 39.1585 39.3043C40.3953 39.3043 41.3979 40.3069 41.3979 41.5437C41.3979 42.7806 40.3953 43.7832 39.1585 43.7832Z" fill="black" stroke="#4D4D4D" stroke-width="0.711404" stroke-linejoin="bevel"/>
<path fill-rule="evenodd" clip-rule="evenodd" d="M14.9852 4.95745L8.54771 1L8.53163 4.2157L13.3973 7.61366L8.51171 5.40721L9.09198 9.92633L16.658 9.44577L14.9852 4.95745Z" fill="#FF0000" stroke="black" stroke-width="0.711404"/>
<path d="M14.6053 5.21008H43.072V9.62456H14.6053V5.21008Z" fill="#FF0000" stroke="black" stroke-width="0.630963" stroke-linejoin="bevel"/>
</svg>
