<svg width="52" height="54" viewBox="0 0 52 54" fill="none" xmlns="http://www.w3.org/2000/svg">
<path d="M10.8621 47.598V33.5122L11.7906 32.5847H12.1746H17.204H17.589L18.5166 33.5122V47.6151" fill="white"/>
<path d="M10.8621 47.598V33.5122L11.7906 32.5847H12.1746H17.204H17.589L18.5166 33.5122V47.6151" stroke="black" stroke-width="0.711402" stroke-linecap="round" stroke-linejoin="round"/>
<path fill-rule="evenodd" clip-rule="evenodd" d="M17.5891 33.512L17.2037 32.5844L17.5891 33.512ZM17.5891 33.512H11.7903H17.5891ZM11.7904 33.512L12.1749 32.5844L11.7904 33.512ZM17.5891 46.6868V33.512V46.6868ZM18.5166 33.512H17.589H18.5166ZM11.7904 46.6711V33.5119V46.6711ZM10.8621 33.512H11.7906H10.8621Z" fill="white"/>
<path d="M10.8621 33.512H11.7906M17.5891 33.512L17.2037 32.5844L17.5891 33.512ZM17.5891 33.512H11.7903H17.5891ZM11.7904 33.512L12.1749 32.5844L11.7904 33.512ZM17.5891 46.6868V33.512V46.6868ZM18.5166 33.512H17.589H18.5166ZM11.7904 46.6711V33.5119V46.6711Z" stroke="black" stroke-width="0.711402" stroke-linecap="round" stroke-linejoin="round"/>
<path d="M9.81128 50.5795V43.8546L12.1307 41.5346H17.2304L19.5508 43.8546V51.5076" fill="white"/>
<path d="M9.81128 50.5795V43.8546L12.1307 41.5346H17.2304L19.5508 43.8546V51.5076" stroke="black" stroke-width="0.711402" stroke-linecap="round" stroke-linejoin="round"/>
<path d="M19.551 52.8998H17.2306H3.78323H1V51.5074L1.92657 50.5793H4.16671H16.8471H18.6234L19.551 51.5074V52.8998Z" fill="white" stroke="black" stroke-width="0.711402"/>
<path fill-rule="evenodd" clip-rule="evenodd" d="M19.5511 51.5072H17.2306H19.5511ZM17.2306 51.5072V52.8996V51.5072ZM3.78323 51.5072H17.2306H3.78323ZM3.78323 52.8998V51.5074V52.8998ZM16.8473 50.5793L17.2308 51.5074L16.8473 50.5793ZM4.16658 50.5793L3.78311 51.5074L4.16658 50.5793ZM3.78323 51.5072H1H3.78323Z" fill="white"/>
<path d="M3.78323 51.5072H1M19.5511 51.5072H17.2306H19.5511ZM17.2306 51.5072V52.8996V51.5072ZM3.78323 51.5072H17.2306H3.78323ZM3.78323 52.8998V51.5074V52.8998ZM16.8473 50.5793L17.2308 51.5074L16.8473 50.5793ZM4.16659 50.5793L3.78311 51.5074L4.16659 50.5793Z" stroke="black" stroke-width="0.711402" stroke-linecap="round" stroke-linejoin="round"/>
<path fill-rule="evenodd" clip-rule="evenodd" d="M9.81128 43.8543L10.7389 44.2388L9.81128 43.8543ZM10.7387 44.2386L12.516 42.4623L10.7387 44.2386ZM12.5161 42.4622L12.1306 41.5347L12.5161 42.4622ZM12.5161 42.4622H16.8473H12.5161ZM16.8472 42.4622L17.2307 41.5347L16.8472 42.4622ZM16.8472 42.4622L18.6235 44.2386L16.8472 42.4622ZM18.6235 44.2386L19.5511 43.8542L18.6235 44.2386ZM10.7387 50.5795V44.2385V50.5795ZM18.6235 44.2386V50.5796V44.2386Z" fill="white"/>
<path d="M18.6235 44.2386V50.5796M9.81128 43.8543L10.7389 44.2388L9.81128 43.8543ZM10.7387 44.2386L12.516 42.4623L10.7387 44.2386ZM12.5161 42.4622L12.1306 41.5347L12.5161 42.4622ZM12.5161 42.4622H16.8473H12.5161ZM16.8472 42.4622L17.2307 41.5347L16.8472 42.4622ZM16.8472 42.4622L18.6235 44.2386L16.8472 42.4622ZM18.6235 44.2386L19.5511 43.8542L18.6235 44.2386ZM10.7387 50.5795V44.2385V50.5795Z" stroke="black" stroke-width="0.711402" stroke-linecap="round" stroke-linejoin="round"/>
<path d="M41.564 47.598V33.5122L40.6354 32.5847H40.2514H35.222H34.837L33.9095 33.5122V47.6151" fill="white"/>
<path d="M41.564 47.598V33.5122L40.6354 32.5847H40.2514H35.222H34.837L33.9095 33.5122V47.6151" stroke="black" stroke-width="0.711402" stroke-linecap="round" stroke-linejoin="round"/>
<path fill-rule="evenodd" clip-rule="evenodd" d="M34.8369 33.512L35.2224 32.5844L34.8369 33.512ZM34.8369 33.512H40.6357H34.8369ZM40.6356 33.512L40.2511 32.5844L40.6356 33.512ZM34.8369 46.6868V33.512V46.6868ZM33.9095 33.512H34.837H33.9095ZM40.6356 46.6711V33.5119V46.6711ZM41.564 33.512H40.6354H41.564Z" fill="white"/>
<path d="M41.564 33.512H40.6354M34.8369 33.512L35.2224 32.5844L34.8369 33.512ZM34.8369 33.512H40.6357H34.8369ZM40.6356 33.512L40.2511 32.5844L40.6356 33.512ZM34.8369 46.6868V33.512V46.6868ZM33.9095 33.512H34.837H33.9095ZM40.6356 46.6711V33.5119V46.6711Z" stroke="black" stroke-width="0.711402" stroke-linecap="round" stroke-linejoin="round"/>
<path d="M11.5701 14.4508V1.92753L12.4986 1H13.8092H38.5511H39.8616L40.7912 1.92753V14.4508H11.5701Z" fill="#1A1A1A" stroke="black" stroke-width="0.711405" stroke-linecap="round" stroke-linejoin="round"/>
<path d="M12.961 14.4508H39.399H41.7164V31.1482L40.7909 32.0743H39.0145H13.3476H13.3465H11.5701L10.6426 31.1482V14.4508H12.961Z" fill="white" stroke="black" stroke-width="0.711405"/>
<path fill-rule="evenodd" clip-rule="evenodd" d="M39.0146 32.0744L39.3991 31.1478L39.0146 32.0744ZM39.399 31.148H12.961H39.399ZM12.9611 31.148L13.3466 32.0746L12.9611 31.148ZM10.6426 31.148H12.961H10.6426ZM12.9611 31.148V14.4506V31.148ZM39.399 14.4508V31.1482V14.4508ZM41.7164 31.148H39.399H41.7164Z" fill="white"/>
<path d="M41.7164 31.148H39.399M39.0146 32.0744L39.3991 31.1478L39.0146 32.0744ZM39.399 31.148H12.961H39.399ZM12.9611 31.148L13.3466 32.0746L12.9611 31.148ZM10.6426 31.148H12.961H10.6426ZM12.9611 31.148V14.4506V31.148ZM39.399 14.4508V31.1482V14.4508Z" stroke="black" stroke-width="0.711402" stroke-linecap="round" stroke-linejoin="round"/>
<path d="M13.4247 14.4508V1.92753M38.5509 1L38.9354 1.92758L38.5509 1ZM38.9352 1.92742V14.4507V1.92742ZM13.4247 1.92742H38.9351H13.4247ZM38.9352 1.92742H40.7908H38.9352ZM13.4247 1.92742H11.5701H13.4247ZM13.809 1L13.4246 1.92758L13.809 1Z" stroke="black" stroke-width="0.711402" stroke-linecap="round" stroke-linejoin="round"/>
<path d="M42.6147 50.5795V43.8546L40.2953 41.5346H35.1956L32.8752 43.8546V51.5076" fill="white"/>
<path d="M42.6147 50.5795V43.8546L40.2953 41.5346H35.1956L32.8752 43.8546V51.5076" stroke="black" stroke-width="0.711402" stroke-linecap="round" stroke-linejoin="round"/>
<path d="M32.875 52.8998H35.1955H48.6428H51.426V51.5074L50.4995 50.5793H48.2593H35.5789H33.8026L32.875 51.5074V52.8998Z" fill="white" stroke="black" stroke-width="0.711402"/>
<path fill-rule="evenodd" clip-rule="evenodd" d="M32.8749 51.5072H35.1954H32.8749ZM35.1954 51.5072V52.8996V51.5072ZM48.6428 51.5072H35.1955H48.6428ZM48.6428 52.8998V51.5074V52.8998ZM35.5787 50.5793L35.1952 51.5074L35.5787 50.5793ZM48.2594 50.5793L48.6429 51.5074L48.2594 50.5793ZM48.6428 51.5072H51.426H48.6428Z" fill="white"/>
<path d="M48.6428 51.5072H51.426M32.8749 51.5072H35.1954H32.8749ZM35.1954 51.5072V52.8996V51.5072ZM48.6428 51.5072H35.1955H48.6428ZM48.6428 52.8998V51.5074V52.8998ZM35.5787 50.5793L35.1952 51.5074L35.5787 50.5793ZM48.2594 50.5793L48.6429 51.5074L48.2594 50.5793Z" stroke="black" stroke-width="0.711402" stroke-linecap="round" stroke-linejoin="round"/>
<path fill-rule="evenodd" clip-rule="evenodd" d="M42.6147 43.8543L41.6872 44.2388L42.6147 43.8543ZM41.6873 44.2386L39.91 42.4623L41.6873 44.2386ZM39.91 42.4622L40.2955 41.5347L39.91 42.4622ZM39.91 42.4622H35.5788H39.91ZM35.5788 42.4622L35.1953 41.5347L35.5788 42.4622ZM35.5788 42.4622L33.8025 44.2386L35.5788 42.4622ZM33.8025 44.2386L32.8749 43.8542L33.8025 44.2386ZM41.6873 50.5795V44.2385V50.5795ZM33.8025 44.2386V50.5796V44.2386Z" fill="white"/>
<path d="M33.8025 44.2386V50.5796M42.6147 43.8543L41.6872 44.2388L42.6147 43.8543ZM41.6873 44.2386L39.91 42.4623L41.6873 44.2386ZM39.91 42.4622L40.2955 41.5347L39.91 42.4622ZM39.91 42.4622H35.5788H39.91ZM35.5788 42.4622L35.1953 41.5347L35.5788 42.4622ZM35.5788 42.4622L33.8025 44.2386L35.5788 42.4622ZM33.8025 44.2386L32.8749 43.8542L33.8025 44.2386ZM41.6873 50.5795V44.2385V50.5795Z" stroke="black" stroke-width="0.711402" stroke-linecap="round" stroke-linejoin="round"/>
<path d="M22.6499 5.69963C22.3413 5.69963 22.0903 5.44916 22.0903 5.13985C22.0903 4.83079 22.3413 4.58081 22.6499 4.58081C22.9589 4.58081 23.2097 4.83079 23.2097 5.13985C23.2097 5.44916 22.9589 5.69963 22.6499 5.69963Z" fill="#FF0000"/>
<path d="M21.2712 7.08367C20.9621 7.08367 20.7119 6.83319 20.7119 6.52388C20.7119 6.21482 20.9621 5.96484 21.2712 5.96484C21.5798 5.96484 21.8305 6.21482 21.8305 6.52388C21.8305 6.83319 21.5798 7.08367 21.2712 7.08367Z" fill="#FF0000"/>
<path d="M19.8916 7.08367C19.583 7.08367 19.3325 6.83319 19.3325 6.52388C19.3325 6.21482 19.583 5.96484 19.8916 5.96484C20.2006 5.96484 20.4511 6.21482 20.4511 6.52388C20.4511 6.83319 20.2006 7.08367 19.8916 7.08367Z" fill="#FF0000"/>
<path d="M18.513 5.69963C18.2042 5.69963 17.9532 5.44916 17.9532 5.13985C17.9532 4.83079 18.2042 4.58081 18.513 4.58081C18.8216 4.58081 19.0723 4.83079 19.0723 5.13985C19.0723 5.44916 18.8216 5.69963 18.513 5.69963Z" fill="#FF0000"/>
<path d="M24.0288 7.08366C23.72 7.08366 23.4697 6.83319 23.4697 6.52413C23.4697 6.21482 23.72 5.96509 24.0288 5.96509C24.3381 5.96509 24.5885 6.21482 24.5885 6.52413C24.5885 6.83319 24.3381 7.08366 24.0288 7.08366Z" fill="#FF0000"/>
<path d="M17.134 7.08366C16.8249 7.08366 16.5745 6.83319 16.5745 6.52413C16.5745 6.21482 16.8249 5.96509 17.134 5.96509C17.4426 5.96509 17.6935 6.21482 17.6935 6.52413C17.6935 6.83319 17.4426 7.08366 17.134 7.08366Z" fill="#FF0000"/>
<path d="M17.134 8.46721C16.8249 8.46721 16.5745 8.21673 16.5745 7.90767C16.5745 7.59836 16.8249 7.34863 17.134 7.34863C17.4426 7.34863 17.6935 7.59836 17.6935 7.90767C17.6935 8.21673 17.4426 8.46721 17.134 8.46721Z" fill="#FF0000"/>
<path d="M22.6497 8.46708C22.3409 8.46708 22.0907 8.21735 22.0907 7.90804C22.0907 7.59898 22.3409 7.34875 22.6497 7.34875C22.959 7.34875 23.2095 7.59898 23.2095 7.90804C23.2095 8.21735 22.959 8.46708 22.6497 8.46708Z" fill="#FF0000"/>
<path d="M18.513 8.46708C18.204 8.46708 17.9535 8.21735 17.9535 7.90804C17.9535 7.59898 18.204 7.34875 18.513 7.34875C18.8216 7.34875 19.0726 7.59898 19.0726 7.90804C19.0726 8.21735 18.8216 8.46708 18.513 8.46708Z" fill="#FF0000"/>
<path d="M21.271 9.85185C20.9621 9.85185 20.7119 9.60188 20.7119 9.29257C20.7119 8.98326 20.9621 8.73303 21.271 8.73303C21.5803 8.73303 21.8307 8.98326 21.8307 9.29257C21.8307 9.60188 21.5803 9.85185 21.271 9.85185Z" fill="#FF0000"/>
<path d="M19.8918 9.85185C19.5828 9.85185 19.3323 9.60188 19.3323 9.29257C19.3323 8.98326 19.5828 8.73303 19.8918 8.73303C20.2004 8.73303 20.4513 8.98326 20.4513 9.29257C20.4513 9.60188 20.2004 9.85185 19.8918 9.85185Z" fill="#FF0000"/>
<path d="M22.6497 7.08366C22.3409 7.08366 22.0907 6.83368 22.0907 6.52438C22.0907 6.21556 22.3409 5.96509 22.6497 5.96509C22.959 5.96509 23.2095 6.21556 23.2095 6.52438C23.2095 6.83368 22.959 7.08366 22.6497 7.08366Z" fill="#FF0000"/>
<path d="M18.513 7.08366C18.204 7.08366 17.9535 6.83368 17.9535 6.52438C17.9535 6.21556 18.204 5.96509 18.513 5.96509C18.8216 5.96509 19.0726 6.21556 19.0726 6.52438C19.0726 6.83368 18.8216 7.08366 18.513 7.08366Z" fill="#FF0000"/>
<path d="M21.2712 8.46746C20.9621 8.46746 20.7119 8.21698 20.7119 7.90767C20.7119 7.59861 20.9621 7.34863 21.2712 7.34863C21.5798 7.34863 21.8305 7.59861 21.8305 7.90767C21.8305 8.21698 21.5798 8.46746 21.2712 8.46746Z" fill="#FF0000"/>
<path d="M19.8916 8.46746C19.583 8.46746 19.3325 8.21698 19.3325 7.90767C19.3325 7.59861 19.583 7.34863 19.8916 7.34863C20.2006 7.34863 20.4511 7.59861 20.4511 7.90767C20.4511 8.21698 20.2006 8.46746 19.8916 8.46746Z" fill="#FF0000"/>
<path d="M21.271 11.2355C20.9621 11.2355 20.7119 10.9855 20.7119 10.6762C20.7119 10.3669 20.9621 10.1167 21.271 10.1167C21.5803 10.1167 21.8307 10.3669 21.8307 10.6762C21.8307 10.9855 21.5803 11.2355 21.271 11.2355Z" fill="#FF0000"/>
<path d="M19.8918 11.2355C19.5828 11.2355 19.3323 10.9855 19.3323 10.6762C19.3323 10.3669 19.5828 10.1167 19.8918 10.1167C20.2004 10.1167 20.4513 10.3669 20.4513 10.6762C20.4513 10.9855 20.2004 11.2355 19.8918 11.2355Z" fill="#FF0000"/>
<path d="M22.6497 9.85185C22.3409 9.85185 22.0907 9.60212 22.0907 9.29281C22.0907 8.98375 22.3409 8.73352 22.6497 8.73352C22.959 8.73352 23.2095 8.98375 23.2095 9.29281C23.2095 9.60212 22.959 9.85185 22.6497 9.85185Z" fill="#FF0000"/>
<path d="M18.513 9.85185C18.204 9.85185 17.9535 9.60212 17.9535 9.29281C17.9535 8.98375 18.204 8.73352 18.513 8.73352C18.8216 8.73352 19.0726 8.98375 19.0726 9.29281C19.0726 9.60212 18.8216 9.85185 18.513 9.85185Z" fill="#FF0000"/>
<path d="M24.0288 8.46721C23.72 8.46721 23.4697 8.21673 23.4697 7.90767C23.4697 7.59836 23.72 7.34863 24.0288 7.34863C24.3381 7.34863 24.5885 7.59836 24.5885 7.90767C24.5885 8.21673 24.3381 8.46721 24.0288 8.46721Z" fill="#FF0000"/>
<path d="M33.9131 5.69963C33.6045 5.69963 33.3535 5.44916 33.3535 5.13985C33.3535 4.83079 33.6045 4.58081 33.9131 4.58081C34.2221 4.58081 34.4728 4.83079 34.4728 5.13985C34.4728 5.44916 34.2221 5.69963 33.9131 5.69963Z" fill="#FF0000"/>
<path d="M32.5344 7.08367C32.2253 7.08367 31.9751 6.83319 31.9751 6.52388C31.9751 6.21482 32.2253 5.96484 32.5344 5.96484C32.8429 5.96484 33.0937 6.21482 33.0937 6.52388C33.0937 6.83319 32.8429 7.08367 32.5344 7.08367Z" fill="#FF0000"/>
<path d="M31.1549 7.08367C30.8463 7.08367 30.5958 6.83319 30.5958 6.52388C30.5958 6.21482 30.8463 5.96484 31.1549 5.96484C31.4639 5.96484 31.7144 6.21482 31.7144 6.52388C31.7144 6.83319 31.4639 7.08367 31.1549 7.08367Z" fill="#FF0000"/>
<path d="M29.7762 5.69963C29.4674 5.69963 29.2164 5.44916 29.2164 5.13985C29.2164 4.83079 29.4674 4.58081 29.7762 4.58081C30.0848 4.58081 30.3355 4.83079 30.3355 5.13985C30.3355 5.44916 30.0848 5.69963 29.7762 5.69963Z" fill="#FF0000"/>
<path d="M35.2919 7.08366C34.9831 7.08366 34.7329 6.83319 34.7329 6.52413C34.7329 6.21482 34.9831 5.96509 35.2919 5.96509C35.6013 5.96509 35.8517 6.21482 35.8517 6.52413C35.8517 6.83319 35.6013 7.08366 35.2919 7.08366Z" fill="#FF0000"/>
<path d="M28.3972 7.08366C28.0881 7.08366 27.8376 6.83319 27.8376 6.52413C27.8376 6.21482 28.0881 5.96509 28.3972 5.96509C28.7057 5.96509 28.9567 6.21482 28.9567 6.52413C28.9567 6.83319 28.7057 7.08366 28.3972 7.08366Z" fill="#FF0000"/>
<path d="M28.3971 8.46721C28.088 8.46721 27.8375 8.21673 27.8375 7.90767C27.8375 7.59836 28.088 7.34863 28.3971 7.34863C28.7056 7.34863 28.9566 7.59836 28.9566 7.90767C28.9566 8.21673 28.7056 8.46721 28.3971 8.46721Z" fill="#FF0000"/>
<path d="M33.9129 8.46708C33.6041 8.46708 33.3539 8.21735 33.3539 7.90804C33.3539 7.59898 33.6041 7.34875 33.9129 7.34875C34.2222 7.34875 34.4727 7.59898 34.4727 7.90804C34.4727 8.21735 34.2222 8.46708 33.9129 8.46708Z" fill="#FF0000"/>
<path d="M29.7762 8.46708C29.4672 8.46708 29.2167 8.21735 29.2167 7.90804C29.2167 7.59898 29.4672 7.34875 29.7762 7.34875C30.0848 7.34875 30.3357 7.59898 30.3357 7.90804C30.3357 8.21735 30.0848 8.46708 29.7762 8.46708Z" fill="#FF0000"/>
<path d="M32.5341 9.85185C32.2253 9.85185 31.9751 9.60188 31.9751 9.29257C31.9751 8.98326 32.2253 8.73303 32.5341 8.73303C32.8434 8.73303 33.0939 8.98326 33.0939 9.29257C33.0939 9.60188 32.8434 9.85185 32.5341 9.85185Z" fill="#FF0000"/>
<path d="M31.155 9.85185C30.8459 9.85185 30.5955 9.60188 30.5955 9.29257C30.5955 8.98326 30.8459 8.73303 31.155 8.73303C31.4636 8.73303 31.7145 8.98326 31.7145 9.29257C31.7145 9.60188 31.4636 9.85185 31.155 9.85185Z" fill="#FF0000"/>
<path d="M33.9129 7.08366C33.6041 7.08366 33.3539 6.83368 33.3539 6.52438C33.3539 6.21556 33.6041 5.96509 33.9129 5.96509C34.2222 5.96509 34.4727 6.21556 34.4727 6.52438C34.4727 6.83368 34.2222 7.08366 33.9129 7.08366Z" fill="#FF0000"/>
<path d="M29.7762 7.08366C29.4672 7.08366 29.2167 6.83368 29.2167 6.52438C29.2167 6.21556 29.4672 5.96509 29.7762 5.96509C30.0848 5.96509 30.3357 6.21556 30.3357 6.52438C30.3357 6.83368 30.0848 7.08366 29.7762 7.08366Z" fill="#FF0000"/>
<path d="M32.5344 8.46746C32.2253 8.46746 31.9751 8.21698 31.9751 7.90767C31.9751 7.59861 32.2253 7.34863 32.5344 7.34863C32.8429 7.34863 33.0937 7.59861 33.0937 7.90767C33.0937 8.21698 32.8429 8.46746 32.5344 8.46746Z" fill="#FF0000"/>
<path d="M31.1549 8.46746C30.8463 8.46746 30.5958 8.21698 30.5958 7.90767C30.5958 7.59861 30.8463 7.34863 31.1549 7.34863C31.4639 7.34863 31.7144 7.59861 31.7144 7.90767C31.7144 8.21698 31.4639 8.46746 31.1549 8.46746Z" fill="#FF0000"/>
<path d="M32.5341 11.2355C32.2253 11.2355 31.9751 10.9855 31.9751 10.6762C31.9751 10.3669 32.2253 10.1167 32.5341 10.1167C32.8434 10.1167 33.0939 10.3669 33.0939 10.6762C33.0939 10.9855 32.8434 11.2355 32.5341 11.2355Z" fill="#FF0000"/>
<path d="M31.155 11.2355C30.8459 11.2355 30.5955 10.9855 30.5955 10.6762C30.5955 10.3669 30.8459 10.1167 31.155 10.1167C31.4636 10.1167 31.7145 10.3669 31.7145 10.6762C31.7145 10.9855 31.4636 11.2355 31.155 11.2355Z" fill="#FF0000"/>
<path d="M33.9129 9.85185C33.6041 9.85185 33.3539 9.60212 33.3539 9.29281C33.3539 8.98375 33.6041 8.73352 33.9129 8.73352C34.2222 8.73352 34.4727 8.98375 34.4727 9.29281C34.4727 9.60212 34.2222 9.85185 33.9129 9.85185Z" fill="#FF0000"/>
<path d="M29.7762 9.85185C29.4672 9.85185 29.2167 9.60212 29.2167 9.29281C29.2167 8.98375 29.4672 8.73352 29.7762 8.73352C30.0848 8.73352 30.3357 8.98375 30.3357 9.29281C30.3357 9.60212 30.0848 9.85185 29.7762 9.85185Z" fill="#FF0000"/>
<path d="M35.2919 8.46721C34.9831 8.46721 34.7329 8.21673 34.7329 7.90767C34.7329 7.59836 34.9831 7.34863 35.2919 7.34863C35.6013 7.34863 35.8517 7.59836 35.8517 7.90767C35.8517 8.21673 35.6013 8.46721 35.2919 8.46721Z" fill="#FF0000"/>
</svg>
