<svg width="43" height="38" viewBox="0 0 43 38" fill="none" xmlns="http://www.w3.org/2000/svg">
<path d="M3.9607 20.7952H8.26343V26.6135H3.9607V20.7952Z" fill="#2D2D64"/>
<path d="M2.20951 10.2136C3.43013 10.2136 4.41919 10.6707 4.41919 11.2348V36.1737C4.41919 36.7374 3.43013 37.1949 2.20951 37.1949C0.988905 37.1949 -0.000165462 36.7374 -0.000165462 36.1737V11.2348C-0.000165462 10.6707 0.988905 10.2136 2.20951 10.2136Z" fill="black"/>
<path d="M0.62546 11.187H3.77368V11.5827H0.62546V11.187Z" fill="#333333"/>
<path d="M0.62546 13.8527H3.77368V14.2484H0.62546V13.8527Z" fill="#333333"/>
<path d="M0.62546 16.5183H3.77368V16.914H0.62546V16.5183Z" fill="#333333"/>
<path d="M0.62546 19.1841H3.77368V19.5798H0.62546V19.1841Z" fill="#333333"/>
<path d="M0.62546 21.8499H3.77368V22.2455H0.62546V21.8499Z" fill="#333333"/>
<path d="M0.62546 24.5156H3.77368V24.9113H0.62546V24.5156Z" fill="#333333"/>
<path d="M0.62546 27.1813H3.77368V27.577H0.62546V27.1813Z" fill="#333333"/>
<path d="M0.62546 29.8469H3.77368V30.2426H0.62546V29.8469Z" fill="#333333"/>
<path d="M0.62546 32.5128H3.77368V32.9085H0.62546V32.5128Z" fill="#333333"/>
<path d="M0.62546 35.1785H3.77368V35.5742H0.62546V35.1785Z" fill="#333333"/>
<path d="M0.62546 12.5122H3.77368V12.9079H0.62546V12.5122Z" fill="#333333"/>
<path d="M0.62546 15.1781H3.77368V15.5738H0.62546V15.1781Z" fill="#333333"/>
<path d="M0.62546 17.8438H3.77368V18.2394H0.62546V17.8438Z" fill="#333333"/>
<path d="M0.62546 20.5094H3.77368V20.9051H0.62546V20.5094Z" fill="#333333"/>
<path d="M0.62546 23.1753H3.77368V23.571H0.62546V23.1753Z" fill="#333333"/>
<path d="M0.62546 25.8409H3.77368V26.2366H0.62546V25.8409Z" fill="#333333"/>
<path d="M0.62546 28.5066H3.77368V28.9023H0.62546V28.5066Z" fill="#333333"/>
<path d="M0.62546 31.1724H3.77368V31.5681H0.62546V31.1724Z" fill="#333333"/>
<path d="M0.62546 33.8381H3.77368V34.2338H0.62546V33.8381Z" fill="#333333"/>
<path d="M0.4092 13.155H3.98975V13.5507H0.4092V13.155Z" fill="#333333"/>
<path d="M0.4092 15.8207H3.98975V16.2164H0.4092V15.8207Z" fill="#333333"/>
<path d="M0.4092 18.4863H3.98975V18.882H0.4092V18.4863Z" fill="#333333"/>
<path d="M0.4092 21.1522H3.98975V21.5479H0.4092V21.1522Z" fill="#333333"/>
<path d="M0.4092 23.8179H3.98975V24.2136H0.4092V23.8179Z" fill="#333333"/>
<path d="M0.4092 26.4835H3.98975V26.8792H0.4092V26.4835Z" fill="#333333"/>
<path d="M0.4092 29.1494H3.98975V29.5451H0.4092V29.1494Z" fill="#333333"/>
<path d="M0.4092 31.8151H3.98975V32.2108H0.4092V31.8151Z" fill="#333333"/>
<path d="M0.4092 34.4808H3.98975V34.8765H0.4092V34.4808Z" fill="#333333"/>
<path d="M0.4092 11.8147H3.98975V12.2104H0.4092V11.8147Z" fill="#333333"/>
<path d="M0.4092 14.4803H3.98975V14.876H0.4092V14.4803Z" fill="#333333"/>
<path d="M0.4092 17.146H3.98975V17.5417H0.4092V17.146Z" fill="#333333"/>
<path d="M0.4092 19.8118H3.98975V20.2075H0.4092V19.8118Z" fill="#333333"/>
<path d="M0.4092 22.4775H3.98975V22.8732H0.4092V22.4775Z" fill="#333333"/>
<path d="M0.4092 25.1433H3.98975V25.539H0.4092V25.1433Z" fill="#333333"/>
<path d="M0.4092 27.809H3.98975V28.2047H0.4092V27.809Z" fill="#333333"/>
<path d="M0.4092 30.4746H3.98975V30.8703H0.4092V30.4746Z" fill="#333333"/>
<path d="M0.4092 33.1405H3.98975V33.5362H0.4092V33.1405Z" fill="#333333"/>
<path d="M38.3347 20.7952H34.032V26.6135H38.3347V20.7952Z" fill="#2D2D64"/>
<path d="M40.0859 10.2136C38.8653 10.2136 37.8762 10.6707 37.8762 11.2348V36.1737C37.8762 36.7374 38.8653 37.1949 40.0859 37.1949C41.3065 37.1949 42.2956 36.7374 42.2956 36.1737V11.2348C42.2956 10.6707 41.3065 10.2136 40.0859 10.2136Z" fill="black"/>
<path d="M41.67 11.187H38.5217V11.5827H41.67V11.187Z" fill="#333333"/>
<path d="M41.67 13.8527H38.5217V14.2484H41.67V13.8527Z" fill="#333333"/>
<path d="M41.67 16.5183H38.5217V16.914H41.67V16.5183Z" fill="#333333"/>
<path d="M41.67 19.1841H38.5217V19.5798H41.67V19.1841Z" fill="#333333"/>
<path d="M41.67 21.8499H38.5217V22.2455H41.67V21.8499Z" fill="#333333"/>
<path d="M41.67 24.5156H38.5217V24.9113H41.67V24.5156Z" fill="#333333"/>
<path d="M41.67 27.1813H38.5217V27.577H41.67V27.1813Z" fill="#333333"/>
<path d="M41.67 29.8469H38.5217V30.2426H41.67V29.8469Z" fill="#333333"/>
<path d="M41.67 32.5128H38.5217V32.9085H41.67V32.5128Z" fill="#333333"/>
<path d="M41.67 35.1785H38.5217V35.5742H41.67V35.1785Z" fill="#333333"/>
<path d="M41.67 12.5122H38.5217V12.9079H41.67V12.5122Z" fill="#333333"/>
<path d="M41.67 15.1781H38.5217V15.5738H41.67V15.1781Z" fill="#333333"/>
<path d="M41.67 17.8438H38.5217V18.2394H41.67V17.8438Z" fill="#333333"/>
<path d="M41.67 20.5094H38.5217V20.9051H41.67V20.5094Z" fill="#333333"/>
<path d="M41.67 23.1753H38.5217V23.571H41.67V23.1753Z" fill="#333333"/>
<path d="M41.67 25.8409H38.5217V26.2366H41.67V25.8409Z" fill="#333333"/>
<path d="M41.67 28.5066H38.5217V28.9023H41.67V28.5066Z" fill="#333333"/>
<path d="M41.67 31.1724H38.5217V31.5681H41.67V31.1724Z" fill="#333333"/>
<path d="M41.67 33.8381H38.5217V34.2338H41.67V33.8381Z" fill="#333333"/>
<path d="M41.8862 13.155H38.3057V13.5507H41.8862V13.155Z" fill="#333333"/>
<path d="M41.8862 15.8207H38.3057V16.2164H41.8862V15.8207Z" fill="#333333"/>
<path d="M41.8862 18.4863H38.3057V18.882H41.8862V18.4863Z" fill="#333333"/>
<path d="M41.8862 21.1522H38.3057V21.5479H41.8862V21.1522Z" fill="#333333"/>
<path d="M41.8862 23.8179H38.3057V24.2136H41.8862V23.8179Z" fill="#333333"/>
<path d="M41.8862 26.4835H38.3057V26.8792H41.8862V26.4835Z" fill="#333333"/>
<path d="M41.8862 29.1494H38.3057V29.5451H41.8862V29.1494Z" fill="#333333"/>
<path d="M41.8862 31.8151H38.3057V32.2108H41.8862V31.8151Z" fill="#333333"/>
<path d="M41.8862 34.4808H38.3057V34.8765H41.8862V34.4808Z" fill="#333333"/>
<path d="M41.8862 11.8147H38.3057V12.2104H41.8862V11.8147Z" fill="#333333"/>
<path d="M41.8862 14.4803H38.3057V14.876H41.8862V14.4803Z" fill="#333333"/>
<path d="M41.8862 17.146H38.3057V17.5417H41.8862V17.146Z" fill="#333333"/>
<path d="M41.8862 19.8118H38.3057V20.2075H41.8862V19.8118Z" fill="#333333"/>
<path d="M41.8862 22.4775H38.3057V22.8732H41.8862V22.4775Z" fill="#333333"/>
<path d="M41.8862 25.1433H38.3057V25.539H41.8862V25.1433Z" fill="#333333"/>
<path d="M41.8862 27.809H38.3057V28.2047H41.8862V27.809Z" fill="#333333"/>
<path d="M41.8862 30.4746H38.3057V30.8703H41.8862V30.4746Z" fill="#333333"/>
<path d="M41.8862 33.1405H38.3057V33.5362H41.8862V33.1405Z" fill="#333333"/>
<path d="M21.148 36.8392C22.3327 36.8392 23.2931 35.8788 23.2931 34.6941C23.2931 33.5095 22.3327 32.5491 21.148 32.5491C19.9633 32.5491 19.0029 33.5095 19.0029 34.6941C19.0029 35.8788 19.9633 36.8392 21.148 36.8392Z" fill="#CCCCCC" stroke="black" stroke-width="0.711403" stroke-linejoin="bevel"/>
<path d="M24.8558 30.8138H17.4397V34.3709H24.8558V30.8138Z" fill="white" stroke="black" stroke-width="0.711403" stroke-linejoin="bevel"/>
<g opacity="0.998">
<path opacity="0.998" d="M6.53833 14.4508V1.92753L7.46688 1H8.77746H33.5193H34.8299L35.7595 1.92753V14.4508H6.53833Z" fill="#4ED01A" stroke="black" stroke-width="0.711405" stroke-linecap="round" stroke-linejoin="round"/>
<path opacity="0.998" d="M7.92931 14.4508H34.3672H36.6847V31.1482L35.7591 32.0743H33.9828H8.31582H8.31472H6.5384L5.61084 31.1482V14.4508H7.92931Z" fill="white" stroke="black" stroke-width="0.711405"/>
<g opacity="0.998">
<g opacity="0.998">
<path fill-rule="evenodd" clip-rule="evenodd" d="M33.9829 32.0744L34.3674 31.1478L33.9829 32.0744ZM34.3672 31.148H7.9293H34.3672ZM7.92933 31.148L8.31482 32.0746L7.92933 31.148ZM5.61084 31.148H7.92928H5.61084ZM7.92933 31.148V14.4506V31.148ZM34.3672 14.4508V31.1482V14.4508ZM36.6847 31.148H34.3673H36.6847Z" fill="white"/>
<path d="M36.6847 31.148H34.3673M33.9829 32.0744L34.3674 31.1478L33.9829 32.0744ZM34.3672 31.148H7.9293H34.3672ZM7.92933 31.148L8.31482 32.0746L7.92933 31.148ZM5.61084 31.148H7.92928H5.61084ZM7.92933 31.148V14.4506V31.148ZM34.3672 14.4508V31.1482V14.4508Z" stroke="black" stroke-width="0.711402" stroke-linecap="round" stroke-linejoin="round"/>
</g>
</g>
<g opacity="0.998">
<path opacity="0.998" d="M8.39298 14.4508V1.92753M33.5191 1L33.9036 1.92758L33.5191 1ZM33.9034 1.92742V14.4507V1.92742ZM8.39298 1.92742H33.9033H8.39298ZM33.9034 1.92742H35.7591H33.9034ZM8.39298 1.92742H6.53833H8.39298ZM8.77731 1L8.39283 1.92758L8.77731 1Z" stroke="black" stroke-width="0.711402" stroke-linecap="round" stroke-linejoin="round"/>
</g>
<g opacity="0.998">
<g opacity="0.998">
<path opacity="0.998" d="M26.8661 11.949C28.9531 11.949 30.6451 10.2559 30.6451 8.1684C30.6451 6.08186 28.9531 4.38983 26.8661 4.38983C24.777 4.38983 23.084 6.08186 23.084 8.1684C23.084 10.2559 24.777 11.949 26.8661 11.949Z" fill="white"/>
</g>
<g opacity="0.998">
<path opacity="0.998" d="M26.8886 10.8657C25.3963 10.8657 24.1897 9.65706 24.1897 8.16632C24.1897 6.67557 25.3963 5.46591 26.8886 5.46591C28.3798 5.46591 29.5885 6.67557 29.5885 8.16632C29.5885 9.65706 28.3798 10.8657 26.8886 10.8657Z" fill="black"/>
</g>
<g opacity="0.998">
<path opacity="0.998" d="M15.4299 11.949C17.518 11.949 19.209 10.2559 19.209 8.1684C19.209 6.08186 17.518 4.38983 15.4299 4.38983C13.3439 4.38983 11.6509 6.08186 11.6509 8.1684C11.6509 10.2559 13.3439 11.949 15.4299 11.949Z" fill="white"/>
</g>
<g opacity="0.998">
<path opacity="0.998" d="M15.4545 10.8657C13.9623 10.8657 12.7556 9.65706 12.7556 8.16632C12.7556 6.67557 13.9623 5.46591 15.4545 5.46591C16.9438 5.46591 18.1534 6.67557 18.1534 8.16632C18.1534 9.65706 16.9438 10.8657 15.4545 10.8657Z" fill="black"/>
</g>
</g>
</g>
</svg>
