<svg width="84" height="78" viewBox="0 0 84 78" fill="none" xmlns="http://www.w3.org/2000/svg">
<path opacity="0.994375" d="M22.3814 38.1381C20.9698 38.0923 19.9046 37.2283 19.0922 36.3291C18.7585 35.9604 18.5149 35.6787 18.2965 35.5256C18.078 35.3722 17.4978 35.3247 17.4978 35.3247L16.0489 35.3121L15.7177 35.3122C13.5013 35.3123 11.674 33.4824 11.674 31.266L11.6738 17.1003C11.6737 14.8838 13.5011 13.0564 15.7175 13.0564L17.4177 13.0563L17.8002 13.0561L17.8872 13.0563C19.6693 13.1702 20.6969 14.4684 21.1571 14.9772C21.7931 15.681 22.0763 15.8537 22.468 15.8668L25.9145 15.867C26.3091 15.8547 26.5908 15.682 27.2278 14.9769C27.6872 14.469 28.7127 13.1715 30.4928 13.0568L30.5824 13.0564L30.9717 13.0568L60.7009 13.0567C62.9174 13.0566 64.7447 14.884 64.7447 17.1004L64.7449 31.2662C64.7449 33.4826 62.9169 35.3121 60.7005 35.3123L32.3504 35.312L30.8879 35.3246C30.8879 35.3246 30.3101 35.3744 30.0916 35.5281C29.8733 35.6814 29.63 35.9622 29.2962 36.3309C28.4838 37.2305 27.4185 38.093 26.0047 38.1375L25.9605 38.1388L22.4245 38.1384L22.3814 38.1381ZM22.4701 35.3519L25.9168 35.3515C26.3097 35.3389 26.5902 35.167 27.2275 34.4614C27.4811 34.1811 27.8625 33.686 28.488 33.2474C29.0799 32.8323 29.9556 32.5615 30.916 32.5822L30.9691 32.5288L60.6978 32.5285C61.4189 32.5284 61.9555 31.9897 61.9555 31.2687L61.9559 17.1031C61.9559 16.3821 61.4191 15.8452 60.698 15.8452L30.9694 15.8455L30.6671 15.8453C30.0675 15.8849 29.8967 16.1834 29.2928 16.851C28.4799 17.7506 27.4157 18.6144 26.0037 18.6601L25.9579 18.6604L22.4217 18.6606L22.3783 18.6615C20.9646 18.6169 19.8988 17.7523 19.0864 16.853C18.485 16.1878 18.3119 15.8884 17.8635 15.8687L15.7148 15.8488C14.9937 15.8488 14.457 16.3857 14.457 17.1067L14.4573 31.2719C14.4573 31.9929 14.9936 32.5321 15.7146 32.5321L17.4104 32.532L17.4638 32.5851C18.4239 32.5641 19.3003 32.8349 19.8923 33.2496C20.5179 33.6883 20.9011 34.1836 21.1549 34.4643C21.7918 35.1693 22.0737 35.341 22.4683 35.3539L22.4701 35.3519Z" fill="#2D2D64"/>
<path opacity="0.994375" d="M15.7182 14.4498C14.2495 14.4498 13.0673 15.6321 13.0674 17.1009L13.0675 31.2667C13.0675 32.7354 14.2498 33.9182 15.7185 33.9181L17.4137 33.9179L17.4104 33.9302C18.8668 33.841 19.5333 34.7445 20.1206 35.3937C20.8454 36.1961 21.5191 36.7135 22.4226 36.7429C23.5988 36.7429 24.9617 36.7431 25.9574 36.743C26.8607 36.7146 27.5339 36.196 28.2589 35.3935C28.8461 34.7444 29.5126 33.8403 30.969 33.93L30.9723 33.9178L60.7008 33.918C62.1695 33.9179 63.3517 32.7357 63.3516 31.2669L63.3516 17.1005C63.3516 15.6319 62.1692 14.4497 60.7005 14.4497L30.9718 14.45L30.5827 14.449C29.3914 14.5258 28.7941 15.3245 28.2619 15.9129C27.537 16.7153 26.8637 17.233 25.9604 17.2624C24.7863 17.2624 23.4177 17.2624 22.4256 17.2623C21.5221 17.2338 20.8484 16.7156 20.1236 15.9131C19.5905 15.324 18.9931 14.5256 17.799 14.4496L17.4178 14.4495L17.4177 14.45L17.4178 14.4495L15.7182 14.4498Z" fill="#32D900"/>
<g opacity="0.994375">
<path opacity="0.994375" d="M34.189 30.2411C30.9417 30.2411 28.312 27.6097 28.312 24.3641C28.312 21.1167 30.945 18.4862 34.189 18.4862C37.4355 18.4854 40.0694 21.1167 40.0694 24.3641C40.0694 27.6105 37.4355 30.2411 34.189 30.2411Z" fill="white"/>
</g>
<g opacity="0.994375">
<path opacity="0.994375" d="M34.1524 28.5619C36.4725 28.5619 38.3491 26.6812 38.3491 24.3635C38.3491 22.0459 36.4725 20.1644 34.1524 20.1644C31.8347 20.166 29.9548 22.0459 29.9548 24.3635C29.9548 26.6795 31.8347 28.5619 34.1524 28.5619Z" fill="#2D2D64"/>
</g>
<g opacity="0.994375">
<path opacity="0.994375" d="M53.2675 30.2411C50.021 30.2411 47.3905 27.6097 47.3872 24.3641C47.3905 21.1167 50.021 18.4837 53.2675 18.4854C56.514 18.4854 59.1446 21.1167 59.1479 24.3641C59.1479 27.6097 56.5116 30.2411 53.2675 30.2411Z" fill="white"/>
</g>
<g opacity="0.994375">
<path opacity="0.994375" d="M53.2321 28.5614C55.5489 28.563 57.4288 26.6807 57.4288 24.363C57.4288 22.0454 55.5489 20.1639 53.2321 20.1655C50.9153 20.1655 49.0354 22.0454 49.0354 24.363C49.0321 26.6807 50.9153 28.5614 53.2321 28.5614Z" fill="#2D2D64"/>
</g>
<path opacity="0.994375" d="M22.381 65.2188C20.9694 65.1728 19.9044 64.311 19.0919 63.4117C18.7583 63.0428 18.5146 62.7619 18.2961 62.6088C18.0776 62.4553 17.4968 62.4077 17.4968 62.4077L16.0473 62.3949L15.7161 62.3951L15.0706 62.2346C14.4711 61.9207 13.7458 61.6213 13.0417 61.0669C12.3377 60.5122 11.6726 59.5121 11.6725 58.3507L11.6728 38.8569C11.6728 36.6405 13.5001 34.8106 15.7165 34.8106L17.4166 34.811L17.7985 34.8107L17.886 34.811C19.668 34.9249 20.6952 36.2223 21.1555 36.7312C21.7914 37.4351 22.0746 37.6084 22.4663 37.6213L25.9155 37.621C26.3088 37.6071 26.591 37.4352 27.2267 36.7316C27.6859 36.2238 28.7112 34.928 30.4912 34.8133L30.5814 34.8131L30.9707 34.8134L60.6992 34.8137C62.9156 34.8138 64.7435 36.6412 64.7435 38.8576L64.7434 58.3534C64.7434 60.5698 62.916 62.3973 60.6996 62.3972L32.3488 62.3974L30.8857 62.4097C30.8857 62.4097 30.3085 62.4618 30.0901 62.6153C29.8718 62.7685 29.6279 63.0492 29.2941 63.418C28.4817 64.3175 27.4164 65.1799 26.0026 65.2246L25.959 65.226L22.423 65.2256L22.381 65.2188ZM22.4679 62.4321L25.9189 62.4322C26.3107 62.418 26.5912 62.2461 27.2272 61.5421C27.4808 61.2619 27.862 60.7668 28.4877 60.3281C29.0796 59.913 29.9552 59.6397 30.9157 59.6604L30.9688 59.607L60.6974 59.6067C61.4187 59.6066 61.9551 59.0704 61.9552 58.3493L61.9553 38.8535C61.9553 38.1324 61.4186 37.5956 60.6974 37.5957L30.9689 37.5954L30.6666 37.5952C30.0671 37.6348 29.8966 37.9339 29.2927 38.6016C28.4799 39.5012 27.4159 40.3625 26.0037 40.4083L25.9573 40.4084L22.4212 40.4086L22.3777 40.4095C20.964 40.3649 19.8985 39.5023 19.0859 38.6029C18.4833 37.9364 18.3122 37.6364 17.7098 37.5969L17.4143 37.5972L16.0215 37.5971L15.7143 37.5968C14.9931 37.5969 14.457 38.1356 14.4571 38.8568L14.4568 58.3506C14.4565 58.6581 14.4688 58.6446 14.7637 58.8779C15.0069 59.07 15.5338 59.3285 16.0748 59.608L17.4099 59.6083L17.4635 59.6608C18.4236 59.641 19.2998 59.9136 19.8918 60.3284C20.5174 60.767 20.9009 61.2619 21.1545 61.5425C21.7901 62.2461 22.072 62.419 22.4653 62.4326L22.4679 62.4321Z" fill="#2D2D64"/>
<path opacity="0.994375" d="M15.7179 36.2037C14.2491 36.2036 13.0664 37.3859 13.0664 38.8547L13.0664 58.3499C13.0663 59.8185 14.4165 60.3192 15.7176 61.0008L17.4133 61.0007L17.4101 61.013C18.8664 60.9239 19.5329 61.8273 20.1202 62.4765C20.845 63.2789 21.518 63.7967 22.4214 63.8262C23.5978 63.8261 24.9607 63.8256 25.9564 63.8256C26.8598 63.7972 27.533 63.2787 28.2579 62.4761C28.8453 61.827 29.5116 60.9229 30.968 61.0127L30.9711 61.001L60.6998 61.0007C62.1686 61.0007 63.3513 59.8184 63.3513 58.3497L63.3513 38.8545C63.3512 37.3858 62.1688 36.2035 60.7001 36.2036L30.9709 36.2037L30.5822 36.2035C29.3909 36.2803 28.7938 37.0784 28.2615 37.6668C27.5365 38.4691 26.8628 38.9868 25.9595 39.0161C24.7854 39.0161 23.4172 39.0168 22.425 39.0168C21.5216 38.9883 20.848 38.4696 20.1232 37.667C19.5903 37.078 18.9926 36.2796 17.7987 36.2035L17.4175 36.2034L17.4173 36.204L17.4175 36.2034L15.7179 36.2037Z" fill="white"/>
<path d="M49.5558 65.8787C48.3247 66.1373 47.0215 66.0463 45.8021 65.5715C44.8646 65.2074 44.6101 64.0002 45.3209 63.2886L46.7739 61.8325L46.9168 61.6918L47.8362 60.7369L47.9156 60.6555L47.7047 59.8867L46.9311 59.6994L46.8977 59.733C46.8412 59.7909 46.7797 59.8446 46.714 59.8929L44.3198 62.2848C43.6088 62.9955 42.4021 62.7425 42.0369 61.8058C41.0876 59.3671 41.6711 56.5868 43.5217 54.7365C44.9341 53.3244 46.9077 52.8212 48.8619 53.0169L57.8106 44.0677C56.4586 40.4594 57.2048 36.3609 59.9751 33.5905C62.4644 31.1014 66.0933 30.1169 69.4996 31.0053C70.5381 31.2835 70.8922 32.5752 70.1332 33.3365L68.157 35.3153L66.9989 36.4741C66.9533 36.5439 66.901 36.6094 66.8438 36.6698L65.2932 38.2681L66.2054 41.4727L69.4342 42.2853L70.892 40.7811C70.9785 40.6927 71.0764 40.616 71.1827 40.5535L74.2662 37.4699C74.8102 36.9269 75.691 36.9266 76.235 37.4697C76.41 37.645 76.5355 37.8637 76.5979 38.1034C77.4869 41.5101 76.5009 45.138 74.0121 47.6277C71.2424 50.3971 67.1424 51.1456 63.5348 49.7949L54.5863 58.7409C54.7824 60.6953 54.2763 62.6691 52.8642 64.0816C51.9389 65.0068 50.782 65.6151 49.5509 65.8736L49.5558 65.8787ZM49.8724 62.674C50.2224 62.4949 50.6119 62.4035 50.9004 62.1151C51.8564 61.1589 52.235 59.7758 51.8988 58.4659C51.7762 57.9895 51.9147 57.4836 52.2675 57.1368L62.1618 47.2423C62.5877 46.8156 63.2401 46.7114 63.7779 46.9837C66.5365 48.381 69.8648 47.8499 72.0514 45.6632C73.1189 44.5958 73.6545 43.2258 73.8971 41.7866L72.9147 42.7684C72.8371 42.8476 72.7485 42.916 72.6537 42.9739L70.8806 44.8024C70.5344 45.16 70.024 45.3058 69.5412 45.1846L64.7498 43.9803C64.2663 43.8636 63.8867 43.4887 63.7508 43.0103L62.3964 38.258C62.261 37.7795 62.3969 37.2648 62.7381 36.908L63.8938 35.716L64.8417 36.666C64.2972 36.1218 64.2976 35.2393 64.8422 34.695L65.8212 33.716C64.3848 33.9597 63.0171 34.4957 61.9516 35.5611C59.7651 37.7479 59.2337 41.0789 60.6309 43.8375C60.9021 44.3746 60.7977 45.0252 60.3721 45.4507L50.4779 55.3447C50.13 55.6927 49.6245 55.8317 49.1475 55.7099C47.8377 55.3744 46.4544 55.7534 45.4983 56.709C45.2112 56.9959 45.1206 57.3836 44.942 57.7317C44.9758 57.701 45.0122 57.67 45.0502 57.643L45.4882 57.1907C45.8312 56.8374 46.335 56.6911 46.8138 56.806L49.1641 57.372C49.6573 57.4913 50.0466 57.8697 50.1803 58.3591L50.8189 60.6879C50.9094 61.0187 50.8733 61.3709 50.7197 61.6773L49.8779 60.7776C50.3758 61.3125 50.376 62.1413 49.878 62.6762L49.8724 62.674Z" fill="#2D2D64"/>
<path d="M75.2513 38.4558L71.9249 41.7822L71.8943 41.7496L69.8762 43.831L65.0853 42.6268L63.733 37.8758L65.8435 35.6996L65.8223 35.6782L67.1716 34.329L69.1485 32.3523C66.2185 31.5878 63.1031 32.4338 60.9618 34.5749C58.3531 37.1836 57.716 41.1737 59.3829 44.4647L49.4887 54.3586C47.7044 53.901 45.8108 54.4193 44.5081 55.722C43.0458 57.1845 42.5862 59.373 43.3364 61.3003L45.8839 58.7523L45.8954 58.7679L46.4823 58.1615L48.8313 58.7277L49.4699 61.0565L48.836 61.7098L48.8528 61.7287L47.7592 62.8222L46.3053 64.2767C48.2326 65.0271 50.4212 64.5673 51.8838 63.1048C53.1861 61.802 53.7044 59.9082 53.2466 58.1236L63.1408 48.2297C66.432 49.8966 70.4216 49.2598 73.0303 46.6511C75.1716 44.5096 76.0175 41.3934 75.2525 38.463L75.2513 38.4558Z" fill="#A9B9C9"/>
</svg>
