<svg width="53" height="35" viewBox="0 0 53 35" fill="none" xmlns="http://www.w3.org/2000/svg">
<path d="M21.1268 35.0001H18.8834V26.4462H21.1268V35.0001Z" fill="#E6E7E8"/>
<path d="M25.582 35.0001H23.3387V26.4462H25.582V35.0001Z" fill="#E6E7E8"/>
<path d="M30.0374 35.0001H27.793V26.4462H30.0374V35.0001Z" fill="#E6E7E8"/>
<path d="M34.4938 35.0001H32.2505V26.4462H34.4938V35.0001Z" fill="#E6E7E8"/>
<path d="M49.5921 4.39339C48.871 4.39339 48.2891 3.79447 48.2891 3.05109C48.2891 2.31548 48.871 1.71543 49.5921 1.71543C50.3101 1.71543 50.8822 2.31548 50.8822 3.05109C50.8822 3.79447 50.3101 4.39339 49.5921 4.39339ZM3.7859 24.787C3.07446 24.787 2.49257 24.188 2.49257 23.4458C2.49257 22.709 3.07446 22.109 3.7859 22.109C4.51569 22.109 5.08894 22.709 5.08894 23.4458C5.08894 24.188 4.51569 24.787 3.7859 24.787ZM0.837585 26.486H52.5383V0.0153217H0.837585V26.486Z" fill="#153878"/>
<path d="M21.6236 14.342C21.6236 19.7501 17.3679 24.1437 12.1136 24.1437C6.84531 24.1437 2.5864 19.7501 2.5864 14.342C2.5864 8.92163 6.84531 4.53467 12.1136 4.53467C17.3679 4.53467 21.6236 8.92163 21.6236 14.342Z" fill="#E6E7E8"/>
<path d="M18.8832 14.342C18.8832 18.1856 15.8496 21.3069 12.1132 21.3069C8.35954 21.3069 5.33026 18.1856 5.33026 14.342C5.33026 10.4828 8.35954 7.36597 12.1132 7.36597C15.8496 7.36597 18.8832 10.4828 18.8832 14.342Z" fill="#231F20"/>
<path d="M50.7296 14.4488C50.7296 19.797 46.515 24.1439 41.3136 24.1439C36.1047 24.1439 31.8911 19.797 31.8911 14.4488C31.8911 9.08848 36.1047 4.74931 41.3136 4.74931C46.515 4.74931 50.7296 9.08848 50.7296 14.4488Z" fill="#E6E7E8"/>
<path d="M48.015 14.4489C48.015 18.2559 45.017 21.3416 41.3141 21.3416C37.6133 21.3416 34.6056 18.2559 34.6056 14.4489C34.6056 10.632 37.6133 7.54404 41.3141 7.54404C45.017 7.54404 48.015 10.632 48.015 14.4489Z" fill="#231F20"/>
<path d="M23.3473 7.43243C21.796 7.43243 20.5285 6.12457 20.5285 4.53002C20.5285 2.9388 21.796 1.6365 23.3473 1.6365H30.0309C31.5801 1.6365 32.8508 2.9388 32.8508 4.53002C32.8508 6.12457 31.5801 7.43243 30.0309 7.43243H23.3473Z" fill="#E6E7E8"/>
<path d="M31.9597 4.53029C31.9597 5.62703 31.0917 6.51486 30.0316 6.51486H23.3469C22.2835 6.51486 21.4209 5.62703 21.4209 4.53029C21.4209 3.44133 22.2835 2.55571 23.3469 2.55571H30.0316C31.0917 2.55571 31.9597 3.44133 31.9597 4.53029Z" fill="#D0D2D3"/>
</svg>
